KdamThmorTwo-Regular.ufo
<glyph name="exclam" format="2">
  <advance width="289"/>
  <unicode hex="0021"/>
  <outline>
    <contour>
      <point x="120" y="247" type="line"/>
      <point x="191" y="247" type="line"/>
      <point x="220" y="612" type="line"/>
      <point x="220" y="805" type="line"/>
      <point x="92" y="805" type="line"/>
      <point x="92" y="612" type="line"/>
    </contour>
    <contour>
      <point x="96" y="0" type="line"/>
      <point x="215" y="0" type="line"/>
      <point x="215" y="138" type="line"/>
      <point x="96" y="138" type="line"/>
    </contour>
  </outline>
</glyph>
<glyph name="quotedbl" format="2">
  <advance width="346"/>
  <unicode hex="0022"/>
  <outline>
    <contour>
      <point x="102" y="588" type="line"/>
      <point x="45" y="588" type="line"/>
      <point x="45" y="853" type="line"/>
      <point x="138" y="853" type="line"/>
      <point x="138" y="740" type="line"/>
    </contour>
    <contour>
      <point x="250" y="588" type="line"/>
      <point x="194" y="588" type="line"/>
      <point x="194" y="853" type="line"/>
      <point x="288" y="853" type="line"/>
      <point x="288" y="740" type="line"/>
    </contour>
  </outline>
</glyph>
<glyph name="dollar" format="2">
	<advance width="603"/>
	<unicode hex="0024"/>
	<outline>
		<contour>
			<point x="351" y="442" type="curve" smooth="yes"/>
			<point x="200" y="442" type="line" smooth="yes"/>
			<point x="189" y="442"/>
			<point x="184" y="447"/>
			<point x="184" y="458" type="curve" smooth="yes"/>
			<point x="184" y="618" type="line" smooth="yes"/>
			<point x="184" y="630"/>
			<point x="190" y="635"/>
			<point x="200" y="635" type="curve" smooth="yes"/>
			<point x="512" y="635" type="line"/>
			<point x="512" y="744" type="line"/>
			<point x="245" y="749" type="line" smooth="yes"/>
			<point x="121" y="752"/>
			<point x="56" y="688"/>
			<point x="56" y="577" type="curve" smooth="yes"/>
			<point x="56" y="495" type="line" smooth="yes"/>
			<point x="56" y="381"/>
			<point x="119" y="329"/>
			<point x="243" y="329" type="curve" smooth="yes"/>
			<point x="392" y="329" type="line" smooth="yes"/>
			<point x="402" y="329"/>
			<point x="408" y="324"/>
			<point x="408" y="313" type="curve" smooth="yes"/>
			<point x="408" y="147" type="line" smooth="yes"/>
			<point x="408" y="136"/>
			<point x="403" y="131"/>
			<point x="392" y="131" type="curve" smooth="yes"/>
			<point x="72" y="131" type="line"/>
			<point x="72" y="21" type="line"/>
			<point x="350" y="16" type="line" smooth="yes"/>
			<point x="474" y="14"/>
			<point x="537" y="73"/>
			<point x="537" y="186" type="curve" smooth="yes"/>
			<point x="537" y="278" type="line" smooth="yes"/>
			<point x="537" y="388"/>
			<point x="475" y="442"/>
		</contour>
		<contour>
			<point x="249" y="871" type="line"/>
			<point x="249" y="734" type="line"/>
			<point x="355" y="734" type="line"/>
			<point x="355" y="871" type="line"/>
		</contour>
		<contour>
			<point x="249" y="34" type="line"/>
			<point x="249" y="-103" type="line"/>
			<point x="355" y="-103" type="line"/>
			<point x="355" y="34" type="line"/>
		</contour>
	</outline>
</glyph>
<glyph name="percent" format="2">
	<advance width="933"/>
	<unicode hex="0025"/>
	<outline>
		<contour>
			<point x="37" y="695" type="curve" smooth="yes"/>
			<point x="37" y="450" type="line" smooth="yes"/>
			<point x="37" y="380"/>
			<point x="70" y="347"/>
			<point x="151" y="347" type="curve" smooth="yes"/>
			<point x="255" y="347" type="line" smooth="yes"/>
			<point x="336" y="347"/>
			<point x="373" y="380"/>
			<point x="373" y="450" type="curve" smooth="yes"/>
			<point x="370" y="695" type="line" smooth="yes"/>
			<point x="370" y="767"/>
			<point x="336" y="799"/>
			<point x="255" y="799" type="curve" smooth="yes"/>
			<point x="151" y="799" type="line" smooth="yes"/>
			<point x="70" y="799"/>
			<point x="37" y="767"/>
		</contour>
		<contour>
			<point x="146" y="712" type="curve" smooth="yes"/>
			<point x="261" y="712" type="line" smooth="yes"/>
			<point x="269" y="712"/>
			<point x="274" y="709"/>
			<point x="274" y="700" type="curve" smooth="yes"/>
			<point x="274" y="447" type="line" smooth="yes"/>
			<point x="274" y="437"/>
			<point x="269" y="434"/>
			<point x="261" y="434" type="curve" smooth="yes"/>
			<point x="146" y="434" type="line" smooth="yes"/>
			<point x="138" y="434"/>
			<point x="133" y="437"/>
			<point x="133" y="447" type="curve" smooth="yes"/>
			<point x="133" y="700" type="line" smooth="yes"/>
			<point x="133" y="709"/>
			<point x="138" y="712"/>
		</contour>
		<contour>
			<point x="563" y="342" type="curve" smooth="yes"/>
			<point x="563" y="96" type="line" smooth="yes"/>
			<point x="563" y="26"/>
			<point x="597" y="-6"/>
			<point x="677" y="-6" type="curve" smooth="yes"/>
			<point x="781" y="-6" type="line" smooth="yes"/>
			<point x="862" y="-6"/>
			<point x="896" y="26"/>
			<point x="896" y="96" type="curve" smooth="yes"/>
			<point x="896" y="342" type="line" smooth="yes"/>
			<point x="896" y="413"/>
			<point x="862" y="445"/>
			<point x="781" y="445" type="curve" smooth="yes"/>
			<point x="677" y="445" type="line" smooth="yes"/>
			<point x="597" y="445"/>
			<point x="563" y="413"/>
		</contour>
		<contour>
			<point x="673" y="358" type="curve" smooth="yes"/>
			<point x="787" y="358" type="line" smooth="yes"/>
			<point x="795" y="358"/>
			<point x="800" y="355"/>
			<point x="800" y="345" type="curve" smooth="yes"/>
			<point x="800" y="93" type="line" smooth="yes"/>
			<point x="800" y="83"/>
			<point x="795" y="80"/>
			<point x="787" y="80" type="curve" smooth="yes"/>
			<point x="673" y="80" type="line" smooth="yes"/>
			<point x="664" y="80"/>
			<point x="659" y="83"/>
			<point x="659" y="93" type="curve" smooth="yes"/>
			<point x="659" y="345" type="line" smooth="yes"/>
			<point x="659" y="355"/>
			<point x="664" y="358"/>
		</contour>
		<component base="fraction" xOffset="186"/>
	</outline>
</glyph>
<glyph name="ampersand" format="2">
	<advance width="714"/>
	<unicode hex="0026"/>
	<outline>
		<contour>
			<point x="270" y="-5" type="curve" smooth="yes"/>
			<point x="400" y="-5" type="line" smooth="yes"/>
			<point x="522" y="-5"/>
			<point x="589" y="56"/>
			<point x="589" y="167" type="curve" smooth="yes"/>
			<point x="589" y="324" type="line" smooth="yes"/>
			<point x="589" y="335"/>
			<point x="595" y="340"/>
			<point x="605" y="340" type="curve" smooth="yes"/>
			<point x="679" y="340" type="line"/>
			<point x="680" y="455" type="line"/>
			<point x="642" y="455" type="line" smooth="yes"/>
			<point x="518" y="455"/>
			<point x="461" y="404"/>
			<point x="461" y="293" type="curve" smooth="yes"/>
			<point x="461" y="125" type="line" smooth="yes"/>
			<point x="461" y="114"/>
			<point x="455" y="109"/>
			<point x="445" y="109" type="curve" smooth="yes"/>
			<point x="225" y="109" type="line" smooth="yes"/>
			<point x="215" y="109"/>
			<point x="209" y="114"/>
			<point x="209" y="125" type="curve" smooth="yes"/>
			<point x="209" y="361" type="line" smooth="yes"/>
			<point x="209" y="372"/>
			<point x="214" y="377"/>
			<point x="225" y="377" type="curve" smooth="yes"/>
			<point x="377" y="377" type="line"/>
			<point x="377" y="470" type="line"/>
			<point x="231" y="470" type="line" smooth="yes"/>
			<point x="220" y="470"/>
			<point x="215" y="475"/>
			<point x="215" y="486" type="curve" smooth="yes"/>
			<point x="215" y="668" type="line" smooth="yes"/>
			<point x="215" y="680"/>
			<point x="220" y="685"/>
			<point x="231" y="685" type="curve" smooth="yes"/>
			<point x="439" y="685" type="line" smooth="yes"/>
			<point x="450" y="685"/>
			<point x="455" y="680"/>
			<point x="455" y="668" type="curve" smooth="yes"/>
			<point x="455" y="562" type="line"/>
			<point x="583" y="562" type="line"/>
			<point x="583" y="628" type="line" smooth="yes"/>
			<point x="583" y="741"/>
			<point x="520" y="798"/>
			<point x="396" y="798" type="curve" smooth="yes"/>
			<point x="274" y="798" type="line" smooth="yes"/>
			<point x="150" y="798"/>
			<point x="86" y="741"/>
			<point x="86" y="628" type="curve" smooth="yes"/>
			<point x="86" y="548" type="line" smooth="yes"/>
			<point x="86" y="444"/>
			<point x="159" y="401"/>
			<point x="283" y="401" type="curve"/>
			<point x="277" y="444" type="line"/>
			<point x="145" y="444"/>
			<point x="80" y="403"/>
			<point x="80" y="293" type="curve" smooth="yes"/>
			<point x="80" y="167" type="line" smooth="yes"/>
			<point x="80" y="56"/>
			<point x="147" y="-5"/>
		</contour>
	</outline>
</glyph>
<glyph name="quotesingle" format="2">
	<advance width="202"/>
	<unicode hex="0027"/>
	<outline>
		<contour>
			<point x="104" y="587" type="line"/>
			<point x="45" y="587" type="line"/>
			<point x="45" y="853" type="line"/>
			<point x="143" y="853" type="line"/>
			<point x="143" y="740" type="line"/>
		</contour>
	</outline>
</glyph>
<glyph name="slash" format="2">
	<advance width="537"/>
	<unicode hex="002F"/>
	<outline>
		<contour>
			<point x="527" y="842" type="line"/>
			<point x="411" y="842" type="line"/>
			<point x="18" y="-120" type="line"/>
			<point x="137" y="-120" type="line"/>
		</contour>
	</outline>
</glyph>
<glyph name="zero" format="2">
  <advance width="691"/>
  <unicode hex="0030"/>
  <outline>
    <contour>
      <point x="229" y="689" type="curve" smooth="yes"/>
      <point x="462" y="689" type="line" smooth="yes"/>
      <point x="470" y="689"/>
      <point x="476" y="685"/>
      <point x="476" y="676" type="curve" smooth="yes"/>
      <point x="476" y="117" type="line" smooth="yes"/>
      <point x="476" y="108"/>
      <point x="470" y="104"/>
      <point x="462" y="104" type="curve" smooth="yes"/>
      <point x="229" y="104" type="line" smooth="yes"/>
      <point x="221" y="104"/>
      <point x="215" y="108"/>
      <point x="215" y="117" type="curve" smooth="yes"/>
      <point x="215" y="676" type="line" smooth="yes"/>
      <point x="215" y="685"/>
      <point x="221" y="689"/>
    </contour>
    <contour>
      <point x="87" y="643" type="curve" smooth="yes"/>
      <point x="87" y="149" type="line" smooth="yes"/>
      <point x="87" y="39"/>
      <point x="144" y="-9"/>
      <point x="265" y="-9" type="curve" smooth="yes"/>
      <point x="426" y="-9" type="line" smooth="yes"/>
      <point x="546" y="-9"/>
      <point x="604" y="39"/>
      <point x="604" y="149" type="curve" smooth="yes"/>
      <point x="604" y="643" type="line" smooth="yes"/>
      <point x="604" y="754"/>
      <point x="546" y="802"/>
      <point x="426" y="802" type="curve" smooth="yes"/>
      <point x="265" y="802" type="line" smooth="yes"/>
      <point x="144" y="802"/>
      <point x="87" y="754"/>
    </contour>
  </outline>
</glyph>
<glyph name="one" format="2">
	<advance width="541"/>
	<unicode hex="0031"/>
	<outline>
		<contour>
			<point x="510" y="0" type="line"/>
			<point x="510" y="102" type="line"/>
			<point x="69" y="102" type="line"/>
			<point x="69" y="0" type="line"/>
		</contour>
		<contour>
			<point x="256" y="793" type="line"/>
			<point x="28" y="646" type="line"/>
			<point x="80" y="559" type="line"/>
			<point x="255" y="666" type="line"/>
			<point x="246" y="670" type="line"/>
			<point x="246" y="0" type="line"/>
			<point x="372" y="0" type="line"/>
			<point x="372" y="793" type="line"/>
		</contour>
	</outline>
</glyph>
<glyph name="three" format="2">
	<advance width="580"/>
	<unicode hex="0033"/>
	<outline>
		<contour>
			<point x="308" y="-5" type="line" smooth="yes"/>
			<point x="432" y="-8"/>
			<point x="499" y="56"/>
			<point x="499" y="167" type="curve" smooth="yes"/>
			<point x="499" y="277" type="line" smooth="yes"/>
			<point x="499" y="387"/>
			<point x="435" y="429"/>
			<point x="302" y="428" type="curve"/>
			<point x="296" y="385" type="line"/>
			<point x="419" y="385"/>
			<point x="493" y="428"/>
			<point x="493" y="532" type="curve" smooth="yes"/>
			<point x="493" y="628" type="line" smooth="yes"/>
			<point x="493" y="741"/>
			<point x="429" y="800"/>
			<point x="305" y="798" type="curve" smooth="yes"/>
			<point x="35" y="793" type="line"/>
			<point x="35" y="685" type="line"/>
			<point x="347" y="685" type="line" smooth="yes"/>
			<point x="358" y="685"/>
			<point x="364" y="680"/>
			<point x="364" y="668" type="curve" smooth="yes"/>
			<point x="364" y="478" type="line" smooth="yes"/>
			<point x="364" y="467"/>
			<point x="358" y="462"/>
			<point x="347" y="462" type="curve" smooth="yes"/>
			<point x="105" y="462" type="line"/>
			<point x="105" y="353" type="line"/>
			<point x="354" y="353" type="line" smooth="yes"/>
			<point x="365" y="353"/>
			<point x="370" y="349"/>
			<point x="370" y="337" type="curve" smooth="yes"/>
			<point x="370" y="125" type="line" smooth="yes"/>
			<point x="370" y="114"/>
			<point x="364" y="109"/>
			<point x="354" y="109" type="curve" smooth="yes"/>
			<point x="31" y="109" type="line"/>
			<point x="31" y="0" type="line"/>
		</contour>
	</outline>
</glyph>
<glyph name="five" format="2">
	<advance width="584"/>
	<unicode hex="0035"/>
	<outline>
		<contour>
			<point x="332" y="490" type="curve" smooth="yes"/>
			<point x="184" y="490" type="line"/>
			<point x="184" y="684" type="line"/>
			<point x="492" y="684" type="line"/>
			<point x="492" y="793" type="line"/>
			<point x="60" y="793" type="line"/>
			<point x="60" y="381" type="line"/>
			<point x="377" y="381" type="line" smooth="yes"/>
			<point x="387" y="381"/>
			<point x="393" y="376"/>
			<point x="393" y="365" type="curve" smooth="yes"/>
			<point x="393" y="125" type="line" smooth="yes"/>
			<point x="393" y="114"/>
			<point x="387" y="109"/>
			<point x="377" y="109" type="curve" smooth="yes"/>
			<point x="51" y="109" type="line"/>
			<point x="51" y="0" type="line"/>
			<point x="335" y="-5" type="line" smooth="yes"/>
			<point x="458" y="-8"/>
			<point x="522" y="51"/>
			<point x="522" y="165" type="curve" smooth="yes"/>
			<point x="522" y="322" type="line" smooth="yes"/>
			<point x="522" y="433"/>
			<point x="455" y="490"/>
		</contour>
	</outline>
</glyph>
<glyph name="six" format="2">
	<advance width="636"/>
	<unicode hex="0036"/>
	<outline>
		<contour>
			<point x="274" y="-4" type="curve" smooth="yes"/>
			<point x="397" y="-4" type="line" smooth="yes"/>
			<point x="520" y="-4"/>
			<point x="585" y="51"/>
			<point x="585" y="165" type="curve" smooth="yes"/>
			<point x="585" y="328" type="line" smooth="yes"/>
			<point x="585" y="445"/>
			<point x="527" y="492"/>
			<point x="403" y="492" type="curve" smooth="yes"/>
			<point x="200" y="492" type="line"/>
			<point x="200" y="386" type="line"/>
			<point x="440" y="386" type="line" smooth="yes"/>
			<point x="449" y="386"/>
			<point x="455" y="381"/>
			<point x="455" y="369" type="curve" smooth="yes"/>
			<point x="455" y="125" type="line" smooth="yes"/>
			<point x="455" y="114"/>
			<point x="450" y="109"/>
			<point x="440" y="109" type="curve" smooth="yes"/>
			<point x="232" y="109" type="line" smooth="yes"/>
			<point x="221" y="109"/>
			<point x="215" y="114"/>
			<point x="215" y="125" type="curve" smooth="yes"/>
			<point x="215" y="667" type="line" smooth="yes"/>
			<point x="215" y="679"/>
			<point x="221" y="684"/>
			<point x="232" y="684" type="curve" smooth="yes"/>
			<point x="545" y="684" type="line"/>
			<point x="545" y="793" type="line"/>
			<point x="277" y="798" type="line" smooth="yes"/>
			<point x="153" y="800"/>
			<point x="87" y="737"/>
			<point x="87" y="626" type="curve" smooth="yes"/>
			<point x="87" y="160" type="line" smooth="yes"/>
			<point x="87" y="46"/>
			<point x="150" y="-4"/>
		</contour>
	</outline>
</glyph>
<glyph name="seven" format="2">
	<advance width="525"/>
	<unicode hex="0037"/>
	<outline>
		<contour>
			<point x="82" y="-3" type="line"/>
			<point x="217" y="-3" type="line"/>
			<point x="499" y="680" type="line"/>
			<point x="499" y="751"/>
			<point x="466" y="794"/>
			<point x="392" y="794" type="curve" smooth="yes"/>
			<point x="21" y="794" type="line"/>
			<point x="21" y="690" type="line"/>
			<point x="349" y="691" type="line" smooth="yes"/>
			<point x="360" y="691"/>
			<point x="363" y="683"/>
			<point x="359" y="673" type="curve" smooth="yes"/>
		</contour>
	</outline>
</glyph>
<glyph name="eight" format="2">
  <advance width="685"/>
  <unicode hex="0038"/>
  <outline>
    <contour>
      <point x="270" y="-5" type="curve" smooth="yes"/>
      <point x="415" y="-5" type="line" smooth="yes"/>
      <point x="540" y="-5"/>
      <point x="606" y="56"/>
      <point x="606" y="167" type="curve" smooth="yes"/>
      <point x="606" y="277" type="line" smooth="yes"/>
      <point x="606" y="387"/>
      <point x="542" y="429"/>
      <point x="408" y="428" type="curve"/>
      <point x="402" y="385" type="line"/>
      <point x="526" y="385"/>
      <point x="599" y="428"/>
      <point x="599" y="532" type="curve" smooth="yes"/>
      <point x="599" y="628" type="line" smooth="yes"/>
      <point x="599" y="741"/>
      <point x="536" y="798"/>
      <point x="412" y="798" type="curve" smooth="yes"/>
      <point x="274" y="798" type="line" smooth="yes"/>
      <point x="150" y="798"/>
      <point x="86" y="741"/>
      <point x="86" y="628" type="curve" smooth="yes"/>
      <point x="86" y="532" type="line" smooth="yes"/>
      <point x="86" y="428"/>
      <point x="159" y="385"/>
      <point x="283" y="385" type="curve"/>
      <point x="277" y="428" type="line"/>
      <point x="145" y="429"/>
      <point x="80" y="387"/>
      <point x="80" y="277" type="curve" smooth="yes"/>
      <point x="80" y="167" type="line" smooth="yes"/>
      <point x="80" y="56"/>
      <point x="147" y="-5"/>
    </contour>
    <contour>
      <point x="225" y="109" type="line" smooth="yes"/>
      <point x="215" y="109"/>
      <point x="209" y="114"/>
      <point x="209" y="125" type="curve" smooth="yes"/>
      <point x="209" y="339" type="line" smooth="yes"/>
      <point x="209" y="350"/>
      <point x="214" y="355"/>
      <point x="225" y="355" type="curve" smooth="yes"/>
      <point x="460" y="355" type="line" smooth="yes"/>
      <point x="471" y="355"/>
      <point x="477" y="350"/>
      <point x="477" y="339" type="curve" smooth="yes"/>
      <point x="477" y="125" type="line" smooth="yes"/>
      <point x="477" y="114"/>
      <point x="471" y="109"/>
      <point x="460" y="109" type="curve" smooth="yes"/>
    </contour>
    <contour>
      <point x="231" y="460" type="line" smooth="yes"/>
      <point x="220" y="460"/>
      <point x="215" y="465"/>
      <point x="215" y="477" type="curve" smooth="yes"/>
      <point x="215" y="668" type="line" smooth="yes"/>
      <point x="215" y="680"/>
      <point x="220" y="685"/>
      <point x="231" y="685" type="curve" smooth="yes"/>
      <point x="454" y="685" type="line" smooth="yes"/>
      <point x="465" y="685"/>
      <point x="471" y="680"/>
      <point x="471" y="668" type="curve" smooth="yes"/>
      <point x="471" y="477" type="line" smooth="yes"/>
      <point x="471" y="465"/>
      <point x="465" y="460"/>
      <point x="454" y="460" type="curve" smooth="yes"/>
    </contour>
  </outline>
</glyph>
<glyph name="nine" format="2">
  <advance width="636"/>
  <unicode hex="0039"/>
  <outline>
    <contour>
      <point x="359" y="-5" type="line" smooth="yes"/>
      <point x="482" y="-8"/>
      <point x="549" y="56"/>
      <point x="549" y="167" type="curve" smooth="yes"/>
      <point x="549" y="633" type="line" smooth="yes"/>
      <point x="549" y="747"/>
      <point x="486" y="797"/>
      <point x="362" y="797" type="curve" smooth="yes"/>
      <point x="239" y="797" type="line" smooth="yes"/>
      <point x="115" y="797"/>
      <point x="51" y="741"/>
      <point x="51" y="628" type="curve" smooth="yes"/>
      <point x="51" y="458" type="line" smooth="yes"/>
      <point x="51" y="341"/>
      <point x="108" y="293"/>
      <point x="232" y="293" type="curve" smooth="yes"/>
      <point x="435" y="293" type="line"/>
      <point x="435" y="400" type="line"/>
      <point x="196" y="400" type="line" smooth="yes"/>
      <point x="186" y="400"/>
      <point x="180" y="405"/>
      <point x="180" y="416" type="curve" smooth="yes"/>
      <point x="180" y="667" type="line" smooth="yes"/>
      <point x="180" y="679"/>
      <point x="186" y="684"/>
      <point x="196" y="684" type="curve" smooth="yes"/>
      <point x="403" y="684" type="line" smooth="yes"/>
      <point x="414" y="684"/>
      <point x="421" y="679"/>
      <point x="421" y="667" type="curve" smooth="yes"/>
      <point x="421" y="125" type="line" smooth="yes"/>
      <point x="421" y="114"/>
      <point x="414" y="109"/>
      <point x="404" y="109" type="curve" smooth="yes"/>
      <point x="82" y="109" type="line"/>
      <point x="82" y="0" type="line"/>
    </contour>
  </outline>
</glyph>
<glyph name="semicolon" format="2">
  <advance width="273"/>
  <unicode hex="003B"/>
  <outline>
    <contour>
      <point x="124" y="2" type="line"/>
      <point x="74" y="2" type="line"/>
      <point x="74" y="141" type="line"/>
      <point x="192" y="141" type="line"/>
      <point x="192" y="24" type="line" smooth="yes"/>
      <point x="192" y="-32"/>
      <point x="165" y="-85"/>
      <point x="117" y="-133" type="curve"/>
      <point x="77" y="-98" type="line"/>
      <point x="103" y="-59"/>
      <point x="114" y="-17"/>
      <point x="114" y="9" type="curve"/>
    </contour>
    <contour>
      <point x="74" y="333" type="line"/>
      <point x="192" y="333" type="line"/>
      <point x="192" y="473" type="line"/>
      <point x="74" y="473" type="line"/>
    </contour>
  </outline>
</glyph>
<glyph name="equal" format="2">
	<advance width="642"/>
	<unicode hex="003D"/>
	<outline>
		<contour>
			<point x="572" y="401" type="line"/>
			<point x="572" y="491" type="line"/>
			<point x="65" y="491" type="line"/>
			<point x="65" y="401" type="line"/>
		</contour>
		<contour>
			<point x="572" y="172" type="line"/>
			<point x="572" y="262" type="line"/>
			<point x="65" y="262" type="line"/>
			<point x="65" y="172" type="line"/>
		</contour>
	</outline>
</glyph>
<glyph name="greater" format="2">
  <advance width="584"/>
  <unicode hex="003E"/>
  <outline>
    <contour>
      <point x="529" y="338" type="line"/>
      <point x="529" y="415" type="line"/>
      <point x="67" y="644" type="line"/>
      <point x="67" y="538" type="line"/>
      <point x="457" y="356" type="line"/>
      <point x="457" y="397" type="line"/>
      <point x="67" y="213" type="line"/>
      <point x="67" y="109" type="line"/>
    </contour>
  </outline>
</glyph>
<glyph name="question" format="2">
  <advance width="461"/>
  <unicode hex="003F"/>
  <outline>
    <contour>
      <point x="109" y="210" type="line"/>
      <point x="226" y="210" type="line"/>
      <point x="226" y="273" type="line" smooth="yes"/>
      <point x="227" y="300"/>
      <point x="230" y="311"/>
      <point x="248" y="330" type="curve" smooth="yes"/>
      <point x="334" y="419" type="line" smooth="yes"/>
      <point x="384" y="472"/>
      <point x="403" y="498"/>
      <point x="403" y="553" type="curve" smooth="yes"/>
      <point x="403" y="641" type="line" smooth="yes"/>
      <point x="403" y="751"/>
      <point x="350" y="796"/>
      <point x="235" y="796" type="curve" smooth="yes"/>
      <point x="35" y="796" type="line"/>
      <point x="35" y="690" type="line"/>
      <point x="269" y="690" type="line" smooth="yes"/>
      <point x="277" y="690"/>
      <point x="282" y="686"/>
      <point x="282" y="677" type="curve" smooth="yes"/>
      <point x="282" y="533" type="line" smooth="yes"/>
      <point x="282" y="522"/>
      <point x="280" y="519"/>
      <point x="272" y="510" type="curve" smooth="yes"/>
      <point x="163" y="396" type="line" smooth="yes"/>
      <point x="119" y="350"/>
      <point x="109" y="337"/>
      <point x="109" y="287" type="curve" smooth="yes"/>
    </contour>
    <contour>
      <point x="107" y="0" type="line"/>
      <point x="227" y="0" type="line"/>
      <point x="227" y="138" type="line"/>
      <point x="107" y="138" type="line"/>
    </contour>
  </outline>
</glyph>
<glyph name="at" format="2">
  <advance width="830"/>
  <unicode hex="0040"/>
  <outline>
    <contour>
      <point x="258" y="-59" type="curve" smooth="yes"/>
      <point x="579" y="-59" type="line"/>
      <point x="579" y="25" type="line"/>
      <point x="191" y="25" type="line" smooth="yes"/>
      <point x="183" y="25"/>
      <point x="178" y="29"/>
      <point x="178" y="38" type="curve" smooth="yes"/>
      <point x="178" y="654" type="line" smooth="yes"/>
      <point x="178" y="664"/>
      <point x="183" y="668"/>
      <point x="191" y="668" type="curve" smooth="yes"/>
      <point x="651" y="668" type="line" smooth="yes"/>
      <point x="659" y="668"/>
      <point x="664" y="664"/>
      <point x="664" y="654" type="curve" smooth="yes"/>
      <point x="664" y="210" type="line" smooth="yes"/>
      <point x="664" y="201"/>
      <point x="659" y="197"/>
      <point x="651" y="197" type="curve" smooth="yes"/>
      <point x="592" y="197" type="line" smooth="yes"/>
      <point x="584" y="197"/>
      <point x="579" y="200"/>
      <point x="579" y="210" type="curve" smooth="yes"/>
      <point x="579" y="569" type="line"/>
      <point x="400" y="573" type="line" smooth="yes"/>
      <point x="299" y="574"/>
      <point x="255" y="537"/>
      <point x="255" y="444" type="curve" smooth="yes"/>
      <point x="255" y="244" type="line" smooth="yes"/>
      <point x="255" y="157"/>
      <point x="294" y="122"/>
      <point x="378" y="122" type="curve" smooth="yes"/>
      <point x="402" y="122" type="line" smooth="yes"/>
      <point x="470" y="122"/>
      <point x="489" y="167"/>
      <point x="489" y="229" type="curve"/>
      <point x="483" y="203" type="line"/>
      <point x="483" y="197" type="line" smooth="yes"/>
      <point x="483" y="140"/>
      <point x="516" y="122"/>
      <point x="586" y="122" type="curve" smooth="yes"/>
      <point x="644" y="122" type="line" smooth="yes"/>
      <point x="734" y="122"/>
      <point x="762" y="154"/>
      <point x="762" y="248" type="curve" smooth="yes"/>
      <point x="762" y="593" type="line" smooth="yes"/>
      <point x="762" y="704"/>
      <point x="705" y="752"/>
      <point x="584" y="752" type="curve" smooth="yes"/>
      <point x="258" y="752" type="line" smooth="yes"/>
      <point x="137" y="752"/>
      <point x="81" y="704"/>
      <point x="81" y="593" type="curve" smooth="yes"/>
      <point x="81" y="99" type="line" smooth="yes"/>
      <point x="81" y="-11"/>
      <point x="137" y="-59"/>
    </contour>
    <contour>
      <point x="365" y="203" type="line" smooth="yes"/>
      <point x="356" y="203"/>
      <point x="352" y="207"/>
      <point x="352" y="217" type="curve" smooth="yes"/>
      <point x="352" y="482" type="line" smooth="yes"/>
      <point x="352" y="491"/>
      <point x="356" y="496"/>
      <point x="365" y="496" type="curve" smooth="yes"/>
      <point x="497" y="494" type="line"/>
      <point x="483" y="509" type="line"/>
      <point x="483" y="217" type="line" smooth="yes"/>
      <point x="483" y="205"/>
      <point x="478" y="203"/>
      <point x="470" y="203" type="curve" smooth="yes"/>
    </contour>
  </outline>
</glyph>
<glyph name="A" format="2">
  <advance width="667"/>
  <unicode hex="0041"/>
  <anchor x="656" y="0" name="ogonek"/>
  <anchor x="348" y="774" name="top"/>
  <outline>
    <contour>
      <point x="530" y="0" type="line"/>
      <point x="656" y="0" type="line"/>
      <point x="469" y="793" type="line"/>
      <point x="345" y="796" type="line" smooth="yes"/>
      <point x="244" y="798"/>
      <point x="222" y="770"/>
      <point x="195" y="669" type="curve" smooth="yes"/>
      <point x="14" y="0" type="line"/>
      <point x="131" y="0" type="line"/>
      <point x="185" y="211" type="line"/>
      <point x="169" y="199" type="line"/>
      <point x="497" y="199" type="line"/>
      <point x="482" y="211" type="line"/>
    </contour>
    <contour>
      <point x="206" y="294" type="line"/>
      <point x="305" y="671" type="line" smooth="yes"/>
      <point x="306" y="680"/>
      <point x="309" y="685"/>
      <point x="319" y="685" type="curve" smooth="yes"/>
      <point x="374" y="685" type="line"/>
      <point x="464" y="294" type="line"/>
      <point x="474" y="307" type="line"/>
      <point x="196" y="307" type="line"/>
    </contour>
  </outline>
</glyph>
<glyph name="B" format="2">
  <advance width="695"/>
  <unicode hex="0042"/>
  <outline>
    <contour>
      <point x="430" y="-5" type="line" smooth="yes"/>
      <point x="554" y="-7"/>
      <point x="620" y="56"/>
      <point x="620" y="167" type="curve" smooth="yes"/>
      <point x="620" y="272" type="line" smooth="yes"/>
      <point x="620" y="382"/>
      <point x="556" y="423"/>
      <point x="424" y="423" type="curve"/>
      <point x="412" y="380" type="line"/>
      <point x="535" y="380"/>
      <point x="602" y="424"/>
      <point x="602" y="527" type="curve" smooth="yes"/>
      <point x="602" y="628" type="line" smooth="yes"/>
      <point x="602" y="741"/>
      <point x="538" y="800"/>
      <point x="415" y="798" type="curve" smooth="yes"/>
      <point x="87" y="793" type="line"/>
      <point x="87" y="0" type="line"/>
    </contour>
    <contour>
      <point x="213" y="85" type="line"/>
      <point x="213" y="374" type="line"/>
      <point x="193" y="351" type="line"/>
      <point x="476" y="351" type="line" smooth="yes"/>
      <point x="486" y="351"/>
      <point x="492" y="346"/>
      <point x="492" y="335" type="curve" smooth="yes"/>
      <point x="492" y="120" type="line" smooth="yes"/>
      <point x="492" y="109"/>
      <point x="486" y="104"/>
      <point x="476" y="104" type="curve" smooth="yes"/>
      <point x="192" y="104" type="line"/>
    </contour>
    <contour>
      <point x="213" y="434" type="line"/>
      <point x="213" y="713" type="line"/>
      <point x="194" y="690" type="line"/>
      <point x="457" y="690" type="line" smooth="yes"/>
      <point x="467" y="690"/>
      <point x="474" y="685"/>
      <point x="474" y="674" type="curve" smooth="yes"/>
      <point x="474" y="471" type="line" smooth="yes"/>
      <point x="474" y="460"/>
      <point x="467" y="455"/>
      <point x="457" y="455" type="curve" smooth="yes"/>
      <point x="193" y="455" type="line"/>
    </contour>
  </outline>
</glyph>
<glyph name="C" format="2">
  <advance width="544"/>
  <unicode hex="0043"/>
  <anchor x="319" y="774" name="top"/>
  <anchor x="333" y="0" name="bottom"/>
  <outline>
    <contour>
      <point x="521" y="0" type="line"/>
      <point x="521" y="113" type="line"/>
      <point x="215" y="113" type="line" smooth="yes"/>
      <point x="207" y="113"/>
      <point x="201" y="117"/>
      <point x="201" y="126" type="curve" smooth="yes"/>
      <point x="201" y="666" type="line" smooth="yes"/>
      <point x="201" y="676"/>
      <point x="207" y="680"/>
      <point x="215" y="680" type="curve" smooth="yes"/>
      <point x="521" y="680" type="line"/>
      <point x="521" y="793" type="line"/>
      <point x="252" y="793" type="line" smooth="yes"/>
      <point x="131" y="793"/>
      <point x="73" y="744"/>
      <point x="73" y="633" type="curve" smooth="yes"/>
      <point x="73" y="159" type="line" smooth="yes"/>
      <point x="73" y="49"/>
      <point x="131" y="0"/>
      <point x="252" y="0" type="curve" smooth="yes"/>
    </contour>
  </outline>
</glyph>
<glyph name="D" format="2">
  <advance width="696"/>
  <unicode hex="0044"/>
  <anchor x="348" y="397" name="center"/>
  <anchor x="341" y="774" name="top"/>
  <outline>
    <contour>
      <point x="213" y="689" type="line"/>
      <point x="476" y="689" type="line" smooth="yes"/>
      <point x="486" y="689"/>
      <point x="492" y="684"/>
      <point x="492" y="673" type="curve" smooth="yes"/>
      <point x="492" y="120" type="line" smooth="yes"/>
      <point x="492" y="109"/>
      <point x="486" y="104"/>
      <point x="476" y="104" type="curve" smooth="yes"/>
      <point x="213" y="104" type="line"/>
    </contour>
    <contour>
      <point x="87" y="793" type="line"/>
      <point x="87" y="0" type="line"/>
      <point x="430" y="-6" type="line" smooth="yes"/>
      <point x="558" y="-8"/>
      <point x="620" y="44"/>
      <point x="620" y="165" type="curve" smooth="yes"/>
      <point x="620" y="628" type="line" smooth="yes"/>
      <point x="620" y="748"/>
      <point x="560" y="801"/>
      <point x="434" y="799" type="curve" smooth="yes"/>
    </contour>
  </outline>
</glyph>
<glyph name="E" format="2">
  <advance width="583"/>
  <unicode hex="0045"/>
  <anchor x="292" y="0" name="bottom"/>
  <anchor x="543" y="0" name="ogonek"/>
  <anchor x="315" y="774" name="top"/>
  <outline>
    <contour>
      <point x="87" y="0" type="line"/>
      <point x="543" y="0" type="line"/>
      <point x="543" y="109" type="line"/>
      <point x="194" y="109" type="line"/>
      <point x="213" y="90" type="line"/>
      <point x="213" y="368" type="line"/>
      <point x="194" y="348" type="line"/>
      <point x="514" y="348" type="line"/>
      <point x="514" y="456" type="line"/>
      <point x="194" y="456" type="line"/>
      <point x="213" y="438" type="line"/>
      <point x="213" y="702" type="line"/>
      <point x="194" y="684" type="line"/>
      <point x="536" y="684" type="line"/>
      <point x="536" y="793" type="line"/>
      <point x="87" y="793" type="line"/>
    </contour>
  </outline>
</glyph>
<glyph name="G" format="2">
  <advance width="669"/>
  <unicode hex="0047"/>
  <anchor x="335" y="0" name="bottom"/>
  <anchor x="349" y="774" name="top"/>
  <outline>
    <contour>
      <point x="253" y="-9" type="curve" smooth="yes"/>
      <point x="429" y="-9" type="line" smooth="yes"/>
      <point x="550" y="-9"/>
      <point x="608" y="39"/>
      <point x="608" y="149" type="curve" smooth="yes"/>
      <point x="608" y="425" type="line"/>
      <point x="360" y="425" type="line"/>
      <point x="360" y="319" type="line"/>
      <point x="499" y="319" type="line"/>
      <point x="486" y="339" type="line"/>
      <point x="486" y="117" type="line" smooth="yes"/>
      <point x="486" y="108"/>
      <point x="481" y="104"/>
      <point x="472" y="104" type="curve" smooth="yes"/>
      <point x="216" y="104" type="line" smooth="yes"/>
      <point x="208" y="104"/>
      <point x="203" y="108"/>
      <point x="203" y="117" type="curve" smooth="yes"/>
      <point x="203" y="676" type="line" smooth="yes"/>
      <point x="203" y="685"/>
      <point x="208" y="689"/>
      <point x="216" y="689" type="curve" smooth="yes"/>
      <point x="593" y="689" type="line"/>
      <point x="593" y="802" type="line"/>
      <point x="253" y="802" type="line" smooth="yes"/>
      <point x="132" y="802"/>
      <point x="75" y="754"/>
      <point x="75" y="643" type="curve" smooth="yes"/>
      <point x="75" y="149" type="line" smooth="yes"/>
      <point x="75" y="39"/>
      <point x="132" y="-9"/>
    </contour>
  </outline>
</glyph>
<glyph name="I" format="2">
  <advance width="330"/>
  <unicode hex="0049"/>
  <anchor x="228" y="0" name="ogonek"/>
  <anchor x="165" y="774" name="top"/>
  <outline>
    <contour>
      <point x="102" y="0" type="line"/>
      <point x="228" y="0" type="line"/>
      <point x="228" y="793" type="line"/>
      <point x="102" y="793" type="line"/>
    </contour>
  </outline>
</glyph>
<glyph name="J" format="2">
  <advance width="358"/>
  <unicode hex="004A"/>
  <outline>
    <contour>
      <point x="271" y="147" type="curve" smooth="yes"/>
      <point x="271" y="793" type="line"/>
      <point x="145" y="793" type="line"/>
      <point x="145" y="117" type="line" smooth="yes"/>
      <point x="145" y="108"/>
      <point x="140" y="104"/>
      <point x="132" y="104" type="curve" smooth="yes"/>
      <point x="9" y="104" type="line"/>
      <point x="9" y="-9" type="line"/>
      <point x="102" y="-9" type="line" smooth="yes"/>
      <point x="217" y="-9"/>
      <point x="271" y="36"/>
    </contour>
  </outline>
</glyph>
<glyph name="K" format="2">
  <advance width="696"/>
  <unicode hex="004B"/>
  <outline>
    <contour>
      <point x="93" y="0" type="line"/>
      <point x="219" y="0" type="line"/>
      <point x="219" y="793" type="line"/>
      <point x="93" y="793" type="line"/>
    </contour>
    <contour>
      <point x="198" y="388" type="line"/>
      <point x="367" y="388" type="line" smooth="yes"/>
      <point x="478" y="388"/>
      <point x="494" y="409"/>
      <point x="535" y="506" type="curve" smooth="yes"/>
      <point x="659" y="793" type="line"/>
      <point x="533" y="793" type="line"/>
      <point x="396" y="469" type="line" smooth="yes"/>
      <point x="392" y="459"/>
      <point x="391" y="455"/>
      <point x="382" y="455" type="curve" smooth="yes"/>
      <point x="198" y="455" type="line"/>
    </contour>
    <contour>
      <point x="192" y="346" type="line"/>
      <point x="381" y="346" type="line" smooth="yes"/>
      <point x="391" y="346"/>
      <point x="392" y="342"/>
      <point x="396" y="333" type="curve" smooth="yes"/>
      <point x="555" y="0" type="line"/>
      <point x="689" y="0" type="line"/>
      <point x="545" y="295" type="line" smooth="yes"/>
      <point x="500" y="388"/>
      <point x="485" y="413"/>
      <point x="374" y="413" type="curve" smooth="yes"/>
      <point x="192" y="413" type="line"/>
    </contour>
  </outline>
</glyph>
<glyph name="L" format="2">
  <advance width="514"/>
  <unicode hex="004C"/>
  <anchor x="142" y="774" name="top"/>
  <anchor x="276" y="0" name="bottom"/>
  <anchor x="485" y="774" name="topright"/>
  <outline>
    <contour>
      <point x="508" y="0" type="line"/>
      <point x="508" y="109" type="line"/>
      <point x="192" y="109" type="line"/>
      <point x="213" y="89" type="line"/>
      <point x="213" y="793" type="line"/>
      <point x="87" y="793" type="line"/>
      <point x="87" y="0" type="line"/>
    </contour>
  </outline>
</glyph>
<glyph name="N" format="2">
  <advance width="723"/>
  <unicode hex="004E"/>
  <anchor x="355" y="774" name="top"/>
  <anchor x="361" y="0" name="bottom"/>
  <outline>
    <contour>
      <point x="534" y="793" type="line"/>
      <point x="534" y="185" type="line"/>
      <point x="557" y="193" type="line"/>
      <point x="167" y="793" type="line"/>
      <point x="80" y="793" type="line"/>
      <point x="80" y="0" type="line"/>
      <point x="189" y="0" type="line"/>
      <point x="189" y="609" type="line"/>
      <point x="165" y="601" type="line"/>
      <point x="555" y="0" type="line"/>
      <point x="643" y="0" type="line"/>
      <point x="643" y="793" type="line"/>
    </contour>
  </outline>
</glyph>
<glyph name="P" format="2">
  <advance width="646"/>
  <unicode hex="0050"/>
  <outline>
    <contour>
      <point x="90" y="0" type="line"/>
      <point x="216" y="0" type="line"/>
      <point x="216" y="315" type="line"/>
      <point x="192" y="293" type="line"/>
      <point x="425" y="293" type="line" smooth="yes"/>
      <point x="549" y="293"/>
      <point x="612" y="359"/>
      <point x="612" y="466" type="curve" smooth="yes"/>
      <point x="612" y="628" type="line" smooth="yes"/>
      <point x="612" y="741"/>
      <point x="549" y="800"/>
      <point x="425" y="798" type="curve" smooth="yes"/>
      <point x="90" y="793" type="line"/>
    </contour>
    <contour>
      <point x="216" y="381" type="line"/>
      <point x="216" y="711" type="line"/>
      <point x="197" y="688" type="line"/>
      <point x="467" y="688" type="line" smooth="yes"/>
      <point x="478" y="688"/>
      <point x="483" y="683"/>
      <point x="483" y="672" type="curve" smooth="yes"/>
      <point x="483" y="418" type="line" smooth="yes"/>
      <point x="483" y="407"/>
      <point x="477" y="402"/>
      <point x="467" y="402" type="curve" smooth="yes"/>
      <point x="196" y="402" type="line"/>
    </contour>
  </outline>
</glyph>
<glyph name="Q" format="2">
	<advance width="715"/>
	<unicode hex="0051"/>
	<outline>
		<contour>
			<point x="216" y="689" type="curve" smooth="yes"/>
			<point x="495" y="689" type="line" smooth="yes"/>
			<point x="503" y="689"/>
			<point x="508" y="685"/>
			<point x="508" y="676" type="curve" smooth="yes"/>
			<point x="508" y="117" type="line" smooth="yes"/>
			<point x="508" y="108"/>
			<point x="503" y="104"/>
			<point x="495" y="104" type="curve" smooth="yes"/>
			<point x="216" y="104" type="line" smooth="yes"/>
			<point x="208" y="104"/>
			<point x="203" y="108"/>
			<point x="203" y="117" type="curve" smooth="yes"/>
			<point x="203" y="676" type="line" smooth="yes"/>
			<point x="203" y="685"/>
			<point x="208" y="689"/>
		</contour>
		<contour>
			<point x="75" y="643" type="curve" smooth="yes"/>
			<point x="75" y="149" type="line" smooth="yes"/>
			<point x="75" y="39"/>
			<point x="132" y="-9"/>
			<point x="253" y="-9" type="curve" smooth="yes"/>
			<point x="459" y="-9" type="line" smooth="yes"/>
			<point x="579" y="-9"/>
			<point x="637" y="39"/>
			<point x="637" y="149" type="curve" smooth="yes"/>
			<point x="637" y="643" type="line" smooth="yes"/>
			<point x="637" y="754"/>
			<point x="579" y="802"/>
			<point x="459" y="802" type="curve" smooth="yes"/>
			<point x="253" y="802" type="line" smooth="yes"/>
			<point x="132" y="802"/>
			<point x="75" y="754"/>
		</contour>
		<contour>
			<point x="339" y="41" type="line"/>
			<point x="383" y="-147" type="line"/>
			<point x="503" y="-147" type="line"/>
			<point x="449" y="41" type="line"/>
		</contour>
	</outline>
</glyph>
<glyph name="R" format="2">
  <advance width="679"/>
  <unicode hex="0052"/>
  <anchor x="340" y="0" name="bottom"/>
  <anchor x="325" y="774" name="top"/>
  <outline>
    <contour>
      <point x="90" y="0" type="line"/>
      <point x="216" y="0" type="line"/>
      <point x="216" y="334" type="line"/>
      <point x="192" y="311" type="line"/>
      <point x="392" y="311" type="line" smooth="yes"/>
      <point x="405" y="311"/>
      <point x="408" y="307"/>
      <point x="412" y="295" type="curve" smooth="yes"/>
      <point x="512" y="0" type="line"/>
      <point x="639" y="0" type="line"/>
      <point x="552" y="246" type="line" smooth="yes"/>
      <point x="532" y="305"/>
      <point x="508" y="331"/>
      <point x="462" y="341" type="curve"/>
      <point x="461" y="316" type="line"/>
      <point x="561" y="329"/>
      <point x="612" y="389"/>
      <point x="612" y="486" type="curve" smooth="yes"/>
      <point x="612" y="628" type="line" smooth="yes"/>
      <point x="612" y="741"/>
      <point x="548" y="800"/>
      <point x="424" y="798" type="curve" smooth="yes"/>
      <point x="90" y="793" type="line"/>
    </contour>
    <contour>
      <point x="216" y="398" type="line"/>
      <point x="216" y="711" type="line"/>
      <point x="197" y="688" type="line"/>
      <point x="467" y="688" type="line" smooth="yes"/>
      <point x="477" y="688"/>
      <point x="483" y="683"/>
      <point x="483" y="672" type="curve" smooth="yes"/>
      <point x="483" y="436" type="line" smooth="yes"/>
      <point x="483" y="424"/>
      <point x="477" y="419"/>
      <point x="467" y="419" type="curve" smooth="yes"/>
      <point x="196" y="419" type="line"/>
    </contour>
  </outline>
</glyph>
<glyph name="S" format="2">
  <advance width="603"/>
  <unicode hex="0053"/>
  <anchor x="302" y="774" name="top"/>
  <anchor x="305" y="-1" name="bottom"/>
  <outline>
    <contour>
      <point x="367" y="455" type="curve" smooth="yes"/>
      <point x="192" y="455" type="line" smooth="yes"/>
      <point x="181" y="455"/>
      <point x="176" y="460"/>
      <point x="176" y="471" type="curve" smooth="yes"/>
      <point x="176" y="667" type="line" smooth="yes"/>
      <point x="176" y="679"/>
      <point x="182" y="684"/>
      <point x="192" y="684" type="curve" smooth="yes"/>
      <point x="529" y="684" type="line"/>
      <point x="529" y="793" type="line"/>
      <point x="238" y="798" type="line" smooth="yes"/>
      <point x="114" y="800"/>
      <point x="47" y="737"/>
      <point x="47" y="626" type="curve" smooth="yes"/>
      <point x="47" y="508" type="line" smooth="yes"/>
      <point x="47" y="394"/>
      <point x="111" y="341"/>
      <point x="235" y="341" type="curve" smooth="yes"/>
      <point x="413" y="341" type="line" smooth="yes"/>
      <point x="423" y="341"/>
      <point x="429" y="336"/>
      <point x="429" y="325" type="curve" smooth="yes"/>
      <point x="429" y="125" type="line" smooth="yes"/>
      <point x="429" y="114"/>
      <point x="424" y="109"/>
      <point x="413" y="109" type="curve" smooth="yes"/>
      <point x="64" y="109" type="line"/>
      <point x="64" y="0" type="line"/>
      <point x="370" y="-5" type="line" smooth="yes"/>
      <point x="494" y="-8"/>
      <point x="558" y="51"/>
      <point x="558" y="165" type="curve" smooth="yes"/>
      <point x="558" y="287" type="line" smooth="yes"/>
      <point x="558" y="398"/>
      <point x="491" y="455"/>
    </contour>
  </outline>
</glyph>
<glyph name="T" format="2">
  <advance width="525"/>
  <unicode hex="0054"/>
  <anchor x="275" y="0" name="bottom"/>
  <anchor x="262" y="397" name="center"/>
  <anchor x="262" y="768" name="top"/>
  <outline>
    <contour>
      <point x="199" y="0" type="line"/>
      <point x="325" y="0" type="line"/>
      <point x="325" y="702" type="line"/>
      <point x="306" y="684" type="line"/>
      <point x="517" y="684" type="line"/>
      <point x="517" y="793" type="line"/>
      <point x="6" y="793" type="line"/>
      <point x="6" y="684" type="line"/>
      <point x="218" y="684" type="line"/>
      <point x="199" y="702" type="line"/>
    </contour>
  </outline>
</glyph>
<glyph name="U" format="2">
  <advance width="708"/>
  <unicode hex="0055"/>
  <anchor x="433" y="-2" name="ogonek"/>
  <anchor x="355" y="774" name="top"/>
  <outline>
    <contour>
      <point x="253" y="-9" type="curve" smooth="yes"/>
      <point x="456" y="-9" type="line" smooth="yes"/>
      <point x="576" y="-9"/>
      <point x="634" y="39"/>
      <point x="634" y="149" type="curve" smooth="yes"/>
      <point x="634" y="793" type="line"/>
      <point x="505" y="793" type="line"/>
      <point x="505" y="117" type="line" smooth="yes"/>
      <point x="505" y="108"/>
      <point x="501" y="104"/>
      <point x="492" y="104" type="curve" smooth="yes"/>
      <point x="216" y="104" type="line" smooth="yes"/>
      <point x="208" y="104"/>
      <point x="203" y="108"/>
      <point x="203" y="117" type="curve" smooth="yes"/>
      <point x="203" y="793" type="line"/>
      <point x="75" y="793" type="line"/>
      <point x="75" y="149" type="line" smooth="yes"/>
      <point x="75" y="39"/>
      <point x="132" y="-9"/>
    </contour>
  </outline>
</glyph>
<glyph name="V" format="2">
	<advance width="648"/>
	<unicode hex="0056"/>
	<outline>
		<contour>
			<point x="325" y="-3" type="line" smooth="yes"/>
			<point x="422" y="-4"/>
			<point x="441" y="20"/>
			<point x="467" y="127" type="curve" smooth="yes"/>
			<point x="638" y="793" type="line"/>
			<point x="520" y="793" type="line"/>
			<point x="354" y="123" type="line" smooth="yes"/>
			<point x="353" y="113"/>
			<point x="350" y="109"/>
			<point x="341" y="109" type="curve" smooth="yes"/>
			<point x="291" y="109" type="line"/>
			<point x="136" y="793" type="line"/>
			<point x="12" y="793" type="line"/>
			<point x="195" y="0" type="line"/>
		</contour>
	</outline>
</glyph>
<glyph name="W" format="2">
  <advance width="982"/>
  <unicode hex="0057"/>
  <outline>
    <contour>
      <point x="231" y="-9" type="curve" smooth="yes"/>
      <point x="360" y="-9" type="line" smooth="yes"/>
      <point x="456" y="-9"/>
      <point x="497" y="31"/>
      <point x="498" y="126" type="curve"/>
      <point x="481" y="126" type="line"/>
      <point x="481" y="31"/>
      <point x="524" y="-9"/>
      <point x="619" y="-9" type="curve" smooth="yes"/>
      <point x="752" y="-9" type="line" smooth="yes"/>
      <point x="852" y="-9"/>
      <point x="896" y="26"/>
      <point x="896" y="127" type="curve" smooth="yes"/>
      <point x="895" y="793" type="line"/>
      <point x="768" y="793" type="line"/>
      <point x="769" y="117" type="line" smooth="yes"/>
      <point x="769" y="108"/>
      <point x="765" y="104"/>
      <point x="756" y="104" type="curve" smooth="yes"/>
      <point x="564" y="104" type="line" smooth="yes"/>
      <point x="555" y="104"/>
      <point x="550" y="107"/>
      <point x="550" y="117" type="curve" smooth="yes"/>
      <point x="550" y="793" type="line"/>
      <point x="428" y="793" type="line"/>
      <point x="428" y="117" type="line" smooth="yes"/>
      <point x="428" y="108"/>
      <point x="424" y="104"/>
      <point x="416" y="104" type="curve" smooth="yes"/>
      <point x="224" y="104" type="line" smooth="yes"/>
      <point x="216" y="104"/>
      <point x="212" y="107"/>
      <point x="212" y="117" type="curve" smooth="yes"/>
      <point x="212" y="793" type="line"/>
      <point x="84" y="793" type="line"/>
      <point x="84" y="126" type="line" smooth="yes"/>
      <point x="84" y="24"/>
      <point x="129" y="-9"/>
    </contour>
  </outline>
</glyph>
<glyph name="X" format="2">
  <advance width="700"/>
  <unicode hex="0058"/>
  <outline>
    <contour>
      <point x="552" y="793" type="line"/>
      <point x="403" y="468" type="line" smooth="yes"/>
      <point x="399" y="458"/>
      <point x="396" y="455"/>
      <point x="387" y="455" type="curve" smooth="yes"/>
      <point x="318" y="455" type="line" smooth="yes"/>
      <point x="308" y="455"/>
      <point x="306" y="458"/>
      <point x="302" y="468" type="curve" smooth="yes"/>
      <point x="156" y="793" type="line"/>
      <point x="22" y="793" type="line"/>
      <point x="153" y="506" type="line" smooth="yes"/>
      <point x="193" y="413"/>
      <point x="213" y="386"/>
      <point x="324" y="386" type="curve" smooth="yes"/>
      <point x="376" y="386" type="line" smooth="yes"/>
      <point x="487" y="386"/>
      <point x="497" y="410"/>
      <point x="543" y="505" type="curve" smooth="yes"/>
      <point x="679" y="793" type="line"/>
    </contour>
    <contour>
      <point x="544" y="294" type="line" smooth="yes"/>
      <point x="497" y="387"/>
      <point x="484" y="415"/>
      <point x="373" y="415" type="curve" smooth="yes"/>
      <point x="321" y="415" type="line" smooth="yes"/>
      <point x="210" y="415"/>
      <point x="199" y="389"/>
      <point x="154" y="295" type="curve" smooth="yes"/>
      <point x="8" y="0" type="line"/>
      <point x="135" y="0" type="line"/>
      <point x="296" y="333" type="line" smooth="yes"/>
      <point x="300" y="342"/>
      <point x="303" y="345"/>
      <point x="312" y="345" type="curve" smooth="yes"/>
      <point x="381" y="345" type="line" smooth="yes"/>
      <point x="390" y="345"/>
      <point x="392" y="343"/>
      <point x="397" y="333" type="curve" smooth="yes"/>
      <point x="558" y="0" type="line"/>
      <point x="693" y="0" type="line"/>
    </contour>
  </outline>
</glyph>
<glyph name="backslash" format="2">
  <advance width="520"/>
  <unicode hex="005C"/>
  <outline>
    <contour>
      <point x="6" y="842" type="line"/>
      <point x="391" y="-120" type="line"/>
      <point x="514" y="-120" type="line"/>
      <point x="127" y="842" type="line"/>
    </contour>
  </outline>
</glyph>
<glyph name="asciicircum" format="2">
  <advance width="578"/>
  <unicode hex="005E"/>
  <outline>
    <contour>
      <point x="327" y="842" type="line"/>
      <point x="250" y="842" type="line"/>
      <point x="56" y="443" type="line"/>
      <point x="151" y="443" type="line"/>
      <point x="300" y="770" type="line"/>
      <point x="275" y="770" type="line"/>
      <point x="426" y="443" type="line"/>
      <point x="522" y="443" type="line"/>
    </contour>
  </outline>
</glyph>
<glyph name="c" format="2">
  <advance width="436"/>
  <unicode hex="0063"/>
  <anchor x="265" y="0" name="bottom"/>
  <anchor x="229" y="612" name="top"/>
  <outline>
    <contour>
      <point x="227" y="-9" type="curve" smooth="yes"/>
      <point x="415" y="-9" type="line"/>
      <point x="415" y="92" type="line"/>
      <point x="192" y="92" type="line" smooth="yes"/>
      <point x="183" y="92"/>
      <point x="178" y="96"/>
      <point x="178" y="106" type="curve" smooth="yes"/>
      <point x="178" y="506" type="line" smooth="yes"/>
      <point x="178" y="515"/>
      <point x="183" y="520"/>
      <point x="192" y="520" type="curve" smooth="yes"/>
      <point x="415" y="520" type="line"/>
      <point x="415" y="621" type="line"/>
      <point x="227" y="621" type="line" smooth="yes"/>
      <point x="106" y="621"/>
      <point x="56" y="580"/>
      <point x="56" y="469" type="curve" smooth="yes"/>
      <point x="56" y="143" type="line" smooth="yes"/>
      <point x="56" y="32"/>
      <point x="106" y="-9"/>
    </contour>
  </outline>
</glyph>
<glyph name="d" format="2">
  <advance width="571"/>
  <unicode hex="0064"/>
  <anchor x="286" y="306" name="center"/>
  <anchor x="546" y="612" name="topright"/>
  <outline>
    <contour>
      <point x="499" y="842" type="line"/>
      <point x="377" y="842" type="line"/>
      <point x="377" y="614" type="line"/>
      <point x="214" y="615" type="line" smooth="yes"/>
      <point x="100" y="616"/>
      <point x="56" y="580"/>
      <point x="56" y="473" type="curve" smooth="yes"/>
      <point x="56" y="126" type="line" smooth="yes"/>
      <point x="56" y="25"/>
      <point x="100" y="-9"/>
      <point x="200" y="-9" type="curve" smooth="yes"/>
      <point x="270" y="-9" type="line" smooth="yes"/>
      <point x="352" y="-9"/>
      <point x="384" y="32"/>
      <point x="384" y="114" type="curve"/>
      <point x="377" y="89" type="line"/>
      <point x="392" y="0" type="line"/>
      <point x="499" y="0" type="line"/>
    </contour>
    <contour>
      <point x="377" y="531" type="line"/>
      <point x="377" y="103" type="line" smooth="yes"/>
      <point x="377" y="93"/>
      <point x="373" y="89"/>
      <point x="364" y="89" type="curve" smooth="yes"/>
      <point x="189" y="89" type="line" smooth="yes"/>
      <point x="181" y="89"/>
      <point x="176" y="92"/>
      <point x="176" y="103" type="curve" smooth="yes"/>
      <point x="176" y="504" type="line" smooth="yes"/>
      <point x="176" y="514"/>
      <point x="181" y="518"/>
      <point x="189" y="518" type="curve" smooth="yes"/>
      <point x="392" y="516" type="line"/>
    </contour>
  </outline>
</glyph>
<glyph name="e" format="2">
  <advance width="543"/>
  <unicode hex="0065"/>
  <anchor x="272" y="0" name="bottom"/>
  <anchor x="478" y="-7" name="ogonek"/>
  <anchor x="275" y="612" name="top"/>
  <outline>
    <contour>
      <point x="229" y="-7" type="curve" smooth="yes"/>
      <point x="478" y="-7" type="line"/>
      <point x="478" y="95" type="line"/>
      <point x="192" y="95" type="line" smooth="yes"/>
      <point x="183" y="95"/>
      <point x="179" y="98"/>
      <point x="179" y="108" type="curve" smooth="yes"/>
      <point x="179" y="509" type="line" smooth="yes"/>
      <point x="179" y="518"/>
      <point x="183" y="523"/>
      <point x="192" y="523" type="curve" smooth="yes"/>
      <point x="360" y="523" type="line" smooth="yes"/>
      <point x="369" y="523"/>
      <point x="373" y="518"/>
      <point x="373" y="509" type="curve" smooth="yes"/>
      <point x="373" y="324" type="line"/>
      <point x="164" y="324" type="line"/>
      <point x="164" y="236" type="line"/>
      <point x="494" y="236" type="line"/>
      <point x="494" y="475" type="line" smooth="yes"/>
      <point x="494" y="586"/>
      <point x="450" y="621"/>
      <point x="335" y="621" type="curve" smooth="yes"/>
      <point x="212" y="621" type="line" smooth="yes"/>
      <point x="98" y="621"/>
      <point x="57" y="586"/>
      <point x="57" y="475" type="curve" smooth="yes"/>
      <point x="57" y="146" type="line" smooth="yes"/>
      <point x="57" y="35"/>
      <point x="108" y="-7"/>
    </contour>
  </outline>
</glyph>
<glyph name="g" format="2">
  <advance width="555"/>
  <unicode hex="0067"/>
  <anchor x="278" y="612" name="top"/>
  <outline>
    <contour>
      <point x="377" y="527" type="line"/>
      <point x="377" y="103" type="line" smooth="yes"/>
      <point x="377" y="93"/>
      <point x="373" y="89"/>
      <point x="364" y="89" type="curve" smooth="yes"/>
      <point x="189" y="89" type="line" smooth="yes"/>
      <point x="181" y="89"/>
      <point x="176" y="92"/>
      <point x="176" y="103" type="curve" smooth="yes"/>
      <point x="176" y="501" type="line" smooth="yes"/>
      <point x="176" y="511"/>
      <point x="181" y="514"/>
      <point x="189" y="514" type="curve" smooth="yes"/>
      <point x="392" y="513" type="line"/>
    </contour>
    <contour>
      <point x="377" y="-131" type="line" smooth="yes"/>
      <point x="377" y="-141"/>
      <point x="373" y="-145"/>
      <point x="364" y="-145" type="curve" smooth="yes"/>
      <point x="75" y="-145" type="line"/>
      <point x="75" y="-247" type="line"/>
      <point x="328" y="-247" type="line" smooth="yes"/>
      <point x="448" y="-247"/>
      <point x="499" y="-205"/>
      <point x="499" y="-94" type="curve" smooth="yes"/>
      <point x="499" y="612" type="line"/>
      <point x="214" y="615" type="line" smooth="yes"/>
      <point x="100" y="617"/>
      <point x="56" y="580"/>
      <point x="56" y="473" type="curve" smooth="yes"/>
      <point x="56" y="126" type="line" smooth="yes"/>
      <point x="56" y="25"/>
      <point x="100" y="-9"/>
      <point x="200" y="-9" type="curve" smooth="yes"/>
      <point x="270" y="-9" type="line" smooth="yes"/>
      <point x="352" y="-9"/>
      <point x="384" y="32"/>
      <point x="384" y="114" type="curve"/>
      <point x="377" y="89" type="line"/>
    </contour>
  </outline>
</glyph>
<glyph name="i" format="2">
  <advance width="280"/>
  <unicode hex="0069"/>
  <outline>
    <contour>
      <point x="79" y="0" type="line"/>
      <point x="201" y="0" type="line"/>
      <point x="201" y="612" type="line"/>
      <point x="79" y="612" type="line"/>
    </contour>
    <contour>
      <point x="79" y="721" type="line"/>
      <point x="201" y="721" type="line"/>
      <point x="201" y="833" type="line"/>
      <point x="79" y="833" type="line"/>
    </contour>
  </outline>
</glyph>
<glyph name="k" format="2">
  <advance width="572"/>
  <unicode hex="006B"/>
  <outline>
    <contour>
      <point x="75" y="0" type="line"/>
      <point x="195" y="0" type="line"/>
      <point x="195" y="842" type="line"/>
      <point x="75" y="842" type="line"/>
    </contour>
    <contour>
      <point x="156" y="304" type="line"/>
      <point x="302" y="304" type="line" smooth="yes"/>
      <point x="413" y="304"/>
      <point x="432" y="320"/>
      <point x="463" y="424" type="curve" smooth="yes"/>
      <point x="520" y="612" type="line"/>
      <point x="402" y="612" type="line"/>
      <point x="331" y="383" type="line" smooth="yes"/>
      <point x="328" y="374"/>
      <point x="326" y="370"/>
      <point x="317" y="370" type="curve" smooth="yes"/>
      <point x="156" y="370" type="line"/>
    </contour>
    <contour>
      <point x="156" y="269" type="line"/>
      <point x="340" y="269" type="line" smooth="yes"/>
      <point x="349" y="269"/>
      <point x="351" y="265"/>
      <point x="354" y="255" type="curve" smooth="yes"/>
      <point x="444" y="0" type="line"/>
      <point x="567" y="0" type="line"/>
      <point x="491" y="214" type="line" smooth="yes"/>
      <point x="456" y="314"/>
      <point x="438" y="333"/>
      <point x="328" y="333" type="curve" smooth="yes"/>
      <point x="156" y="333" type="line"/>
    </contour>
  </outline>
</glyph>
<glyph name="l" format="2">
  <advance width="276"/>
  <unicode hex="006C"/>
  <anchor x="138" y="0" name="bottom"/>
  <anchor x="132" y="809" name="top"/>
  <anchor x="251" y="809" name="topright"/>
  <outline>
    <contour>
      <point x="77" y="0" type="line"/>
      <point x="199" y="0" type="line"/>
      <point x="199" y="842" type="line"/>
      <point x="77" y="842" type="line"/>
    </contour>
  </outline>
</glyph>
<glyph name="m" format="2">
  <advance width="851"/>
  <unicode hex="006D"/>
  <outline>
    <contour>
      <point x="345" y="621" type="curve" smooth="yes"/>
      <point x="287" y="621" type="line" smooth="yes"/>
      <point x="205" y="621"/>
      <point x="170" y="580"/>
      <point x="170" y="498" type="curve"/>
      <point x="180" y="523" type="line"/>
      <point x="167" y="612" type="line"/>
      <point x="59" y="612" type="line"/>
      <point x="60" y="0" type="line"/>
      <point x="182" y="0" type="line"/>
      <point x="180" y="509" type="line" smooth="yes"/>
      <point x="180" y="519"/>
      <point x="184" y="523"/>
      <point x="193" y="523" type="curve" smooth="yes"/>
      <point x="356" y="523" type="line" smooth="yes"/>
      <point x="365" y="523"/>
      <point x="369" y="519"/>
      <point x="369" y="509" type="curve" smooth="yes"/>
      <point x="369" y="0" type="line"/>
      <point x="491" y="0" type="line"/>
      <point x="491" y="485" type="line" smooth="yes"/>
      <point x="491" y="586"/>
      <point x="446" y="621"/>
    </contour>
    <contour>
      <point x="654" y="621" type="curve" smooth="yes"/>
      <point x="598" y="621" type="line" smooth="yes"/>
      <point x="515" y="621"/>
      <point x="480" y="580"/>
      <point x="480" y="498" type="curve"/>
      <point x="487" y="483" type="line"/>
      <point x="491" y="509" type="line"/>
      <point x="491" y="519"/>
      <point x="495" y="523"/>
      <point x="504" y="523" type="curve" smooth="yes"/>
      <point x="665" y="523" type="line" smooth="yes"/>
      <point x="674" y="523"/>
      <point x="678" y="519"/>
      <point x="678" y="509" type="curve" smooth="yes"/>
      <point x="678" y="0" type="line"/>
      <point x="799" y="0" type="line"/>
      <point x="799" y="485" type="line" smooth="yes"/>
      <point x="799" y="586"/>
      <point x="755" y="621"/>
    </contour>
  </outline>
</glyph>
<glyph name="n" format="2">
  <advance width="569"/>
  <unicode hex="006E"/>
  <anchor x="286" y="0" name="bottom"/>
  <anchor x="298" y="611" name="top"/>
  <outline>
    <contour>
      <point x="367" y="621" type="curve" smooth="yes"/>
      <point x="296" y="621" type="line" smooth="yes"/>
      <point x="214" y="621"/>
      <point x="179" y="580"/>
      <point x="179" y="498" type="curve"/>
      <point x="189" y="523" type="line"/>
      <point x="176" y="612" type="line"/>
      <point x="68" y="612" type="line"/>
      <point x="70" y="0" type="line"/>
      <point x="190" y="0" type="line"/>
      <point x="189" y="509" type="line" smooth="yes"/>
      <point x="189" y="519"/>
      <point x="194" y="523"/>
      <point x="203" y="523" type="curve" smooth="yes"/>
      <point x="378" y="523" type="line" smooth="yes"/>
      <point x="386" y="523"/>
      <point x="391" y="519"/>
      <point x="391" y="509" type="curve" smooth="yes"/>
      <point x="391" y="0" type="line"/>
      <point x="512" y="0" type="line"/>
      <point x="512" y="485" type="line" smooth="yes"/>
      <point x="512" y="586"/>
      <point x="467" y="621"/>
    </contour>
  </outline>
</glyph>
<glyph name="p" format="2">
  <advance width="571"/>
  <unicode hex="0070"/>
  <outline>
    <contour>
      <point x="72" y="-237" type="line"/>
      <point x="193" y="-237" type="line"/>
      <point x="193" y="-1" type="line"/>
      <point x="357" y="-3" type="line" smooth="yes"/>
      <point x="471" y="-3"/>
      <point x="516" y="32"/>
      <point x="516" y="140" type="curve" smooth="yes"/>
      <point x="516" y="485" type="line" smooth="yes"/>
      <point x="516" y="586"/>
      <point x="471" y="621"/>
      <point x="370" y="621" type="curve" smooth="yes"/>
      <point x="300" y="621" type="line" smooth="yes"/>
      <point x="219" y="621"/>
      <point x="186" y="580"/>
      <point x="186" y="498" type="curve"/>
      <point x="193" y="523" type="line"/>
      <point x="179" y="612" type="line"/>
      <point x="72" y="612" type="line"/>
    </contour>
    <contour>
      <point x="193" y="83" type="line"/>
      <point x="193" y="509" type="line" smooth="yes"/>
      <point x="193" y="518"/>
      <point x="198" y="523"/>
      <point x="207" y="523" type="curve" smooth="yes"/>
      <point x="382" y="523" type="line" smooth="yes"/>
      <point x="391" y="523"/>
      <point x="395" y="519"/>
      <point x="395" y="509" type="curve" smooth="yes"/>
      <point x="395" y="109" type="line" smooth="yes"/>
      <point x="395" y="100"/>
      <point x="391" y="96"/>
      <point x="382" y="96" type="curve" smooth="yes"/>
      <point x="179" y="98" type="line"/>
    </contour>
  </outline>
</glyph>
<glyph name="r" format="2">
  <advance width="353"/>
  <unicode hex="0072"/>
  <anchor x="176" y="0" name="bottom"/>
  <anchor x="154" y="612" name="top"/>
  <outline>
    <contour>
      <point x="354" y="621" type="line"/>
      <point x="296" y="621" type="line" smooth="yes"/>
      <point x="214" y="621"/>
      <point x="179" y="580"/>
      <point x="179" y="498" type="curve"/>
      <point x="189" y="523" type="line"/>
      <point x="176" y="612" type="line"/>
      <point x="68" y="612" type="line"/>
      <point x="70" y="0" type="line"/>
      <point x="190" y="0" type="line"/>
      <point x="189" y="509" type="line" smooth="yes"/>
      <point x="189" y="519"/>
      <point x="194" y="523"/>
      <point x="203" y="523" type="curve" smooth="yes"/>
      <point x="354" y="523" type="line"/>
    </contour>
  </outline>
</glyph>
<glyph name="s" format="2">
  <advance width="482"/>
  <unicode hex="0073"/>
  <anchor x="254" y="0" name="bottom"/>
  <anchor x="242" y="612" name="top"/>
  <outline>
    <contour>
      <point x="51" y="-3" type="line"/>
      <point x="309" y="-3" type="line" smooth="yes"/>
      <point x="410" y="-3"/>
      <point x="454" y="31"/>
      <point x="454" y="132" type="curve" smooth="yes"/>
      <point x="454" y="216" type="line" smooth="yes"/>
      <point x="454" y="324"/>
      <point x="410" y="358"/>
      <point x="296" y="358" type="curve" smooth="yes"/>
      <point x="176" y="358" type="line" smooth="yes"/>
      <point x="167" y="358"/>
      <point x="163" y="362"/>
      <point x="163" y="372" type="curve" smooth="yes"/>
      <point x="163" y="506" type="line" smooth="yes"/>
      <point x="163" y="515"/>
      <point x="167" y="520"/>
      <point x="176" y="520" type="curve" smooth="yes"/>
      <point x="422" y="519" type="line"/>
      <point x="422" y="621" type="line"/>
      <point x="202" y="621" type="line" smooth="yes"/>
      <point x="88" y="622"/>
      <point x="40" y="583"/>
      <point x="40" y="472" type="curve" smooth="yes"/>
      <point x="40" y="406" type="line" smooth="yes"/>
      <point x="40" y="299"/>
      <point x="84" y="263"/>
      <point x="199" y="263" type="curve" smooth="yes"/>
      <point x="320" y="263" type="line" smooth="yes"/>
      <point x="330" y="263"/>
      <point x="334" y="259"/>
      <point x="334" y="249" type="curve" smooth="yes"/>
      <point x="334" y="108" type="line" smooth="yes"/>
      <point x="334" y="98"/>
      <point x="330" y="95"/>
      <point x="320" y="95" type="curve" smooth="yes"/>
      <point x="50" y="95" type="line"/>
    </contour>
  </outline>
</glyph>
<glyph name="t" format="2">
  <advance width="370"/>
  <unicode hex="0074"/>
  <anchor x="185" y="306" name="center"/>
  <anchor x="235" y="0" name="bottom"/>
  <anchor x="345" y="612" name="topright"/>
  <outline>
    <contour>
      <point x="364" y="517" type="line"/>
      <point x="364" y="612" type="line"/>
      <point x="209" y="612" type="line"/>
      <point x="221" y="599" type="line"/>
      <point x="221" y="768" type="line"/>
      <point x="100" y="768" type="line"/>
      <point x="100" y="599" type="line"/>
      <point x="112" y="612" type="line"/>
      <point x="28" y="612" type="line"/>
      <point x="28" y="517" type="line"/>
      <point x="112" y="517" type="line"/>
      <point x="100" y="530" type="line"/>
      <point x="100" y="152" type="line" smooth="yes"/>
      <point x="100" y="42"/>
      <point x="151" y="0"/>
      <point x="271" y="0" type="curve" smooth="yes"/>
      <point x="364" y="0" type="line"/>
      <point x="364" y="102" type="line"/>
      <point x="234" y="102" type="line" smooth="yes"/>
      <point x="225" y="102"/>
      <point x="221" y="106"/>
      <point x="221" y="115" type="curve" smooth="yes"/>
      <point x="221" y="530" type="line"/>
      <point x="209" y="517" type="line"/>
    </contour>
  </outline>
</glyph>
<glyph name="u" format="2">
  <advance width="570"/>
  <unicode hex="0075"/>
  <anchor x="503" y="0" name="ogonek"/>
  <anchor x="275" y="612" name="top"/>
  <outline>
    <contour>
      <point x="203" y="-9" type="curve" smooth="yes"/>
      <point x="274" y="-9" type="line" smooth="yes"/>
      <point x="356" y="-9"/>
      <point x="389" y="32"/>
      <point x="389" y="114" type="curve"/>
      <point x="381" y="89" type="line"/>
      <point x="395" y="0" type="line"/>
      <point x="503" y="0" type="line"/>
      <point x="501" y="612" type="line"/>
      <point x="380" y="612" type="line"/>
      <point x="381" y="89" type="line"/>
      <point x="192" y="89" type="line" smooth="yes"/>
      <point x="183" y="89"/>
      <point x="179" y="92"/>
      <point x="179" y="103" type="curve" smooth="yes"/>
      <point x="179" y="612" type="line"/>
      <point x="58" y="612" type="line"/>
      <point x="58" y="126" type="line" smooth="yes"/>
      <point x="58" y="25"/>
      <point x="102" y="-9"/>
    </contour>
  </outline>
</glyph>
<glyph name="v" format="2">
  <advance width="526"/>
  <unicode hex="0076"/>
  <outline>
    <contour>
      <point x="270" y="-6" type="line" smooth="yes"/>
      <point x="371" y="-12"/>
      <point x="393" y="25"/>
      <point x="414" y="124" type="curve" smooth="yes"/>
      <point x="522" y="612" type="line"/>
      <point x="405" y="612" type="line"/>
      <point x="301" y="103" type="line" smooth="yes"/>
      <point x="298" y="92"/>
      <point x="296" y="89"/>
      <point x="287" y="89" type="curve" smooth="yes"/>
      <point x="234" y="89" type="line"/>
      <point x="126" y="612" type="line"/>
      <point x="6" y="612" type="line"/>
      <point x="136" y="0" type="line"/>
    </contour>
  </outline>
</glyph>
<glyph name="w" format="2">
  <advance width="864"/>
  <unicode hex="0077"/>
  <outline>
    <contour>
      <point x="210" y="-9" type="curve" smooth="yes"/>
      <point x="301" y="-9" type="line" smooth="yes"/>
      <point x="396" y="-9"/>
      <point x="439" y="31"/>
      <point x="440" y="126" type="curve"/>
      <point x="423" y="126" type="line"/>
      <point x="423" y="31"/>
      <point x="467" y="-9"/>
      <point x="562" y="-9" type="curve" smooth="yes"/>
      <point x="654" y="-9" type="line" smooth="yes"/>
      <point x="755" y="-9"/>
      <point x="799" y="25"/>
      <point x="799" y="126" type="curve" smooth="yes"/>
      <point x="798" y="612" type="line"/>
      <point x="677" y="612" type="line"/>
      <point x="678" y="103" type="line" smooth="yes"/>
      <point x="678" y="93"/>
      <point x="674" y="89"/>
      <point x="665" y="89" type="curve" smooth="yes"/>
      <point x="504" y="89" type="line" smooth="yes"/>
      <point x="495" y="89"/>
      <point x="491" y="92"/>
      <point x="491" y="103" type="curve" smooth="yes"/>
      <point x="491" y="612" type="line"/>
      <point x="372" y="612" type="line"/>
      <point x="372" y="103" type="line" smooth="yes"/>
      <point x="372" y="93"/>
      <point x="367" y="89"/>
      <point x="359" y="89" type="curve" smooth="yes"/>
      <point x="199" y="89" type="line" smooth="yes"/>
      <point x="190" y="89"/>
      <point x="186" y="92"/>
      <point x="186" y="103" type="curve" smooth="yes"/>
      <point x="186" y="612" type="line"/>
      <point x="65" y="612" type="line"/>
      <point x="65" y="121" type="line" smooth="yes"/>
      <point x="65" y="19"/>
      <point x="109" y="-9"/>
    </contour>
  </outline>
</glyph>
<glyph name="z" format="2">
  <advance width="458"/>
  <unicode hex="007A"/>
  <anchor x="229" y="612" name="top"/>
  <outline>
    <contour>
      <point x="428" y="0" type="line"/>
      <point x="429" y="94" type="line"/>
      <point x="172" y="94" type="line" smooth="yes"/>
      <point x="161" y="94"/>
      <point x="158" y="105"/>
      <point x="165" y="115" type="curve" smooth="yes"/>
      <point x="435" y="505" type="line"/>
      <point x="435" y="575"/>
      <point x="400" y="612"/>
      <point x="325" y="612" type="curve" smooth="yes"/>
      <point x="43" y="612" type="line"/>
      <point x="43" y="517" type="line"/>
      <point x="284" y="517" type="line" smooth="yes"/>
      <point x="294" y="517"/>
      <point x="299" y="508"/>
      <point x="293" y="499" type="curve" smooth="yes"/>
      <point x="17" y="96" type="line"/>
      <point x="17" y="29"/>
      <point x="53" y="0"/>
      <point x="120" y="0" type="curve" smooth="yes"/>
    </contour>
  </outline>
</glyph>
<glyph name="braceleft" format="2">
  <advance width="396"/>
  <unicode hex="007B"/>
  <outline>
    <contour>
      <point x="241" y="439" type="curve" smooth="yes"/>
      <point x="241" y="744" type="line" smooth="yes"/>
      <point x="241" y="754"/>
      <point x="246" y="758"/>
      <point x="255" y="758" type="curve" smooth="yes"/>
      <point x="371" y="758" type="line"/>
      <point x="371" y="849" type="line"/>
      <point x="304" y="849" type="line" smooth="yes"/>
      <point x="180" y="849"/>
      <point x="116" y="794"/>
      <point x="116" y="680" type="curve" smooth="yes"/>
      <point x="116" y="384" type="line" smooth="yes"/>
      <point x="116" y="374"/>
      <point x="111" y="369"/>
      <point x="102" y="369" type="curve" smooth="yes"/>
      <point x="62" y="369" type="line"/>
      <point x="62" y="266" type="line"/>
      <point x="102" y="266" type="line" smooth="yes"/>
      <point x="111" y="266"/>
      <point x="116" y="262"/>
      <point x="116" y="252" type="curve" smooth="yes"/>
      <point x="116" y="-44" type="line" smooth="yes"/>
      <point x="116" y="-157"/>
      <point x="180" y="-212"/>
      <point x="304" y="-212" type="curve" smooth="yes"/>
      <point x="371" y="-212" type="line"/>
      <point x="371" y="-121" type="line"/>
      <point x="255" y="-121" type="line" smooth="yes"/>
      <point x="246" y="-121"/>
      <point x="241" y="-118"/>
      <point x="241" y="-108" type="curve" smooth="yes"/>
      <point x="241" y="197" type="line" smooth="yes"/>
      <point x="241" y="283"/>
      <point x="194" y="320"/>
      <point x="114" y="320" type="curve"/>
      <point x="114" y="316" type="line"/>
      <point x="194" y="316"/>
      <point x="241" y="352"/>
    </contour>
  </outline>
</glyph>
<glyph name="bar" format="2">
	<advance width="334"/>
	<unicode hex="007C"/>
	<outline>
		<contour>
			<point x="117" y="-72" type="line"/>
			<point x="217" y="-72" type="line"/>
			<point x="217" y="842" type="line"/>
			<point x="117" y="842" type="line"/>
		</contour>
	</outline>
</glyph>
<glyph name="asciitilde" format="2">
  <advance width="537"/>
  <unicode hex="007E"/>
  <outline>
    <contour>
      <point x="48" y="270" type="curve"/>
      <point x="133" y="269" type="line"/>
      <point x="133" y="310"/>
      <point x="145" y="334"/>
      <point x="175" y="334" type="curve" smooth="yes"/>
      <point x="222" y="334"/>
      <point x="313" y="271"/>
      <point x="382" y="271" type="curve" smooth="yes"/>
      <point x="459" y="271"/>
      <point x="488" y="323"/>
      <point x="488" y="433" type="curve"/>
      <point x="404" y="433" type="line"/>
      <point x="404" y="392"/>
      <point x="392" y="368"/>
      <point x="360" y="368" type="curve" smooth="yes"/>
      <point x="312" y="368"/>
      <point x="218" y="432"/>
      <point x="149" y="432" type="curve" smooth="yes"/>
      <point x="77" y="432"/>
      <point x="48" y="383"/>
    </contour>
  </outline>
</glyph>
<glyph name="cent" format="2">
  <advance width="442"/>
  <unicode hex="00A2"/>
  <outline>
    <contour>
      <point x="221" y="81" type="curve" smooth="yes"/>
      <point x="415" y="81" type="line"/>
      <point x="415" y="183" type="line"/>
      <point x="185" y="183" type="line" smooth="yes"/>
      <point x="176" y="183"/>
      <point x="171" y="187"/>
      <point x="171" y="197" type="curve" smooth="yes"/>
      <point x="171" y="585" type="line" smooth="yes"/>
      <point x="171" y="595"/>
      <point x="176" y="598"/>
      <point x="185" y="598" type="curve" smooth="yes"/>
      <point x="415" y="598" type="line"/>
      <point x="415" y="699" type="line"/>
      <point x="221" y="699" type="line" smooth="yes"/>
      <point x="100" y="699"/>
      <point x="49" y="658"/>
      <point x="49" y="547" type="curve" smooth="yes"/>
      <point x="49" y="234" type="line" smooth="yes"/>
      <point x="49" y="124"/>
      <point x="100" y="81"/>
    </contour>
    <contour>
      <point x="201" y="809" type="line"/>
      <point x="201" y="680" type="line"/>
      <point x="299" y="680" type="line"/>
      <point x="299" y="809" type="line"/>
    </contour>
    <contour>
      <point x="201" y="104" type="line"/>
      <point x="201" y="-25" type="line"/>
      <point x="299" y="-25" type="line"/>
      <point x="299" y="104" type="line"/>
    </contour>
  </outline>
</glyph>
<glyph name="sterling" format="2">
	<advance width="541"/>
	<unicode hex="00A3"/>
	<outline>
		<contour>
			<point x="50" y="0" type="line"/>
			<point x="504" y="0" type="line"/>
			<point x="504" y="110" type="line"/>
			<point x="190" y="110" type="line"/>
			<point x="190" y="104" type="line"/>
			<point x="234" y="104"/>
			<point x="250" y="130"/>
			<point x="250" y="171" type="curve" smooth="yes"/>
			<point x="250" y="360" type="line"/>
			<point x="231" y="341" type="line"/>
			<point x="451" y="341" type="line"/>
			<point x="451" y="433" type="line"/>
			<point x="231" y="433" type="line"/>
			<point x="250" y="411" type="line"/>
			<point x="250" y="626" type="line" smooth="yes"/>
			<point x="250" y="636"/>
			<point x="255" y="640"/>
			<point x="264" y="640" type="curve" smooth="yes"/>
			<point x="495" y="640" type="line"/>
			<point x="495" y="752" type="line"/>
			<point x="302" y="752" type="line" smooth="yes"/>
			<point x="181" y="752"/>
			<point x="124" y="704"/>
			<point x="124" y="593" type="curve" smooth="yes"/>
			<point x="124" y="414" type="line"/>
			<point x="143" y="433" type="line"/>
			<point x="50" y="433" type="line"/>
			<point x="50" y="341" type="line"/>
			<point x="143" y="341" type="line"/>
			<point x="124" y="360" type="line"/>
			<point x="124" y="125" type="line" smooth="yes"/>
			<point x="124" y="114"/>
			<point x="119" y="110"/>
			<point x="109" y="110" type="curve" smooth="yes"/>
			<point x="50" y="110" type="line"/>
		</contour>
	</outline>
</glyph>
<glyph name="currency" format="2">
  <advance width="740"/>
  <unicode hex="00A4"/>
  <outline>
    <contour>
      <point x="280" y="533" type="curve" smooth="yes"/>
      <point x="463" y="533" type="line" smooth="yes"/>
      <point x="471" y="533"/>
      <point x="476" y="529"/>
      <point x="476" y="520" type="curve" smooth="yes"/>
      <point x="476" y="264" type="line" smooth="yes"/>
      <point x="476" y="254"/>
      <point x="471" y="250"/>
      <point x="463" y="250" type="curve" smooth="yes"/>
      <point x="280" y="250" type="line" smooth="yes"/>
      <point x="272" y="250"/>
      <point x="267" y="254"/>
      <point x="267" y="264" type="curve" smooth="yes"/>
      <point x="267" y="520" type="line" smooth="yes"/>
      <point x="267" y="529"/>
      <point x="272" y="533"/>
    </contour>
    <contour>
      <point x="147" y="481" type="curve" smooth="yes"/>
      <point x="147" y="301" type="line" smooth="yes"/>
      <point x="147" y="194"/>
      <point x="205" y="147"/>
      <point x="321" y="147" type="curve" smooth="yes"/>
      <point x="423" y="147" type="line" smooth="yes"/>
      <point x="538" y="147"/>
      <point x="596" y="194"/>
      <point x="596" y="301" type="curve" smooth="yes"/>
      <point x="596" y="481" type="line" smooth="yes"/>
      <point x="596" y="589"/>
      <point x="538" y="636"/>
      <point x="423" y="636" type="curve" smooth="yes"/>
      <point x="321" y="636" type="line" smooth="yes"/>
      <point x="205" y="636"/>
      <point x="147" y="589"/>
    </contour>
    <contour>
      <point x="626" y="725" type="line"/>
      <point x="510" y="610" type="line"/>
      <point x="576" y="544" type="line"/>
      <point x="691" y="659" type="line"/>
    </contour>
    <contour>
      <point x="164" y="241" type="line"/>
      <point x="49" y="125" type="line"/>
      <point x="114" y="59" type="line"/>
      <point x="230" y="175" type="line"/>
    </contour>
    <contour>
      <point x="691" y="125" type="line"/>
      <point x="576" y="241" type="line"/>
      <point x="510" y="175" type="line"/>
      <point x="626" y="59" type="line"/>
    </contour>
    <contour>
      <point x="230" y="610" type="line"/>
      <point x="116" y="723" type="line"/>
      <point x="51" y="657" type="line"/>
      <point x="164" y="544" type="line"/>
    </contour>
  </outline>
</glyph>
<glyph name="brokenbar" format="2">
  <advance width="346"/>
  <unicode hex="00A6"/>
  <outline>
    <contour>
      <point x="123" y="-72" type="line"/>
      <point x="223" y="-72" type="line"/>
      <point x="223" y="284" type="line"/>
      <point x="123" y="284" type="line"/>
    </contour>
    <contour>
      <point x="123" y="486" type="line"/>
      <point x="223" y="486" type="line"/>
      <point x="223" y="842" type="line"/>
      <point x="123" y="842" type="line"/>
    </contour>
  </outline>
</glyph>
<glyph name="section" format="2">
	<advance width="567"/>
	<unicode hex="00A7"/>
	<outline>
		<contour>
			<point x="348" y="-133" type="line" smooth="yes"/>
			<point x="471" y="-136"/>
			<point x="519" y="-74"/>
			<point x="520" y="28" type="curve" smooth="yes"/>
			<point x="520" y="295" type="line" smooth="yes"/>
			<point x="520" y="389"/>
			<point x="489" y="412"/>
			<point x="415" y="440" type="curve" smooth="yes"/>
			<point x="188" y="529" type="line" smooth="yes"/>
			<point x="177" y="533"/>
			<point x="171" y="539"/>
			<point x="171" y="552" type="curve" smooth="yes"/>
			<point x="171" y="668" type="line" smooth="yes"/>
			<point x="171" y="679"/>
			<point x="178" y="684"/>
			<point x="187" y="684" type="curve" smooth="yes"/>
			<point x="503" y="684" type="line"/>
			<point x="503" y="793" type="line"/>
			<point x="219" y="798" type="line" smooth="yes"/>
			<point x="95" y="800"/>
			<point x="47" y="739"/>
			<point x="45" y="637" type="curve" smooth="yes"/>
			<point x="45" y="369" type="line" smooth="yes"/>
			<point x="45" y="276"/>
			<point x="77" y="252"/>
			<point x="152" y="224" type="curve" smooth="yes"/>
			<point x="378" y="135" type="line" smooth="yes"/>
			<point x="390" y="130"/>
			<point x="395" y="125"/>
			<point x="395" y="113" type="curve" smooth="yes"/>
			<point x="395" y="-4" type="line" smooth="yes"/>
			<point x="395" y="-15"/>
			<point x="389" y="-20"/>
			<point x="379" y="-20" type="curve" smooth="yes"/>
			<point x="63" y="-20" type="line"/>
			<point x="63" y="-129" type="line"/>
		</contour>
		<contour>
			<point x="395" y="226" type="line"/>
			<point x="402" y="231" type="line"/>
			<point x="193" y="314" type="line" smooth="yes"/>
			<point x="173" y="322"/>
			<point x="171" y="332"/>
			<point x="171" y="357" type="curve" smooth="yes"/>
			<point x="171" y="439" type="line"/>
			<point x="164" y="434" type="line"/>
			<point x="373" y="350" type="line" smooth="yes"/>
			<point x="394" y="342"/>
			<point x="395" y="332"/>
			<point x="395" y="308" type="curve" smooth="yes"/>
		</contour>
	</outline>
</glyph>
<glyph name="dieresis" format="2">
  <advance width="451"/>
  <unicode hex="00A8"/>
  <anchor x="226" y="612" name="_top"/>
  <outline>
    <contour>
      <point x="62" y="715" type="line"/>
      <point x="171" y="715" type="line"/>
      <point x="171" y="835" type="line"/>
      <point x="62" y="835" type="line"/>
    </contour>
    <contour>
      <point x="287" y="715" type="line"/>
      <point x="395" y="715" type="line"/>
      <point x="395" y="835" type="line"/>
      <point x="287" y="835" type="line"/>
    </contour>
  </outline>
</glyph>
<glyph name="ordfeminine" format="2">
	<advance width="442"/>
	<unicode hex="00AA"/>
	<outline>
		<contour>
			<point x="170" y="357" type="curve" smooth="yes"/>
			<point x="194" y="357" type="line" smooth="yes"/>
			<point x="269" y="357"/>
			<point x="289" y="395"/>
			<point x="289" y="474" type="curve"/>
			<point x="281" y="447" type="line"/>
			<point x="294" y="366" type="line"/>
			<point x="387" y="366" type="line"/>
			<point x="387" y="698" type="line" smooth="yes"/>
			<point x="387" y="802"/>
			<point x="356" y="833"/>
			<point x="242" y="833" type="curve" smooth="yes"/>
			<point x="69" y="833" type="line"/>
			<point x="69" y="749" type="line"/>
			<point x="267" y="751" type="line" smooth="yes"/>
			<point x="277" y="751"/>
			<point x="281" y="746"/>
			<point x="281" y="737" type="curve" smooth="yes"/>
			<point x="281" y="447" type="line"/>
			<point x="157" y="447" type="line" smooth="yes"/>
			<point x="148" y="447"/>
			<point x="144" y="451"/>
			<point x="144" y="460" type="curve" smooth="yes"/>
			<point x="144" y="562" type="line" smooth="yes"/>
			<point x="144" y="571"/>
			<point x="148" y="575"/>
			<point x="157" y="575" type="curve" smooth="yes"/>
			<point x="296" y="575" type="line"/>
			<point x="296" y="651" type="line"/>
			<point x="185" y="651" type="line" smooth="yes"/>
			<point x="84" y="651"/>
			<point x="43" y="623"/>
			<point x="43" y="516" type="curve" smooth="yes"/>
			<point x="43" y="489" type="line" smooth="yes"/>
			<point x="43" y="393"/>
			<point x="80" y="357"/>
		</contour>
	</outline>
</glyph>
<glyph name="guillemotleft" format="2">
	<advance width="516"/>
	<unicode hex="00AB"/>
	<outline>
		<contour>
			<point x="51" y="333" type="line" smooth="yes"/>
			<point x="40" y="318"/>
			<point x="41" y="313"/>
			<point x="51" y="300" type="curve" smooth="yes"/>
			<point x="177" y="102" type="line"/>
			<point x="278" y="102" type="line"/>
			<point x="162" y="308" type="line" smooth="yes"/>
			<point x="157" y="316"/>
			<point x="157" y="320"/>
			<point x="162" y="328" type="curve" smooth="yes"/>
			<point x="283" y="533" type="line"/>
			<point x="185" y="533" type="line"/>
		</contour>
		<contour>
			<point x="253" y="333" type="line" smooth="yes"/>
			<point x="243" y="318"/>
			<point x="244" y="313"/>
			<point x="253" y="300" type="curve" smooth="yes"/>
			<point x="376" y="102" type="line"/>
			<point x="480" y="102" type="line"/>
			<point x="364" y="308" type="line" smooth="yes"/>
			<point x="359" y="316"/>
			<point x="359" y="320"/>
			<point x="364" y="328" type="curve" smooth="yes"/>
			<point x="485" y="533" type="line"/>
			<point x="384" y="533" type="line"/>
		</contour>
	</outline>
</glyph>
<glyph name="logicalnot" format="2">
  <advance width="666"/>
  <unicode hex="00AC"/>
  <outline>
    <contour>
      <point x="602" y="168" type="line"/>
      <point x="602" y="417" type="line"/>
      <point x="50" y="417" type="line"/>
      <point x="50" y="329" type="line"/>
      <point x="500" y="329" type="line"/>
      <point x="500" y="168" type="line"/>
    </contour>
  </outline>
</glyph>
<glyph name="registered" format="2">
  <advance width="658"/>
  <unicode hex="00AE"/>
  <outline>
    <contour>
      <point x="159" y="746" type="curve" smooth="yes"/>
      <point x="521" y="746" type="line" smooth="yes"/>
      <point x="528" y="746"/>
      <point x="533" y="743"/>
      <point x="533" y="735" type="curve" smooth="yes"/>
      <point x="533" y="270" type="line" smooth="yes"/>
      <point x="533" y="261"/>
      <point x="528" y="258"/>
      <point x="521" y="258" type="curve" smooth="yes"/>
      <point x="159" y="258" type="line" smooth="yes"/>
      <point x="153" y="258"/>
      <point x="147" y="261"/>
      <point x="147" y="270" type="curve" smooth="yes"/>
      <point x="147" y="735" type="line" smooth="yes"/>
      <point x="147" y="743"/>
      <point x="153" y="746"/>
    </contour>
    <contour>
      <point x="81" y="680" type="curve" smooth="yes"/>
      <point x="81" y="324" type="line" smooth="yes"/>
      <point x="81" y="233"/>
      <point x="121" y="202"/>
      <point x="215" y="202" type="curve" smooth="yes"/>
      <point x="466" y="202" type="line" smooth="yes"/>
      <point x="560" y="202"/>
      <point x="600" y="233"/>
      <point x="600" y="324" type="curve" smooth="yes"/>
      <point x="600" y="680" type="line" smooth="yes"/>
      <point x="600" y="771"/>
      <point x="560" y="802"/>
      <point x="466" y="802" type="curve" smooth="yes"/>
      <point x="215" y="802" type="line" smooth="yes"/>
      <point x="121" y="802"/>
      <point x="81" y="771"/>
    </contour>
    <contour>
      <point x="198" y="298" type="line"/>
      <point x="290" y="298" type="line"/>
      <point x="289" y="461" type="line"/>
      <point x="273" y="446" type="line"/>
      <point x="350" y="446" type="line" smooth="yes"/>
      <point x="360" y="446"/>
      <point x="363" y="442"/>
      <point x="365" y="435" type="curve" smooth="yes"/>
      <point x="412" y="298" type="line"/>
      <point x="503" y="298" type="line"/>
      <point x="467" y="401" type="line" smooth="yes"/>
      <point x="452" y="445"/>
      <point x="441" y="463"/>
      <point x="405" y="469" type="curve"/>
      <point x="406" y="449" type="line"/>
      <point x="461" y="457"/>
      <point x="493" y="495"/>
      <point x="493" y="557" type="curve" smooth="yes"/>
      <point x="493" y="597" type="line" smooth="yes"/>
      <point x="493" y="666"/>
      <point x="454" y="705"/>
      <point x="376" y="703" type="curve" smooth="yes"/>
      <point x="198" y="699" type="line"/>
    </contour>
    <contour>
      <point x="289" y="500" type="line"/>
      <point x="289" y="649" type="line"/>
      <point x="277" y="634" type="line"/>
      <point x="386" y="634" type="line" smooth="yes"/>
      <point x="395" y="634"/>
      <point x="398" y="630"/>
      <point x="398" y="622" type="curve" smooth="yes"/>
      <point x="398" y="527" type="line" smooth="yes"/>
      <point x="398" y="518"/>
      <point x="394" y="515"/>
      <point x="386" y="515" type="curve" smooth="yes"/>
      <point x="277" y="515" type="line"/>
    </contour>
  </outline>
</glyph>
<glyph name="macron" format="2">
  <advance width="452"/>
  <unicode hex="00AF"/>
  <anchor x="226" y="612" name="_top"/>
  <outline>
    <contour>
      <point x="390" y="721" type="line"/>
      <point x="390" y="809" type="line"/>
      <point x="62" y="809" type="line"/>
      <point x="62" y="721" type="line"/>
    </contour>
  </outline>
</glyph>
<glyph name="plusminus" format="2">
  <advance width="669"/>
  <unicode hex="00B1"/>
  <outline>
    <contour>
      <point x="601" y="378" type="line"/>
      <point x="601" y="468" type="line"/>
      <point x="68" y="468" type="line"/>
      <point x="68" y="378" type="line"/>
    </contour>
    <contour>
      <point x="287" y="189" type="line"/>
      <point x="382" y="189" type="line"/>
      <point x="382" y="657" type="line"/>
      <point x="287" y="657" type="line"/>
    </contour>
    <contour>
      <point x="601" y="27" type="line"/>
      <point x="601" y="117" type="line"/>
      <point x="68" y="117" type="line"/>
      <point x="68" y="27" type="line"/>
    </contour>
  </outline>
</glyph>
<glyph name="twosuperior" format="2">
  <advance width="418"/>
  <unicode hex="00B2"/>
  <outline>
    <contour>
      <point x="110" y="552" type="line" smooth="yes"/>
      <point x="67" y="531"/>
      <point x="46" y="519"/>
      <point x="46" y="462" type="curve" smooth="yes"/>
      <point x="46" y="311" type="line"/>
      <point x="371" y="311" type="line"/>
      <point x="371" y="393" type="line"/>
      <point x="149" y="393" type="line"/>
      <point x="149" y="449" type="line" smooth="yes"/>
      <point x="149" y="464"/>
      <point x="151" y="469"/>
      <point x="163" y="475" type="curve" smooth="yes"/>
      <point x="308" y="543" type="line" smooth="yes"/>
      <point x="354" y="565"/>
      <point x="373" y="584"/>
      <point x="373" y="628" type="curve" smooth="yes"/>
      <point x="373" y="696" type="line" smooth="yes"/>
      <point x="373" y="759"/>
      <point x="344" y="799"/>
      <point x="268" y="797" type="curve" smooth="yes"/>
      <point x="59" y="794" type="line"/>
      <point x="59" y="711" type="line"/>
      <point x="259" y="711" type="line" smooth="yes"/>
      <point x="266" y="711"/>
      <point x="270" y="708"/>
      <point x="270" y="701" type="curve" smooth="yes"/>
      <point x="270" y="637" type="line" smooth="yes"/>
      <point x="270" y="630"/>
      <point x="266" y="627"/>
      <point x="259" y="623" type="curve" smooth="yes"/>
    </contour>
  </outline>
</glyph>
<glyph name="threesuperior" format="2">
	<advance width="440"/>
	<unicode hex="00B3"/>
	<outline>
		<contour>
			<point x="245" y="309" type="line" smooth="yes"/>
			<point x="320" y="308"/>
			<point x="360" y="345"/>
			<point x="360" y="413" type="curve" smooth="yes"/>
			<point x="360" y="480" type="line" smooth="yes"/>
			<point x="360" y="546"/>
			<point x="320" y="572"/>
			<point x="229" y="571" type="curve"/>
			<point x="226" y="545" type="line"/>
			<point x="312" y="545"/>
			<point x="357" y="572"/>
			<point x="357" y="635" type="curve" smooth="yes"/>
			<point x="357" y="693" type="line" smooth="yes"/>
			<point x="357" y="762"/>
			<point x="318" y="799"/>
			<point x="243" y="797" type="curve" smooth="yes"/>
			<point x="34" y="794" type="line"/>
			<point x="34" y="711" type="line"/>
			<point x="243" y="711" type="line" smooth="yes"/>
			<point x="250" y="711"/>
			<point x="254" y="708"/>
			<point x="254" y="701" type="curve" smooth="yes"/>
			<point x="254" y="610" type="line" smooth="yes"/>
			<point x="254" y="603"/>
			<point x="250" y="600"/>
			<point x="243" y="600" type="curve" smooth="yes"/>
			<point x="77" y="600" type="line"/>
			<point x="77" y="520" type="line"/>
			<point x="247" y="520" type="line" smooth="yes"/>
			<point x="254" y="520"/>
			<point x="258" y="517"/>
			<point x="258" y="510" type="curve" smooth="yes"/>
			<point x="258" y="403" type="line" smooth="yes"/>
			<point x="258" y="396"/>
			<point x="254" y="393"/>
			<point x="247" y="393" type="curve" smooth="yes"/>
			<point x="31" y="393" type="line"/>
			<point x="31" y="311" type="line"/>
		</contour>
	</outline>
</glyph>
<glyph name="acute" format="2">
  <advance width="365"/>
  <unicode hex="00B4"/>
  <anchor x="127" y="612" name="_top"/>
  <outline>
    <contour>
      <point x="168" y="689" type="line"/>
      <point x="78" y="689" type="line"/>
      <point x="156" y="873" type="line"/>
      <point x="281" y="872" type="line"/>
    </contour>
  </outline>
</glyph>
<glyph name="uni00B5" format="2">
  <advance width="570"/>
  <unicode hex="00B5"/>
  <outline>
    <contour>
      <point x="58" y="-237" type="line"/>
      <point x="177" y="-237" type="line"/>
      <point x="166" y="28" type="line"/>
      <point x="155" y="28" type="line"/>
      <point x="166" y="5"/>
      <point x="184" y="-9"/>
      <point x="233" y="-9" type="curve" smooth="yes"/>
      <point x="295" y="-9" type="line" smooth="yes"/>
      <point x="361" y="-9"/>
      <point x="389" y="32"/>
      <point x="389" y="114" type="curve"/>
      <point x="381" y="89" type="line"/>
      <point x="395" y="0" type="line"/>
      <point x="503" y="0" type="line"/>
      <point x="501" y="612" type="line"/>
      <point x="380" y="612" type="line"/>
      <point x="381" y="89" type="line"/>
      <point x="192" y="89" type="line" smooth="yes"/>
      <point x="183" y="89"/>
      <point x="179" y="92"/>
      <point x="179" y="103" type="curve" smooth="yes"/>
      <point x="179" y="612" type="line"/>
      <point x="58" y="612" type="line"/>
    </contour>
  </outline>
</glyph>
<glyph name="paragraph" format="2">
  <advance width="654"/>
  <unicode hex="00B6"/>
  <outline>
    <contour>
      <point x="456" y="709" type="line"/>
      <point x="456" y="0" type="line"/>
      <point x="564" y="0" type="line"/>
      <point x="564" y="793" type="line"/>
      <point x="221" y="798" type="line" smooth="yes"/>
      <point x="97" y="800"/>
      <point x="33" y="741"/>
      <point x="33" y="634" type="curve" smooth="yes"/>
      <point x="33" y="561" type="line" smooth="yes"/>
      <point x="33" y="461"/>
      <point x="97" y="394"/>
      <point x="221" y="394" type="curve" smooth="yes"/>
      <point x="287" y="394" type="line"/>
      <point x="266" y="417" type="line"/>
      <point x="265" y="0" type="line"/>
      <point x="373" y="0" type="line"/>
      <point x="373" y="709" type="line"/>
      <point x="352" y="688" type="line"/>
      <point x="477" y="688" type="line"/>
    </contour>
  </outline>
</glyph>
<glyph name="periodcentered" format="2">
	<advance width="247"/>
	<unicode hex="00B7"/>
	<outline>
		<contour>
			<point x="60" y="280" type="line"/>
			<point x="188" y="280" type="line"/>
			<point x="188" y="427" type="line"/>
			<point x="60" y="427" type="line"/>
		</contour>
	</outline>
</glyph>
<glyph name="onesuperior" format="2">
	<advance width="400"/>
	<unicode hex="00B9"/>
	<outline>
		<contour>
			<point x="368" y="311" type="line"/>
			<point x="368" y="393" type="line"/>
			<point x="53" y="393" type="line"/>
			<point x="53" y="311" type="line"/>
		</contour>
		<contour>
			<point x="187" y="793" type="line"/>
			<point x="28" y="691" type="line"/>
			<point x="70" y="618" type="line"/>
			<point x="194" y="694" type="line"/>
			<point x="180" y="701" type="line"/>
			<point x="180" y="311" type="line"/>
			<point x="281" y="311" type="line"/>
			<point x="281" y="793" type="line"/>
		</contour>
	</outline>
</glyph>
<glyph name="ordmasculine" format="2">
	<advance width="473"/>
	<unicode hex="00BA"/>
	<outline>
		<contour>
			<point x="168" y="750" type="curve" smooth="yes"/>
			<point x="307" y="750" type="line" smooth="yes"/>
			<point x="315" y="750"/>
			<point x="320" y="747"/>
			<point x="320" y="737" type="curve" smooth="yes"/>
			<point x="320" y="457" type="line" smooth="yes"/>
			<point x="320" y="448"/>
			<point x="315" y="444"/>
			<point x="307" y="444" type="curve" smooth="yes"/>
			<point x="168" y="444" type="line" smooth="yes"/>
			<point x="160" y="444"/>
			<point x="156" y="448"/>
			<point x="156" y="457" type="curve" smooth="yes"/>
			<point x="156" y="737" type="line" smooth="yes"/>
			<point x="156" y="747"/>
			<point x="160" y="750"/>
		</contour>
		<contour>
			<point x="53" y="688" type="curve" smooth="yes"/>
			<point x="53" y="502" type="line" smooth="yes"/>
			<point x="53" y="396"/>
			<point x="100" y="358"/>
			<point x="211" y="358" type="curve" smooth="yes"/>
			<point x="265" y="358" type="line" smooth="yes"/>
			<point x="375" y="358"/>
			<point x="423" y="396"/>
			<point x="423" y="502" type="curve" smooth="yes"/>
			<point x="423" y="688" type="line" smooth="yes"/>
			<point x="423" y="798"/>
			<point x="375" y="837"/>
			<point x="265" y="837" type="curve" smooth="yes"/>
			<point x="211" y="837" type="line" smooth="yes"/>
			<point x="100" y="837"/>
			<point x="53" y="798"/>
		</contour>
	</outline>
</glyph>
<glyph name="AE" format="2">
  <advance width="984"/>
  <unicode hex="00C6"/>
  <outline>
    <contour>
      <point x="3" y="0" type="line"/>
      <point x="127" y="0" type="line"/>
      <point x="227" y="240" type="line"/>
      <point x="200" y="221" type="line"/>
      <point x="506" y="221" type="line"/>
      <point x="487" y="240" type="line"/>
      <point x="487" y="0" type="line"/>
      <point x="940" y="0" type="line"/>
      <point x="940" y="109" type="line"/>
      <point x="593" y="109" type="line"/>
      <point x="613" y="90" type="line"/>
      <point x="613" y="364" type="line"/>
      <point x="593" y="345" type="line"/>
      <point x="911" y="345" type="line"/>
      <point x="911" y="453" type="line"/>
      <point x="593" y="453" type="line"/>
      <point x="613" y="433" type="line"/>
      <point x="613" y="702" type="line"/>
      <point x="593" y="684" type="line"/>
      <point x="934" y="684" type="line"/>
      <point x="934" y="793" type="line"/>
      <point x="443" y="794" type="line" smooth="yes"/>
      <point x="342" y="794"/>
      <point x="330" y="766"/>
      <point x="290" y="669" type="curve" smooth="yes"/>
    </contour>
    <contour>
      <point x="255" y="309" type="line"/>
      <point x="408" y="670" type="line" smooth="yes"/>
      <point x="412" y="680"/>
      <point x="413" y="684"/>
      <point x="422" y="684" type="curve" smooth="yes"/>
      <point x="506" y="684" type="line"/>
      <point x="487" y="703" type="line"/>
      <point x="487" y="309" type="line"/>
      <point x="506" y="329" type="line"/>
      <point x="243" y="329" type="line"/>
    </contour>
  </outline>
</glyph>
<glyph name="multiply" format="2">
  <advance width="576"/>
  <unicode hex="00D7"/>
  <outline>
    <contour>
      <point x="511" y="528" type="line"/>
      <point x="447" y="593" type="line"/>
      <point x="65" y="211" type="line"/>
      <point x="130" y="147" type="line"/>
    </contour>
    <contour>
      <point x="446" y="147" type="line"/>
      <point x="512" y="212" type="line"/>
      <point x="130" y="593" type="line"/>
      <point x="65" y="528" type="line"/>
    </contour>
  </outline>
</glyph>
<glyph name="Oslash" format="2">
	<advance width="711"/>
	<unicode hex="00D8"/>
	<anchor x="358" y="774" name="top"/>
	<outline>
		<contour>
			<point x="618" y="855" type="line"/>
			<point x="538" y="855" type="line"/>
			<point x="92" y="-66" type="line"/>
			<point x="172" y="-66" type="line"/>
		</contour>
		<component base="O"/>
	</outline>
</glyph>
<glyph name="Thorn" format="2">
	<advance width="668"/>
	<unicode hex="00DE"/>
	<outline>
		<contour>
			<point x="90" y="0" type="line"/>
			<point x="216" y="0" type="line"/>
			<point x="216" y="183" type="line"/>
			<point x="195" y="161" type="line"/>
			<point x="424" y="161" type="line" smooth="yes"/>
			<point x="547" y="161"/>
			<point x="610" y="227"/>
			<point x="610" y="334" type="curve" smooth="yes"/>
			<point x="610" y="493" type="line" smooth="yes"/>
			<point x="610" y="607"/>
			<point x="547" y="662"/>
			<point x="424" y="662" type="curve" smooth="yes"/>
			<point x="192" y="662" type="line"/>
			<point x="216" y="642" type="line"/>
			<point x="216" y="793" type="line"/>
			<point x="90" y="793" type="line"/>
		</contour>
		<contour>
			<point x="216" y="249" type="line"/>
			<point x="216" y="576" type="line"/>
			<point x="195" y="553" type="line"/>
			<point x="466" y="553" type="line" smooth="yes"/>
			<point x="476" y="553"/>
			<point x="482" y="548"/>
			<point x="482" y="536" type="curve" smooth="yes"/>
			<point x="482" y="286" type="line" smooth="yes"/>
			<point x="482" y="275"/>
			<point x="476" y="270"/>
			<point x="466" y="270" type="curve" smooth="yes"/>
			<point x="195" y="270" type="line"/>
		</contour>
	</outline>
</glyph>
<glyph name="germandbls" format="2">
  <advance width="616"/>
  <unicode hex="00DF"/>
  <outline>
    <contour>
      <point x="114" y="517" type="line"/>
      <point x="94" y="536" type="line"/>
      <point x="94" y="0" type="line"/>
      <point x="216" y="0" type="line"/>
      <point x="216" y="680" type="line" smooth="yes"/>
      <point x="216" y="691"/>
      <point x="222" y="696"/>
      <point x="232" y="696" type="curve" smooth="yes"/>
      <point x="410" y="696" type="line" smooth="yes"/>
      <point x="420" y="696"/>
      <point x="426" y="691"/>
      <point x="426" y="680" type="curve" smooth="yes"/>
      <point x="426" y="482" type="line" smooth="yes"/>
      <point x="426" y="471"/>
      <point x="416" y="466"/>
      <point x="405" y="466" type="curve" smooth="yes"/>
      <point x="279" y="466" type="line"/>
      <point x="279" y="367" type="line"/>
      <point x="428" y="367" type="line" smooth="yes"/>
      <point x="439" y="367"/>
      <point x="445" y="362"/>
      <point x="445" y="351" type="curve" smooth="yes"/>
      <point x="445" y="113" type="line" smooth="yes"/>
      <point x="445" y="102"/>
      <point x="439" y="97"/>
      <point x="428" y="97" type="curve" smooth="yes"/>
      <point x="279" y="97" type="line"/>
      <point x="279" y="-5" type="line"/>
      <point x="377" y="-5" type="line" smooth="yes"/>
      <point x="501" y="-5"/>
      <point x="567" y="56"/>
      <point x="567" y="167" type="curve" smooth="yes"/>
      <point x="567" y="290" type="line" smooth="yes"/>
      <point x="567" y="397"/>
      <point x="504" y="440"/>
      <point x="372" y="440" type="curve"/>
      <point x="353" y="397" type="line"/>
      <point x="477" y="397"/>
      <point x="549" y="441"/>
      <point x="549" y="545" type="curve" smooth="yes"/>
      <point x="549" y="628" type="line" smooth="yes"/>
      <point x="549" y="741"/>
      <point x="484" y="798"/>
      <point x="361" y="798" type="curve" smooth="yes"/>
      <point x="280" y="798" type="line" smooth="yes"/>
      <point x="155" y="798"/>
      <point x="94" y="736"/>
      <point x="94" y="631" type="curve" smooth="yes"/>
      <point x="94" y="593" type="line"/>
      <point x="114" y="612" type="line"/>
      <point x="28" y="612" type="line"/>
      <point x="28" y="517" type="line"/>
    </contour>
  </outline>
</glyph>
<glyph name="ae" format="2">
	<advance width="836"/>
	<unicode hex="00E6"/>
	<outline>
		<contour>
			<point x="524" y="-7" type="curve" smooth="yes"/>
			<point x="771" y="-7" type="line"/>
			<point x="771" y="95" type="line"/>
			<point x="487" y="95" type="line" smooth="yes"/>
			<point x="478" y="95"/>
			<point x="473" y="98"/>
			<point x="473" y="108" type="curve" smooth="yes"/>
			<point x="473" y="509" type="line" smooth="yes"/>
			<point x="473" y="518"/>
			<point x="478" y="523"/>
			<point x="487" y="523" type="curve" smooth="yes"/>
			<point x="653" y="523" type="line" smooth="yes"/>
			<point x="662" y="523"/>
			<point x="666" y="518"/>
			<point x="666" y="509" type="curve" smooth="yes"/>
			<point x="666" y="336" type="line"/>
			<point x="458" y="336" type="line"/>
			<point x="458" y="248" type="line"/>
			<point x="787" y="248" type="line"/>
			<point x="787" y="475" type="line" smooth="yes"/>
			<point x="787" y="586"/>
			<point x="743" y="621"/>
			<point x="628" y="621" type="curve" smooth="yes"/>
			<point x="527" y="621" type="line" smooth="yes"/>
			<point x="435" y="621"/>
			<point x="408" y="599"/>
			<point x="399" y="533" type="curve"/>
			<point x="433" y="533" type="line"/>
			<point x="421" y="590"/>
			<point x="383" y="613"/>
			<point x="299" y="612" type="curve" smooth="yes"/>
			<point x="74" y="611" type="line"/>
			<point x="74" y="509" type="line"/>
			<point x="340" y="510" type="line" smooth="yes"/>
			<point x="349" y="510"/>
			<point x="353" y="506"/>
			<point x="353" y="497" type="curve" smooth="yes"/>
			<point x="353" y="135" type="line" smooth="yes"/>
			<point x="353" y="36"/>
			<point x="410" y="-7"/>
		</contour>
		<contour>
			<point x="181" y="-9" type="curve" smooth="yes"/>
			<point x="255" y="-9" type="line" smooth="yes"/>
			<point x="326" y="-9"/>
			<point x="360" y="26"/>
			<point x="364" y="89" type="curve"/>
			<point x="170" y="89" type="line" smooth="yes"/>
			<point x="162" y="89"/>
			<point x="157" y="92"/>
			<point x="157" y="103" type="curve" smooth="yes"/>
			<point x="157" y="246" type="line" smooth="yes"/>
			<point x="157" y="255"/>
			<point x="162" y="259"/>
			<point x="170" y="259" type="curve" smooth="yes"/>
			<point x="367" y="259" type="line"/>
			<point x="367" y="347" type="line"/>
			<point x="195" y="347" type="line" smooth="yes"/>
			<point x="81" y="347"/>
			<point x="37" y="312"/>
			<point x="37" y="204" type="curve" smooth="yes"/>
			<point x="37" y="126" type="line" smooth="yes"/>
			<point x="37" y="25"/>
			<point x="81" y="-9"/>
		</contour>
	</outline>
</glyph>
<glyph name="oslash" format="2">
	<advance width="564"/>
	<unicode hex="00F8"/>
	<anchor x="285" y="612" name="top"/>
	<outline>
		<contour>
			<point x="494" y="687" type="line"/>
			<point x="426" y="687" type="line"/>
			<point x="71" y="-74" type="line"/>
			<point x="140" y="-74" type="line"/>
		</contour>
		<component base="o"/>
	</outline>
</glyph>
<glyph name="idotless" format="2">
  <advance width="290"/>
  <unicode hex="0131"/>
  <anchor x="252" y="13" name="ogonek"/>
  <anchor x="145" y="0" name="bottom"/>
  <anchor x="145" y="611" name="top"/>
  <outline>
    <contour>
      <point x="83" y="611" type="line"/>
      <point x="83" y="0" type="line"/>
      <point x="207" y="0" type="line"/>
      <point x="207" y="611" type="line"/>
    </contour>
  </outline>
</glyph>
<glyph name="OE" format="2">
  <advance width="994"/>
  <unicode hex="0152"/>
  <outline>
    <contour>
      <point x="247" y="-4" type="curve" smooth="yes"/>
      <point x="951" y="0" type="line"/>
      <point x="951" y="109" type="line"/>
      <point x="603" y="109" type="line"/>
      <point x="622" y="90" type="line"/>
      <point x="622" y="367" type="line"/>
      <point x="602" y="348" type="line"/>
      <point x="922" y="348" type="line"/>
      <point x="922" y="456" type="line"/>
      <point x="603" y="456" type="line"/>
      <point x="622" y="438" type="line"/>
      <point x="622" y="702" type="line"/>
      <point x="603" y="684" type="line"/>
      <point x="945" y="684" type="line"/>
      <point x="945" y="793" type="line"/>
      <point x="247" y="797" type="line" smooth="yes"/>
      <point x="126" y="798"/>
      <point x="69" y="749"/>
      <point x="69" y="638" type="curve" smooth="yes"/>
      <point x="69" y="154" type="line" smooth="yes"/>
      <point x="69" y="43"/>
      <point x="126" y="-5"/>
    </contour>
    <contour>
      <point x="497" y="87" type="line"/>
      <point x="516" y="109" type="line"/>
      <point x="211" y="109" type="line" smooth="yes"/>
      <point x="203" y="109"/>
      <point x="198" y="112"/>
      <point x="198" y="122" type="curve" smooth="yes"/>
      <point x="198" y="670" type="line" smooth="yes"/>
      <point x="198" y="680"/>
      <point x="203" y="684"/>
      <point x="211" y="684" type="curve" smooth="yes"/>
      <point x="516" y="684" type="line"/>
      <point x="497" y="703" type="line"/>
    </contour>
  </outline>
</glyph>
<glyph name="florin" format="2">
  <advance width="497"/>
  <unicode hex="0192"/>
  <outline>
    <contour>
      <point x="11" y="-236" type="line"/>
      <point x="94" y="-237" type="line" smooth="yes"/>
      <point x="208" y="-238"/>
      <point x="247" y="-199"/>
      <point x="255" y="-88" type="curve" smooth="yes"/>
      <point x="298" y="438" type="line"/>
      <point x="279" y="420" type="line"/>
      <point x="425" y="420" type="line"/>
      <point x="425" y="514" type="line"/>
      <point x="284" y="514" type="line"/>
      <point x="303" y="494" type="line"/>
      <point x="321" y="737" type="line" smooth="yes"/>
      <point x="322" y="746"/>
      <point x="326" y="750"/>
      <point x="335" y="750" type="curve" smooth="yes"/>
      <point x="469" y="750" type="line"/>
      <point x="469" y="852" type="line"/>
      <point x="363" y="852" type="line" smooth="yes"/>
      <point x="248" y="853"/>
      <point x="209" y="813"/>
      <point x="201" y="703" type="curve" smooth="yes"/>
      <point x="184" y="494" type="line"/>
      <point x="203" y="514" type="line"/>
      <point x="105" y="514" type="line"/>
      <point x="105" y="420" type="line"/>
      <point x="199" y="420" type="line"/>
      <point x="180" y="438" type="line"/>
      <point x="134" y="-122" type="line" smooth="yes"/>
      <point x="134" y="-131"/>
      <point x="130" y="-135"/>
      <point x="121" y="-135" type="curve" smooth="yes"/>
      <point x="11" y="-135" type="line"/>
    </contour>
  </outline>
</glyph>
<glyph name="circumflex" format="2">
	<advance width="480"/>
	<unicode hex="02C6"/>
	<anchor x="241" y="612" name="_top"/>
	<outline>
		<contour>
			<point x="417" y="689" type="line"/>
			<point x="303" y="867" type="line"/>
			<point x="177" y="867" type="line"/>
			<point x="57" y="689" type="line"/>
			<point x="158" y="689" type="line"/>
			<point x="246" y="819" type="line"/>
			<point x="233" y="819" type="line"/>
			<point x="312" y="689" type="line"/>
		</contour>
	</outline>
</glyph>
<glyph name="breve" format="2">
  <advance width="434"/>
  <unicode hex="02D8"/>
  <anchor x="216" y="612" name="_top"/>
  <outline>
    <contour>
      <point x="151" y="854" type="curve"/>
      <point x="70" y="854" type="line"/>
      <point x="70" y="742"/>
      <point x="103" y="695"/>
      <point x="232" y="695" type="curve" smooth="yes"/>
      <point x="350" y="695"/>
      <point x="385" y="741"/>
      <point x="385" y="854" type="curve"/>
      <point x="307" y="854" type="line"/>
      <point x="307" y="800"/>
      <point x="297" y="771"/>
      <point x="232" y="771" type="curve" smooth="yes"/>
      <point x="161" y="771"/>
      <point x="151" y="800"/>
    </contour>
  </outline>
</glyph>
<glyph name="hungarumlaut" format="2">
	<advance width="483"/>
	<unicode hex="02DD"/>
	<anchor x="205" y="612" name="_top"/>
	<outline>
		<contour>
			<point x="156" y="689" type="line"/>
			<point x="69" y="689" type="line"/>
			<point x="145" y="873" type="line"/>
			<point x="266" y="872" type="line"/>
		</contour>
		<contour>
			<point x="335" y="689" type="line"/>
			<point x="248" y="689" type="line"/>
			<point x="327" y="873" type="line"/>
			<point x="450" y="872" type="line"/>
		</contour>
	</outline>
</glyph>
<glyph name="kha-khmer" format="2">
	<advance width="684"/>
	<unicode hex="1781"/>
	<anchor x="342" y="732" name="top"/>
	<anchor x="586" y="732" name="topright"/>
	<anchor x="586" y="0" name="bottomright"/>
	<anchor x="342" y="0" name="bottom"/>
	<note>
		increae mid bar weight to ន ខ ឧ and its seriees
	</note>
	<outline>
		<contour>
			<point x="146" y="0" type="curve" smooth="yes"/>
			<point x="537" y="0" type="line" smooth="yes"/>
			<point x="570" y="0"/>
			<point x="586" y="16"/>
			<point x="586" y="49" type="curve" smooth="yes"/>
			<point x="586" y="263" type="line"/>
			<point x="464" y="263" type="line"/>
			<point x="464" y="98" type="line"/>
			<point x="220" y="98" type="line"/>
			<point x="220" y="256" type="line"/>
			<point x="507" y="355" type="line" smooth="yes"/>
			<point x="564" y="375"/>
			<point x="586" y="421"/>
			<point x="586" y="485" type="curve" smooth="yes"/>
			<point x="586" y="684" type="line" smooth="yes"/>
			<point x="586" y="716"/>
			<point x="569" y="732"/>
			<point x="536" y="732" type="curve" smooth="yes"/>
			<point x="148" y="732" type="line" smooth="yes"/>
			<point x="115" y="732"/>
			<point x="98" y="716"/>
			<point x="98" y="684" type="curve" smooth="yes"/>
			<point x="98" y="509" type="line" smooth="yes"/>
			<point x="98" y="474"/>
			<point x="124" y="448"/>
			<point x="159" y="448" type="curve" smooth="yes"/>
			<point x="290" y="448" type="line"/>
			<point x="290" y="520" type="line"/>
			<point x="220" y="520" type="line"/>
			<point x="220" y="634" type="line"/>
			<point x="464" y="634" type="line"/>
			<point x="464" y="481" type="line" smooth="yes"/>
			<point x="464" y="451"/>
			<point x="449" y="432"/>
			<point x="419" y="421" type="curve" smooth="yes"/>
			<point x="98" y="307" type="line"/>
			<point x="98" y="49" type="line" smooth="yes"/>
			<point x="98" y="16"/>
			<point x="114" y="0"/>
		</contour>
	</outline>
</glyph>
<glyph name="kho-khmer" format="2">
  <advance width="1022"/>
  <unicode hex="1783"/>
  <anchor x="687" y="732" name="top"/>
  <anchor x="924" y="732" name="topright"/>
  <anchor x="924" y="0" name="bottomright"/>
  <anchor x="687" y="0" name="bottom"/>
  <outline>
    <contour>
      <point x="146" y="0" type="curve" smooth="yes"/>
      <point x="425" y="0" type="line" smooth="yes"/>
      <point x="457" y="0"/>
      <point x="483" y="12"/>
      <point x="509" y="53" type="curve"/>
      <point x="513" y="53" type="line"/>
      <point x="539" y="12"/>
      <point x="565" y="0"/>
      <point x="597" y="0" type="curve" smooth="yes"/>
      <point x="875" y="0" type="line" smooth="yes"/>
      <point x="908" y="0"/>
      <point x="924" y="16"/>
      <point x="924" y="49" type="curve" smooth="yes"/>
      <point x="924" y="521" type="line"/>
      <point x="875" y="550"/>
      <point x="833" y="585"/>
      <point x="810" y="628" type="curve"/>
      <point x="932" y="628" type="line"/>
      <point x="964" y="732" type="line"/>
      <point x="766" y="732" type="line"/>
      <point x="726" y="635" type="line"/>
      <point x="733" y="596"/>
      <point x="768" y="543"/>
      <point x="802" y="514" type="curve"/>
      <point x="802" y="98" type="line"/>
      <point x="572" y="98" type="line"/>
      <point x="572" y="521" type="line"/>
      <point x="523" y="550"/>
      <point x="481" y="585"/>
      <point x="458" y="628" type="curve"/>
      <point x="580" y="628" type="line"/>
      <point x="612" y="732" type="line"/>
      <point x="414" y="732" type="line"/>
      <point x="374" y="635" type="line"/>
      <point x="381" y="596"/>
      <point x="416" y="543"/>
      <point x="450" y="514" type="curve"/>
      <point x="450" y="98" type="line"/>
      <point x="220" y="98" type="line"/>
      <point x="220" y="731" type="line"/>
      <point x="98" y="731" type="line"/>
      <point x="50" y="710"/>
      <point x="18" y="669"/>
      <point x="18" y="611" type="curve" smooth="yes"/>
      <point x="18" y="550"/>
      <point x="47" y="513"/>
      <point x="98" y="499" type="curve"/>
      <point x="98" y="49" type="line" smooth="yes"/>
      <point x="98" y="16"/>
      <point x="114" y="0"/>
    </contour>
    <contour>
      <point x="110" y="678" type="curve"/>
      <point x="110" y="549" type="line"/>
      <point x="85" y="556"/>
      <point x="72" y="578"/>
      <point x="72" y="610" type="curve" smooth="yes"/>
      <point x="72" y="639"/>
      <point x="85" y="664"/>
    </contour>
  </outline>
</glyph>
<glyph name="ngo-khmer" format="2">
  <advance width="684"/>
  <unicode hex="1784"/>
  <anchor x="342" y="0" name="bottom"/>
  <anchor x="586" y="0" name="bottomright"/>
  <anchor x="342" y="732" name="top"/>
  <anchor x="566" y="732" name="topright"/>
  <outline>
    <contour>
      <point x="98" y="0" type="line"/>
      <point x="220" y="0" type="line"/>
      <point x="342" y="132" type="line"/>
      <point x="464" y="0" type="line"/>
      <point x="586" y="0" type="line"/>
      <point x="586" y="484" type="line" smooth="yes"/>
      <point x="586" y="530"/>
      <point x="570" y="540"/>
      <point x="515" y="570" type="curve"/>
      <point x="515" y="574" type="line"/>
      <point x="566" y="625" type="line"/>
      <point x="566" y="732" type="line"/>
      <point x="430" y="732" type="line"/>
      <point x="430" y="633" type="line"/>
      <point x="271" y="633" type="line" smooth="yes"/>
      <point x="225" y="633"/>
      <point x="202" y="651"/>
      <point x="202" y="686" type="curve" smooth="yes"/>
      <point x="202" y="770" type="line"/>
      <point x="80" y="770" type="line"/>
      <point x="80" y="669" type="line" smooth="yes"/>
      <point x="80" y="579"/>
      <point x="141" y="535"/>
      <point x="264" y="535" type="curve" smooth="yes"/>
      <point x="443" y="535" type="line"/>
      <point x="455" y="527"/>
      <point x="464" y="518"/>
      <point x="464" y="491" type="curve" smooth="yes"/>
      <point x="464" y="132" type="line"/>
      <point x="353" y="252" type="line"/>
      <point x="331" y="252" type="line"/>
      <point x="220" y="132" type="line"/>
      <point x="220" y="419" type="line" smooth="yes"/>
      <point x="220" y="452"/>
      <point x="200" y="468"/>
      <point x="167" y="468" type="curve" smooth="yes"/>
      <point x="43" y="468" type="line"/>
      <point x="43" y="396" type="line"/>
      <point x="98" y="396" type="line"/>
    </contour>
  </outline>
</glyph>
<glyph name="co-khmer" format="2">
  <advance width="684"/>
  <unicode hex="1787"/>
  <note>
• Lift loop up and reduce Co-hair Depth
</note>
  <anchor x="342" y="732" name="top"/>
  <anchor x="586" y="732" name="topright"/>
  <anchor x="586" y="0" name="bottomright"/>
  <anchor x="342" y="0" name="bottom"/>
  <outline>
    <contour>
      <point x="98" y="0" type="line"/>
      <point x="220" y="0" type="line"/>
      <point x="342" y="132" type="line"/>
      <point x="464" y="0" type="line"/>
      <point x="586" y="0" type="line"/>
      <point x="586" y="513" type="line"/>
      <point x="464" y="513" type="line"/>
      <point x="464" y="132" type="line"/>
      <point x="353" y="252" type="line"/>
      <point x="331" y="252" type="line"/>
      <point x="220" y="132" type="line"/>
      <point x="220" y="520" type="line"/>
      <point x="164" y="551"/>
      <point x="134" y="586"/>
      <point x="127" y="628" type="curve"/>
      <point x="333" y="628" type="line"/>
      <point x="466" y="584" type="line"/>
      <point x="548" y="584" type="line" smooth="yes"/>
      <point x="573" y="584"/>
      <point x="586" y="599"/>
      <point x="586" y="628" type="curve" smooth="yes"/>
      <point x="586" y="770" type="line"/>
      <point x="466" y="770" type="line"/>
      <point x="466" y="684" type="line"/>
      <point x="327" y="732" type="line"/>
      <point x="97" y="732" type="line"/>
      <point x="47" y="636" type="line"/>
      <point x="50" y="592"/>
      <point x="69" y="549"/>
      <point x="98" y="514" type="curve"/>
    </contour>
  </outline>
</glyph>
<glyph name="cho-khmer" format="2">
  <advance width="1370"/>
  <unicode hex="1788"/>
  <anchor x="1036" y="732" name="top"/>
  <anchor x="1272" y="732" name="topright"/>
  <anchor x="1272" y="0" name="bottomright"/>
  <anchor x="1036" y="0" name="bottom"/>
  <outline>
    <contour>
      <point x="499" y="0" type="curve" smooth="yes"/>
      <point x="775" y="0" type="line" smooth="yes"/>
      <point x="807" y="0"/>
      <point x="833" y="12"/>
      <point x="859" y="53" type="curve"/>
      <point x="863" y="53" type="line"/>
      <point x="889" y="12"/>
      <point x="915" y="0"/>
      <point x="947" y="0" type="curve" smooth="yes"/>
      <point x="1223" y="0" type="line" smooth="yes"/>
      <point x="1256" y="0"/>
      <point x="1272" y="16"/>
      <point x="1272" y="49" type="curve" smooth="yes"/>
      <point x="1272" y="521" type="line"/>
      <point x="1223" y="550"/>
      <point x="1181" y="585"/>
      <point x="1158" y="628" type="curve"/>
      <point x="1280" y="628" type="line"/>
      <point x="1312" y="732" type="line"/>
      <point x="1114" y="732" type="line"/>
      <point x="1074" y="635" type="line"/>
      <point x="1081" y="596"/>
      <point x="1116" y="543"/>
      <point x="1150" y="514" type="curve"/>
      <point x="1150" y="98" type="line"/>
      <point x="922" y="98" type="line"/>
      <point x="922" y="521" type="line"/>
      <point x="873" y="550"/>
      <point x="831" y="585"/>
      <point x="808" y="628" type="curve"/>
      <point x="930" y="628" type="line"/>
      <point x="962" y="732" type="line"/>
      <point x="764" y="732" type="line"/>
      <point x="724" y="635" type="line"/>
      <point x="731" y="596"/>
      <point x="766" y="543"/>
      <point x="800" y="514" type="curve"/>
      <point x="800" y="98" type="line"/>
      <point x="572" y="98" type="line"/>
      <point x="572" y="684" type="line" smooth="yes"/>
      <point x="572" y="716"/>
      <point x="556" y="732"/>
      <point x="523" y="732" type="curve" smooth="yes"/>
      <point x="146" y="732" type="line" smooth="yes"/>
      <point x="114" y="732"/>
      <point x="98" y="716"/>
      <point x="98" y="684" type="curve" smooth="yes"/>
      <point x="98" y="0" type="line"/>
      <point x="218" y="0" type="line"/>
      <point x="281" y="19"/>
      <point x="317" y="67"/>
      <point x="317" y="134" type="curve" smooth="yes"/>
      <point x="317" y="194"/>
      <point x="283" y="236"/>
      <point x="220" y="244" type="curve"/>
      <point x="220" y="634" type="line"/>
      <point x="450" y="634" type="line"/>
      <point x="450" y="49" type="line" smooth="yes"/>
      <point x="450" y="16"/>
      <point x="466" y="0"/>
    </contour>
    <contour>
      <point x="218" y="53" type="curve"/>
      <point x="218" y="192" type="line"/>
      <point x="245" y="188"/>
      <point x="261" y="167"/>
      <point x="261" y="132" type="curve" smooth="yes"/>
      <point x="261" y="94"/>
      <point x="244" y="67"/>
    </contour>
  </outline>
</glyph>
<glyph name="nyo-khmer" format="2">
  <advance width="1024"/>
  <unicode hex="1789"/>
  <anchor x="688" y="-331" name="bottom"/>
  <anchor x="916" y="-331" name="bottomright"/>
  <anchor x="688" y="732" name="top"/>
  <anchor x="924" y="732" name="topright"/>
  <outline>
    <contour>
      <point x="759" y="-340" type="curve" smooth="yes"/>
      <point x="864" y="-340"/>
      <point x="926" y="-291"/>
      <point x="926" y="-183" type="curve" smooth="yes"/>
      <point x="926" y="-49" type="line"/>
      <point x="708" y="-49" type="line"/>
      <point x="708" y="-129" type="line"/>
      <point x="804" y="-129" type="line"/>
      <point x="804" y="-183" type="line" smooth="yes"/>
      <point x="804" y="-222"/>
      <point x="789" y="-238"/>
      <point x="749" y="-238" type="curve" smooth="yes"/>
      <point x="649" y="-238"/>
      <point x="556" y="-140"/>
      <point x="362" y="-140" type="curve" smooth="yes"/>
      <point x="121" y="-140" type="line"/>
      <point x="101" y="-242" type="line"/>
      <point x="366" y="-242" type="line" smooth="yes"/>
      <point x="565" y="-242"/>
      <point x="593" y="-340"/>
    </contour>
    <component base="nyo-khmer.less"/>
  </outline>
</glyph>
<glyph name="da-khmer" format="2">
  <advance width="684"/>
  <unicode hex="178A"/>
  <note>
Optical reduce ដ bar weight to slightly thinner
</note>
  <anchor x="342" y="0" name="bottom"/>
  <anchor x="586" y="0" name="bottomright"/>
  <anchor x="342" y="732" name="top"/>
  <anchor x="586" y="732" name="topright"/>
  <outline>
    <contour>
      <point x="98" y="0" type="line"/>
      <point x="220" y="0" type="line"/>
      <point x="342" y="132" type="line"/>
      <point x="464" y="0" type="line"/>
      <point x="586" y="0" type="line"/>
      <point x="586" y="434" type="line"/>
      <point x="464" y="434" type="line"/>
      <point x="464" y="132" type="line"/>
      <point x="353" y="252" type="line"/>
      <point x="331" y="252" type="line"/>
      <point x="220" y="132" type="line"/>
      <point x="220" y="434" type="line"/>
      <point x="98" y="434" type="line"/>
    </contour>
    <contour>
      <point x="171" y="504" type="curve" smooth="yes"/>
      <point x="445" y="504" type="line" smooth="yes"/>
      <point x="540" y="504"/>
      <point x="587" y="548"/>
      <point x="587" y="638" type="curve" smooth="yes"/>
      <point x="587" y="771" type="line"/>
      <point x="465" y="771" type="line"/>
      <point x="465" y="637" type="line" smooth="yes"/>
      <point x="465" y="607"/>
      <point x="448" y="592"/>
      <point x="415" y="592" type="curve" smooth="yes"/>
      <point x="216" y="592" type="line"/>
      <point x="216" y="660" type="line"/>
      <point x="277" y="660" type="line"/>
      <point x="277" y="732" type="line"/>
      <point x="139" y="732" type="line" smooth="yes"/>
      <point x="112" y="732"/>
      <point x="98" y="718"/>
      <point x="98" y="691" type="curve" smooth="yes"/>
      <point x="98" y="563" type="line" smooth="yes"/>
      <point x="98" y="524"/>
      <point x="122" y="504"/>
    </contour>
  </outline>
</glyph>
<glyph name="do-khmer" format="2">
  <advance width="684"/>
  <unicode hex="178C"/>
  <anchor x="342" y="732" name="top"/>
  <anchor x="586" y="732" name="topright"/>
  <anchor x="586" y="0" name="bottomright"/>
  <anchor x="342" y="0" name="bottom"/>
  <outline>
    <contour>
      <point x="146" y="0" type="curve" smooth="yes"/>
      <point x="220" y="0" type="line"/>
      <point x="478" y="127" type="line"/>
      <point x="478" y="224" type="line"/>
      <point x="220" y="95" type="line"/>
      <point x="220" y="266" type="line"/>
      <point x="507" y="365" type="line" smooth="yes"/>
      <point x="564" y="385"/>
      <point x="586" y="430"/>
      <point x="586" y="493" type="curve" smooth="yes"/>
      <point x="586" y="684" type="line" smooth="yes"/>
      <point x="586" y="716"/>
      <point x="570" y="732"/>
      <point x="537" y="732" type="curve" smooth="yes"/>
      <point x="463" y="732" type="line"/>
      <point x="341" y="662" type="line"/>
      <point x="220" y="732" type="line"/>
      <point x="146" y="732" type="line" smooth="yes"/>
      <point x="114" y="732"/>
      <point x="98" y="716"/>
      <point x="98" y="684" type="curve" smooth="yes"/>
      <point x="98" y="509" type="line" smooth="yes"/>
      <point x="98" y="474"/>
      <point x="124" y="448"/>
      <point x="159" y="448" type="curve" smooth="yes"/>
      <point x="290" y="448" type="line"/>
      <point x="290" y="520" type="line"/>
      <point x="220" y="520" type="line"/>
      <point x="220" y="632" type="line"/>
      <point x="341" y="568" type="line"/>
      <point x="464" y="632" type="line"/>
      <point x="464" y="489" type="line" smooth="yes"/>
      <point x="464" y="459"/>
      <point x="449" y="440"/>
      <point x="419" y="429" type="curve" smooth="yes"/>
      <point x="98" y="315" type="line"/>
      <point x="98" y="49" type="line" smooth="yes"/>
      <point x="98" y="16"/>
      <point x="114" y="0"/>
    </contour>
    <contour>
      <point x="466" y="0" type="line"/>
      <point x="586" y="0" type="line"/>
      <point x="586" y="287" type="line"/>
      <point x="466" y="287" type="line"/>
    </contour>
  </outline>
</glyph>
<glyph name="ttho-khmer" format="2">
  <advance width="1024"/>
  <unicode hex="178D"/>
  <anchor x="688" y="0" name="bottom"/>
  <anchor x="924" y="0" name="bottomright"/>
  <anchor x="688" y="732" name="top"/>
  <anchor x="924" y="732" name="topright"/>
  <outline>
    <contour>
      <point x="441" y="0" type="curve"/>
      <point x="576" y="0" type="line"/>
      <point x="576" y="684" type="line" smooth="yes"/>
      <point x="576" y="716"/>
      <point x="560" y="732"/>
      <point x="527" y="732" type="curve" smooth="yes"/>
      <point x="421" y="732" type="line"/>
      <point x="327" y="667" type="line"/>
      <point x="234" y="732" type="line"/>
      <point x="103" y="732" type="line"/>
      <point x="53" y="635" type="line"/>
      <point x="58" y="584"/>
      <point x="72" y="550"/>
      <point x="98" y="513" type="curve"/>
      <point x="98" y="0" type="line"/>
      <point x="218" y="0" type="line"/>
      <point x="281" y="19"/>
      <point x="317" y="67"/>
      <point x="317" y="134" type="curve" smooth="yes"/>
      <point x="317" y="194"/>
      <point x="283" y="236"/>
      <point x="220" y="244" type="curve"/>
      <point x="220" y="523" type="line"/>
      <point x="174" y="553"/>
      <point x="147" y="587"/>
      <point x="137" y="628" type="curve"/>
      <point x="234" y="628" type="line"/>
      <point x="327" y="574" type="line"/>
      <point x="421" y="628" type="line"/>
      <point x="454" y="628" type="line"/>
      <point x="454" y="242" type="line"/>
      <point x="395" y="235"/>
      <point x="366" y="192"/>
      <point x="366" y="136" type="curve" smooth="yes"/>
      <point x="366" y="80"/>
      <point x="390" y="36"/>
    </contour>
    <contour>
      <point x="218" y="53" type="curve"/>
      <point x="218" y="192" type="line"/>
      <point x="245" y="188"/>
      <point x="261" y="167"/>
      <point x="261" y="132" type="curve" smooth="yes"/>
      <point x="261" y="94"/>
      <point x="244" y="67"/>
    </contour>
    <contour>
      <point x="459" y="188" type="curve"/>
      <point x="459" y="53" type="line"/>
      <point x="434" y="75"/>
      <point x="423" y="103"/>
      <point x="423" y="136" type="curve" smooth="yes"/>
      <point x="423" y="167"/>
      <point x="437" y="186"/>
    </contour>
    <contour>
      <point x="804" y="-1" type="line"/>
      <point x="926" y="-1" type="line"/>
      <point x="926" y="520" type="line"/>
      <point x="877" y="549"/>
      <point x="835" y="584"/>
      <point x="812" y="627" type="curve"/>
      <point x="934" y="627" type="line"/>
      <point x="966" y="731" type="line"/>
      <point x="768" y="731" type="line"/>
      <point x="728" y="634" type="line"/>
      <point x="735" y="595"/>
      <point x="770" y="542"/>
      <point x="804" y="513" type="curve"/>
      <point x="804" y="98" type="line"/>
      <point x="536" y="233" type="line"/>
      <point x="536" y="133" type="line"/>
    </contour>
  </outline>
</glyph>
<glyph name="nno-khmer" format="2">
	<advance width="1372"/>
	<unicode hex="178E"/>
	<anchor x="686" y="732" name="top"/>
	<anchor x="1275" y="732" name="topright"/>
	<anchor x="922" y="0" name="bottomright"/>
	<anchor x="686" y="0" name="bottom"/>
	<outline>
		<contour>
			<point x="450" y="0" type="line"/>
			<point x="572" y="0" type="line"/>
			<point x="686" y="123" type="line"/>
			<point x="800" y="0" type="line"/>
			<point x="922" y="0" type="line"/>
			<point x="922" y="634" type="line"/>
			<point x="1152" y="634" type="line"/>
			<point x="1152" y="0" type="line"/>
			<point x="1274" y="0" type="line"/>
			<point x="1274" y="684" type="line" smooth="yes"/>
			<point x="1274" y="716"/>
			<point x="1258" y="732"/>
			<point x="1226" y="732" type="curve" smooth="yes"/>
			<point x="848" y="732" type="line" smooth="yes"/>
			<point x="816" y="732"/>
			<point x="800" y="716"/>
			<point x="800" y="684" type="curve" smooth="yes"/>
			<point x="800" y="134" type="line"/>
			<point x="697" y="245" type="line"/>
			<point x="675" y="245" type="line"/>
			<point x="572" y="134" type="line"/>
			<point x="572" y="684" type="line" smooth="yes"/>
			<point x="572" y="716"/>
			<point x="556" y="732"/>
			<point x="524" y="732" type="curve" smooth="yes"/>
			<point x="146" y="732" type="line" smooth="yes"/>
			<point x="114" y="732"/>
			<point x="98" y="716"/>
			<point x="98" y="684" type="curve" smooth="yes"/>
			<point x="98" y="0" type="line"/>
			<point x="218" y="0" type="line"/>
			<point x="281" y="19"/>
			<point x="317" y="67"/>
			<point x="317" y="134" type="curve" smooth="yes"/>
			<point x="317" y="194"/>
			<point x="283" y="236"/>
			<point x="220" y="244" type="curve"/>
			<point x="220" y="634" type="line"/>
			<point x="450" y="634" type="line"/>
		</contour>
		<contour>
			<point x="218" y="53" type="curve"/>
			<point x="218" y="192" type="line"/>
			<point x="245" y="188"/>
			<point x="261" y="167"/>
			<point x="261" y="132" type="curve" smooth="yes"/>
			<point x="261" y="94"/>
			<point x="244" y="67"/>
		</contour>
	</outline>
</glyph>
<glyph name="ta-khmer" format="2">
	<advance width="684"/>
	<unicode hex="178F"/>
	<anchor x="342" y="732" name="top"/>
	<anchor x="586" y="732" name="topright"/>
	<anchor x="586" y="0" name="bottomright"/>
	<anchor x="342" y="0" name="bottom"/>
	<outline>
		<contour>
			<point x="464" y="0" type="line"/>
			<point x="586" y="0" type="line"/>
			<point x="586" y="464" type="line" smooth="yes"/>
			<point x="586" y="497"/>
			<point x="570" y="513"/>
			<point x="537" y="513" type="curve" smooth="yes"/>
			<point x="146" y="513" type="line" smooth="yes"/>
			<point x="114" y="513"/>
			<point x="98" y="497"/>
			<point x="98" y="464" type="curve" smooth="yes"/>
			<point x="98" y="0" type="line"/>
			<point x="218" y="0" type="line"/>
			<point x="281" y="19"/>
			<point x="317" y="67"/>
			<point x="317" y="134" type="curve" smooth="yes"/>
			<point x="317" y="194"/>
			<point x="283" y="236"/>
			<point x="220" y="244" type="curve"/>
			<point x="220" y="415" type="line"/>
			<point x="464" y="415" type="line"/>
		</contour>
		<contour>
			<point x="218" y="53" type="curve"/>
			<point x="218" y="192" type="line"/>
			<point x="245" y="188"/>
			<point x="261" y="167"/>
			<point x="261" y="132" type="curve" smooth="yes"/>
			<point x="261" y="94"/>
			<point x="244" y="67"/>
		</contour>
		<component base="_part.kaHair-khmer"/>
	</outline>
</glyph>
<glyph name="tha-khmer" format="2">
	<advance width="684"/>
	<unicode hex="1790"/>
	<anchor x="342" y="732" name="top"/>
	<anchor x="586" y="732" name="topright"/>
	<anchor x="586" y="0" name="bottomright"/>
	<anchor x="342" y="0" name="bottom"/>
	<note>
		• Lift loop up and reduce Co-hair Depth
	</note>
	<outline>
		<contour>
			<point x="146" y="0" type="curve" smooth="yes"/>
			<point x="537" y="0" type="line" smooth="yes"/>
			<point x="570" y="0"/>
			<point x="586" y="16"/>
			<point x="586" y="49" type="curve" smooth="yes"/>
			<point x="586" y="513" type="line"/>
			<point x="466" y="513" type="line"/>
			<point x="403" y="494"/>
			<point x="367" y="446"/>
			<point x="367" y="379" type="curve" smooth="yes"/>
			<point x="367" y="319"/>
			<point x="401" y="277"/>
			<point x="464" y="269" type="curve"/>
			<point x="464" y="98" type="line"/>
			<point x="220" y="98" type="line"/>
			<point x="220" y="520" type="line"/>
			<point x="164" y="551"/>
			<point x="134" y="586"/>
			<point x="127" y="628" type="curve"/>
			<point x="333" y="628" type="line"/>
			<point x="466" y="584" type="line"/>
			<point x="548" y="584" type="line" smooth="yes"/>
			<point x="573" y="584"/>
			<point x="586" y="599"/>
			<point x="586" y="628" type="curve" smooth="yes"/>
			<point x="586" y="770" type="line"/>
			<point x="466" y="770" type="line"/>
			<point x="466" y="684" type="line"/>
			<point x="327" y="732" type="line"/>
			<point x="97" y="732" type="line"/>
			<point x="47" y="636" type="line"/>
			<point x="50" y="592"/>
			<point x="69" y="549"/>
			<point x="98" y="514" type="curve"/>
			<point x="98" y="49" type="line" smooth="yes"/>
			<point x="98" y="16"/>
			<point x="114" y="0"/>
		</contour>
		<contour>
			<point x="466" y="460" type="curve"/>
			<point x="466" y="321" type="line"/>
			<point x="439" y="325"/>
			<point x="423" y="346"/>
			<point x="423" y="381" type="curve" smooth="yes"/>
			<point x="423" y="419"/>
			<point x="440" y="446"/>
		</contour>
	</outline>
</glyph>
<glyph name="to-khmer" format="2">
  <advance width="658"/>
  <unicode hex="1791"/>
  <anchor x="327" y="732" name="top"/>
  <anchor x="571" y="732" name="topright"/>
  <anchor x="560" y="0" name="bottomright"/>
  <anchor x="339" y="0" name="bottom"/>
  <outline>
    <contour>
      <point x="160" y="0" type="curve" smooth="yes"/>
      <point x="505" y="0" type="line" smooth="yes"/>
      <point x="538" y="0"/>
      <point x="554" y="16"/>
      <point x="554" y="49" type="curve" smooth="yes"/>
      <point x="554" y="223" type="line" smooth="yes"/>
      <point x="554" y="266"/>
      <point x="547" y="278"/>
      <point x="509" y="303" type="curve"/>
      <point x="509" y="307" type="line"/>
      <point x="568" y="342" type="line"/>
      <point x="568" y="425" type="line"/>
      <point x="448" y="425" type="line"/>
      <point x="448" y="365" type="line"/>
      <point x="287" y="365" type="line" smooth="yes"/>
      <point x="235" y="365"/>
      <point x="205" y="389"/>
      <point x="205" y="431" type="curve" smooth="yes"/>
      <point x="205" y="634" type="line"/>
      <point x="449" y="634" type="line"/>
      <point x="449" y="555" type="line"/>
      <point x="390" y="555" type="line"/>
      <point x="390" y="483" type="line"/>
      <point x="521" y="483" type="line" smooth="yes"/>
      <point x="548" y="483"/>
      <point x="571" y="506"/>
      <point x="571" y="533" type="curve" smooth="yes"/>
      <point x="571" y="684" type="line" smooth="yes"/>
      <point x="571" y="715"/>
      <point x="553" y="732"/>
      <point x="521" y="732" type="curve" smooth="yes"/>
      <point x="131" y="732" type="line" smooth="yes"/>
      <point x="100" y="732"/>
      <point x="83" y="715"/>
      <point x="83" y="684" type="curve" smooth="yes"/>
      <point x="83" y="424" type="line" smooth="yes"/>
      <point x="83" y="329"/>
      <point x="147" y="279"/>
      <point x="264" y="279" type="curve" smooth="yes"/>
      <point x="420" y="279" type="line"/>
      <point x="429" y="271"/>
      <point x="434" y="262"/>
      <point x="434" y="235" type="curve" smooth="yes"/>
      <point x="434" y="98" type="line"/>
      <point x="232" y="98" type="line"/>
      <point x="232" y="219" type="line"/>
      <point x="112" y="219" type="line"/>
      <point x="112" y="49" type="line" smooth="yes"/>
      <point x="112" y="16"/>
      <point x="128" y="0"/>
    </contour>
  </outline>
</glyph>
<glyph name="no-khmer" format="2">
	<advance width="688"/>
	<unicode hex="1793"/>
	<anchor x="344" y="732" name="top"/>
	<anchor x="590" y="732" name="topright"/>
	<anchor x="590" y="0" name="bottomright"/>
	<anchor x="344" y="0" name="bottom"/>
	<note>
		increae mid bar weight to ន ខ ឧ and its seriees
	</note>
	<outline>
		<contour>
			<point x="468" y="0" type="line"/>
			<point x="540" y="0" type="line" smooth="yes"/>
			<point x="572" y="0"/>
			<point x="590" y="17"/>
			<point x="590" y="48" type="curve" smooth="yes"/>
			<point x="590" y="334" type="line"/>
			<point x="253" y="438" type="line" smooth="yes"/>
			<point x="230" y="445"/>
			<point x="220" y="459"/>
			<point x="220" y="485" type="curve" smooth="yes"/>
			<point x="220" y="634" type="line"/>
			<point x="467" y="634" type="line"/>
			<point x="467" y="520" type="line"/>
			<point x="397" y="520" type="line"/>
			<point x="397" y="448" type="line"/>
			<point x="528" y="448" type="line" smooth="yes"/>
			<point x="563" y="448"/>
			<point x="589" y="474"/>
			<point x="589" y="509" type="curve" smooth="yes"/>
			<point x="589" y="684" type="line" smooth="yes"/>
			<point x="589" y="715"/>
			<point x="571" y="732"/>
			<point x="539" y="732" type="curve" smooth="yes"/>
			<point x="148" y="732" type="line" smooth="yes"/>
			<point x="116" y="732"/>
			<point x="98" y="715"/>
			<point x="98" y="684" type="curve" smooth="yes"/>
			<point x="98" y="473" type="line" smooth="yes"/>
			<point x="98" y="417"/>
			<point x="121" y="385"/>
			<point x="176" y="368" type="curve" smooth="yes"/>
			<point x="468" y="278" type="line"/>
			<point x="468" y="96" type="line"/>
			<point x="205" y="212" type="line"/>
			<point x="205" y="115" type="line"/>
		</contour>
		<contour>
			<point x="98" y="0" type="line"/>
			<point x="218" y="0" type="line"/>
			<point x="218" y="282" type="line"/>
			<point x="98" y="282" type="line"/>
		</contour>
	</outline>
</glyph>
<glyph name="pho-khmer" format="2">
	<advance width="684"/>
	<unicode hex="1797"/>
	<anchor x="342" y="732" name="top"/>
	<anchor x="586" y="732" name="topright"/>
	<anchor x="586" y="0" name="bottomright"/>
	<anchor x="342" y="0" name="bottom"/>
	<outline>
		<contour>
			<point x="102" y="0" type="curve"/>
			<point x="220" y="0" type="line"/>
			<point x="220" y="415" type="line"/>
			<point x="464" y="415" type="line"/>
			<point x="464" y="0" type="line"/>
			<point x="586" y="0" type="line"/>
			<point x="586" y="464" type="line" smooth="yes"/>
			<point x="586" y="497"/>
			<point x="570" y="513"/>
			<point x="537" y="513" type="curve" smooth="yes"/>
			<point x="146" y="513" type="line" smooth="yes"/>
			<point x="114" y="513"/>
			<point x="98" y="497"/>
			<point x="98" y="464" type="curve" smooth="yes"/>
			<point x="98" y="242" type="line"/>
			<point x="47" y="232"/>
			<point x="15" y="193"/>
			<point x="15" y="130" type="curve" smooth="yes"/>
			<point x="15" y="67"/>
			<point x="47" y="20"/>
		</contour>
		<contour>
			<point x="110" y="190" type="curve"/>
			<point x="110" y="53" type="line"/>
			<point x="86" y="68"/>
			<point x="71" y="96"/>
			<point x="71" y="129" type="curve" smooth="yes"/>
			<point x="71" y="165"/>
			<point x="85" y="183"/>
		</contour>
		<component base="_part.kaHair-khmer"/>
	</outline>
</glyph>
<glyph name="yo-khmer" format="2">
	<advance width="1023"/>
	<unicode hex="1799"/>
	<anchor x="688" y="732" name="top"/>
	<anchor x="924" y="732" name="topright"/>
	<anchor x="924" y="0" name="bottomright"/>
	<anchor x="688" y="0" name="bottom"/>
	<outline>
		<contour>
			<point x="146" y="0" type="curve" smooth="yes"/>
			<point x="426" y="0" type="line" smooth="yes"/>
			<point x="458" y="0"/>
			<point x="484" y="12"/>
			<point x="510" y="53" type="curve"/>
			<point x="514" y="53" type="line"/>
			<point x="540" y="12"/>
			<point x="566" y="0"/>
			<point x="598" y="0" type="curve" smooth="yes"/>
			<point x="876" y="0" type="line" smooth="yes"/>
			<point x="909" y="0"/>
			<point x="925" y="16"/>
			<point x="925" y="49" type="curve" smooth="yes"/>
			<point x="925" y="521" type="line"/>
			<point x="876" y="550"/>
			<point x="834" y="585"/>
			<point x="811" y="628" type="curve"/>
			<point x="933" y="628" type="line"/>
			<point x="965" y="732" type="line"/>
			<point x="767" y="732" type="line"/>
			<point x="727" y="635" type="line"/>
			<point x="734" y="596"/>
			<point x="769" y="543"/>
			<point x="803" y="514" type="curve"/>
			<point x="803" y="98" type="line"/>
			<point x="573" y="98" type="line"/>
			<point x="573" y="521" type="line"/>
			<point x="524" y="550"/>
			<point x="482" y="585"/>
			<point x="459" y="628" type="curve"/>
			<point x="581" y="628" type="line"/>
			<point x="613" y="732" type="line"/>
			<point x="415" y="732" type="line"/>
			<point x="375" y="635" type="line"/>
			<point x="382" y="596"/>
			<point x="417" y="543"/>
			<point x="451" y="514" type="curve"/>
			<point x="451" y="430" type="line"/>
			<point x="450" y="98" type="line"/>
			<point x="220" y="98" type="line"/>
			<point x="220" y="499" type="line"/>
			<point x="271" y="513"/>
			<point x="300" y="550"/>
			<point x="300" y="611" type="curve" smooth="yes"/>
			<point x="300" y="669"/>
			<point x="268" y="710"/>
			<point x="220" y="731" type="curve"/>
			<point x="98" y="731" type="line"/>
			<point x="98" y="49" type="line" smooth="yes"/>
			<point x="98" y="16"/>
			<point x="114" y="0"/>
		</contour>
		<contour>
			<point x="208" y="549" type="curve"/>
			<point x="208" y="678" type="line"/>
			<point x="233" y="664"/>
			<point x="246" y="639"/>
			<point x="246" y="610" type="curve" smooth="yes"/>
			<point x="246" y="578"/>
			<point x="233" y="556"/>
		</contour>
	</outline>
</glyph>
<glyph name="ro-khmer" format="2">
  <advance width="344"/>
  <unicode hex="179A"/>
  <anchor x="171" y="732" name="top"/>
  <anchor x="246" y="732" name="topright"/>
  <anchor x="246" y="0" name="bottomright"/>
  <anchor x="172" y="0" name="bottom"/>
  <outline>
    <contour>
      <point x="127" y="0" type="curve"/>
      <point x="246" y="0" type="line"/>
      <point x="246" y="521" type="line"/>
      <point x="187" y="550"/>
      <point x="144" y="585"/>
      <point x="121" y="628" type="curve"/>
      <point x="254" y="628" type="line"/>
      <point x="286" y="732" type="line"/>
      <point x="77" y="732" type="line"/>
      <point x="37" y="635" type="line"/>
      <point x="44" y="596"/>
      <point x="82" y="544"/>
      <point x="124" y="514" type="curve"/>
      <point x="124" y="246" type="line"/>
      <point x="61" y="238"/>
      <point x="26" y="195"/>
      <point x="26" y="130" type="curve" smooth="yes"/>
      <point x="26" y="65"/>
      <point x="64" y="20"/>
    </contour>
    <contour>
      <point x="130" y="194" type="curve"/>
      <point x="130" y="54" type="line"/>
      <point x="99" y="70"/>
      <point x="82" y="97"/>
      <point x="82" y="131" type="curve" smooth="yes"/>
      <point x="82" y="168"/>
      <point x="101" y="190"/>
    </contour>
  </outline>
</glyph>
<glyph name="vo-khmer" format="2">
	<advance width="344"/>
	<unicode hex="179C"/>
	<anchor x="172" y="732" name="top"/>
	<anchor x="246" y="732" name="topright"/>
	<anchor x="227" y="0" name="bottomright"/>
	<anchor x="153" y="0" name="bottom"/>
	<outline>
		<contour>
			<point x="125" y="0" type="curve"/>
			<point x="246" y="0" type="line"/>
			<point x="246" y="527" type="line"/>
			<point x="188" y="551"/>
			<point x="132" y="595"/>
			<point x="114" y="642" type="curve"/>
			<point x="198" y="628" type="line"/>
			<point x="239" y="628" type="line" smooth="yes"/>
			<point x="269" y="628"/>
			<point x="286" y="647"/>
			<point x="286" y="683" type="curve" smooth="yes"/>
			<point x="286" y="770" type="line"/>
			<point x="168" y="770" type="line"/>
			<point x="168" y="720" type="line"/>
			<point x="109" y="732" type="line"/>
			<point x="95" y="732" type="line"/>
			<point x="31" y="645" type="line"/>
			<point x="40" y="596"/>
			<point x="80" y="543"/>
			<point x="124" y="511" type="curve"/>
			<point x="124" y="244" type="line"/>
			<point x="61" y="236"/>
			<point x="26" y="194"/>
			<point x="26" y="132" type="curve" smooth="yes"/>
			<point x="26" y="67"/>
			<point x="66" y="19"/>
		</contour>
		<contour>
			<point x="130" y="192" type="curve"/>
			<point x="130" y="53" type="line"/>
			<point x="103" y="67"/>
			<point x="82" y="94"/>
			<point x="82" y="128" type="curve" smooth="yes"/>
			<point x="82" y="167"/>
			<point x="101" y="188"/>
		</contour>
	</outline>
</glyph>
<glyph name="sha-khmer" format="2">
  <advance width="684"/>
  <unicode hex="179D"/>
  <anchor x="342" y="732" name="top"/>
  <anchor x="586" y="732" name="topright"/>
  <anchor x="586" y="0" name="bottomright"/>
  <anchor x="342" y="0" name="bottom"/>
  <outline>
    <contour>
      <point x="98" y="464" type="curve" smooth="yes"/>
      <point x="98" y="0" type="line"/>
      <point x="218" y="0" type="line"/>
      <point x="218" y="82" type="line" smooth="yes"/>
      <point x="218" y="138"/>
      <point x="245" y="166"/>
      <point x="296" y="166" type="curve" smooth="yes"/>
      <point x="355" y="166" type="line"/>
      <point x="355" y="260" type="line"/>
      <point x="323" y="260" type="line" smooth="yes"/>
      <point x="270" y="260"/>
      <point x="239" y="238"/>
      <point x="224" y="195" type="curve"/>
      <point x="220" y="195" type="line"/>
      <point x="220" y="415" type="line"/>
      <point x="464" y="415" type="line"/>
      <point x="464" y="0" type="line"/>
      <point x="586" y="0" type="line"/>
      <point x="586" y="464" type="line" smooth="yes"/>
      <point x="586" y="497"/>
      <point x="570" y="513"/>
      <point x="537" y="513" type="curve" smooth="yes"/>
      <point x="146" y="513" type="line" smooth="yes"/>
      <point x="114" y="513"/>
      <point x="98" y="497"/>
    </contour>
    <contour>
      <point x="401" y="166" type="line"/>
      <point x="659" y="166" type="line"/>
      <point x="659" y="258" type="line"/>
      <point x="401" y="258" type="line"/>
    </contour>
    <component base="_part.kaHair-khmer"/>
  </outline>
</glyph>
<glyph name="sso-khmer" format="2">
  <advance width="684"/>
  <unicode hex="179E"/>
  <anchor x="342" y="0" name="bottom"/>
  <anchor x="586" y="0" name="bottomright"/>
  <anchor x="342" y="732" name="top"/>
  <anchor x="586" y="732" name="topright"/>
  <outline>
    <contour>
      <point x="353" y="370" type="line"/>
      <point x="353" y="278" type="line"/>
      <point x="670" y="278" type="line"/>
      <point x="670" y="370" type="line"/>
    </contour>
    <component base="ba-khmer"/>
  </outline>
</glyph>
<glyph name="ha-khmer" format="2">
  <advance width="1024"/>
  <unicode hex="17A0"/>
  <anchor x="687" y="0" name="bottom"/>
  <anchor x="923" y="0" name="bottomright"/>
  <anchor x="687" y="732" name="top"/>
  <anchor x="923" y="732" name="topright"/>
  <outline>
    <contour>
      <point x="146" y="0" type="curve" smooth="yes"/>
      <point x="523" y="0" type="line" smooth="yes"/>
      <point x="556" y="0"/>
      <point x="572" y="16"/>
      <point x="572" y="49" type="curve" smooth="yes"/>
      <point x="572" y="634" type="line"/>
      <point x="804" y="634" type="line"/>
      <point x="804" y="0" type="line"/>
      <point x="926" y="0" type="line"/>
      <point x="926" y="684" type="line" smooth="yes"/>
      <point x="926" y="716"/>
      <point x="910" y="732"/>
      <point x="877" y="732" type="curve" smooth="yes"/>
      <point x="499" y="732" type="line" smooth="yes"/>
      <point x="466" y="732"/>
      <point x="450" y="716"/>
      <point x="450" y="684" type="curve" smooth="yes"/>
      <point x="450" y="98" type="line"/>
      <point x="220" y="98" type="line"/>
      <point x="220" y="521" type="line"/>
      <point x="171" y="550"/>
      <point x="129" y="585"/>
      <point x="106" y="628" type="curve"/>
      <point x="228" y="628" type="line"/>
      <point x="260" y="732" type="line"/>
      <point x="62" y="732" type="line"/>
      <point x="22" y="635" type="line"/>
      <point x="29" y="596"/>
      <point x="64" y="543"/>
      <point x="98" y="514" type="curve"/>
      <point x="98" y="49" type="line" smooth="yes"/>
      <point x="98" y="16"/>
      <point x="114" y="0"/>
    </contour>
  </outline>
</glyph>
<glyph name="la-khmer" format="2">
	<advance width="978"/>
	<unicode hex="17A1"/>
	<anchor x="664" y="732" name="top"/>
	<anchor x="880" y="732" name="topright"/>
	<anchor x="880" y="-330" name="bottomright"/>
	<anchor x="650" y="-330" name="bottom"/>
	<outline>
		<contour>
			<point x="422" y="-330" type="line"/>
			<point x="542" y="-330" type="line"/>
			<point x="650" y="-224" type="line"/>
			<point x="758" y="-330" type="line"/>
			<point x="880" y="-330" type="line"/>
			<point x="880" y="521" type="line"/>
			<point x="831" y="550"/>
			<point x="789" y="585"/>
			<point x="766" y="628" type="curve"/>
			<point x="888" y="628" type="line"/>
			<point x="920" y="732" type="line"/>
			<point x="722" y="732" type="line"/>
			<point x="682" y="635" type="line"/>
			<point x="689" y="596"/>
			<point x="724" y="543"/>
			<point x="758" y="514" type="curve"/>
			<point x="758" y="-207" type="line"/>
			<point x="660" y="-114" type="line"/>
			<point x="640" y="-114" type="line"/>
			<point x="542" y="-207" type="line"/>
			<point x="542" y="-49" type="line"/>
			<point x="364" y="-49" type="line"/>
			<point x="364" y="-121" type="line"/>
			<point x="422" y="-121" type="line"/>
		</contour>
		<component base="to-khmer"/>
	</outline>
</glyph>
<glyph name="qa-khmer" format="2">
  <advance width="709"/>
  <unicode hex="17A2"/>
  <anchor x="355" y="732" name="top"/>
  <anchor x="611" y="732" name="topright"/>
  <anchor x="611" y="0" name="bottomright"/>
  <anchor x="355" y="0" name="bottom"/>
  <outline>
    <contour>
      <point x="155" y="318" type="line"/>
      <point x="548" y="318" type="line"/>
      <point x="548" y="410" type="line"/>
      <point x="155" y="410" type="line"/>
    </contour>
    <component base="ro-khmer" xOffset="-1"/>
    <component base="ro-khmer" xOffset="365"/>
  </outline>
</glyph>
<glyph name="qi-khmer" format="2">
	<advance width="684"/>
	<unicode hex="17A5"/>
	<outline>
		<contour>
			<point x="464" y="0" type="line"/>
			<point x="586" y="0" type="line"/>
			<point x="586" y="464" type="line" smooth="yes"/>
			<point x="586" y="497"/>
			<point x="570" y="513"/>
			<point x="537" y="513" type="curve" smooth="yes"/>
			<point x="146" y="513" type="line" smooth="yes"/>
			<point x="114" y="513"/>
			<point x="98" y="497"/>
			<point x="98" y="464" type="curve" smooth="yes"/>
			<point x="98" y="0" type="line"/>
			<point x="218" y="0" type="line"/>
			<point x="281" y="19"/>
			<point x="317" y="67"/>
			<point x="317" y="134" type="curve" smooth="yes"/>
			<point x="317" y="194"/>
			<point x="283" y="236"/>
			<point x="220" y="244" type="curve"/>
			<point x="220" y="415" type="line"/>
			<point x="464" y="415" type="line"/>
		</contour>
		<contour>
			<point x="218" y="53" type="curve"/>
			<point x="218" y="192" type="line"/>
			<point x="245" y="188"/>
			<point x="261" y="167"/>
			<point x="261" y="132" type="curve" smooth="yes"/>
			<point x="261" y="94"/>
			<point x="244" y="67"/>
		</contour>
		<contour>
			<point x="122" y="527" type="curve"/>
			<point x="189" y="548" type="line"/>
			<point x="164" y="574"/>
			<point x="153" y="597"/>
			<point x="149" y="628" type="curve"/>
			<point x="333" y="628" type="line"/>
			<point x="466" y="584" type="line"/>
			<point x="548" y="584" type="line" smooth="yes"/>
			<point x="573" y="584"/>
			<point x="586" y="599"/>
			<point x="586" y="628" type="curve" smooth="yes"/>
			<point x="586" y="770" type="line"/>
			<point x="466" y="770" type="line"/>
			<point x="466" y="684" type="line"/>
			<point x="327" y="732" type="line"/>
			<point x="123" y="732" type="line"/>
			<point x="73" y="636" type="line"/>
			<point x="73" y="595"/>
			<point x="84" y="559"/>
		</contour>
	</outline>
</glyph>
<glyph name="qii-khmer" format="2">
  <advance width="1001"/>
  <unicode hex="17A6"/>
  <note>
Reduce depth of ie-head and chagne below loop
</note>
  <outline>
    <contour>
      <point x="498" y="-342" type="curve" smooth="yes"/>
      <point x="854" y="-342" type="line" smooth="yes"/>
      <point x="887" y="-342"/>
      <point x="903" y="-326"/>
      <point x="903" y="-293" type="curve" smooth="yes"/>
      <point x="903" y="798" type="line" smooth="yes"/>
      <point x="903" y="911"/>
      <point x="837" y="976"/>
      <point x="723" y="976" type="curve" smooth="yes"/>
      <point x="668" y="976" type="line"/>
      <point x="569" y="923" type="line"/>
      <point x="569" y="1035" type="line"/>
      <point x="451" y="1035" type="line"/>
      <point x="451" y="878" type="line" smooth="yes"/>
      <point x="451" y="846"/>
      <point x="468" y="830"/>
      <point x="501" y="830" type="curve" smooth="yes"/>
      <point x="569" y="830" type="line"/>
      <point x="669" y="878" type="line"/>
      <point x="720" y="878" type="line" smooth="yes"/>
      <point x="759" y="878"/>
      <point x="781" y="848"/>
      <point x="781" y="797" type="curve" smooth="yes"/>
      <point x="781" y="-254" type="line"/>
      <point x="565" y="-254" type="line"/>
      <point x="565" y="-98" type="line" smooth="yes"/>
      <point x="565" y="-65"/>
      <point x="549" y="-49"/>
      <point x="516" y="-49" type="curve" smooth="yes"/>
      <point x="186" y="-49" type="line" smooth="yes"/>
      <point x="153" y="-49"/>
      <point x="137" y="-65"/>
      <point x="137" y="-98" type="curve" smooth="yes"/>
      <point x="137" y="-330" type="line"/>
      <point x="248" y="-330" type="line" smooth="yes"/>
      <point x="300" y="-330"/>
      <point x="330" y="-303"/>
      <point x="330" y="-257" type="curve" smooth="yes"/>
      <point x="330" y="-212"/>
      <point x="302" y="-186"/>
      <point x="253" y="-186" type="curve"/>
      <point x="253" y="-129" type="line"/>
      <point x="449" y="-129" type="line"/>
      <point x="449" y="-293" type="line" smooth="yes"/>
      <point x="449" y="-326"/>
      <point x="465" y="-342"/>
    </contour>
    <contour>
      <point x="252" y="-289" type="curve"/>
      <point x="252" y="-225" type="line"/>
      <point x="274" y="-225"/>
      <point x="286" y="-237"/>
      <point x="286" y="-257" type="curve" smooth="yes"/>
      <point x="286" y="-277"/>
      <point x="274" y="-289"/>
    </contour>
    <contour>
      <point x="464" y="0" type="line"/>
      <point x="586" y="0" type="line"/>
      <point x="586" y="684" type="line" smooth="yes"/>
      <point x="586" y="716"/>
      <point x="570" y="732"/>
      <point x="537" y="732" type="curve" smooth="yes"/>
      <point x="146" y="732" type="line" smooth="yes"/>
      <point x="114" y="732"/>
      <point x="98" y="716"/>
      <point x="98" y="684" type="curve" smooth="yes"/>
      <point x="98" y="0" type="line"/>
      <point x="218" y="0" type="line"/>
      <point x="281" y="19"/>
      <point x="317" y="67"/>
      <point x="317" y="134" type="curve" smooth="yes"/>
      <point x="317" y="194"/>
      <point x="283" y="236"/>
      <point x="220" y="244" type="curve"/>
      <point x="220" y="634" type="line"/>
      <point x="464" y="634" type="line"/>
    </contour>
    <contour>
      <point x="218" y="53" type="curve"/>
      <point x="218" y="192" type="line"/>
      <point x="245" y="188"/>
      <point x="261" y="167"/>
      <point x="261" y="132" type="curve" smooth="yes"/>
      <point x="261" y="94"/>
      <point x="244" y="67"/>
    </contour>
  </outline>
</glyph>
<glyph name="qu-khmer" format="2">
  <advance width="684"/>
  <unicode hex="17A7"/>
  <note>
increae mid bar weight to ន ខ ឧ and its seriees
</note>
  <outline>
    <contour>
      <point x="146" y="0" type="curve" smooth="yes"/>
      <point x="220" y="0" type="line"/>
      <point x="478" y="121" type="line"/>
      <point x="478" y="221" type="line"/>
      <point x="220" y="99" type="line"/>
      <point x="220" y="266" type="line"/>
      <point x="507" y="365" type="line" smooth="yes"/>
      <point x="564" y="385"/>
      <point x="586" y="430"/>
      <point x="586" y="493" type="curve" smooth="yes"/>
      <point x="586" y="684" type="line" smooth="yes"/>
      <point x="586" y="716"/>
      <point x="570" y="732"/>
      <point x="537" y="732" type="curve" smooth="yes"/>
      <point x="146" y="732" type="line" smooth="yes"/>
      <point x="114" y="732"/>
      <point x="98" y="716"/>
      <point x="98" y="684" type="curve" smooth="yes"/>
      <point x="98" y="509" type="line" smooth="yes"/>
      <point x="98" y="474"/>
      <point x="124" y="448"/>
      <point x="159" y="448" type="curve" smooth="yes"/>
      <point x="290" y="448" type="line"/>
      <point x="290" y="520" type="line"/>
      <point x="220" y="520" type="line"/>
      <point x="220" y="634" type="line"/>
      <point x="464" y="634" type="line"/>
      <point x="464" y="489" type="line" smooth="yes"/>
      <point x="464" y="459"/>
      <point x="449" y="440"/>
      <point x="419" y="429" type="curve" smooth="yes"/>
      <point x="98" y="315" type="line"/>
      <point x="98" y="49" type="line" smooth="yes"/>
      <point x="98" y="16"/>
      <point x="114" y="0"/>
    </contour>
    <contour>
      <point x="466" y="0" type="line"/>
      <point x="586" y="0" type="line"/>
      <point x="586" y="287" type="line"/>
      <point x="466" y="287" type="line"/>
    </contour>
  </outline>
</glyph>
<glyph name="quk-khmer" format="2">
	<advance width="684"/>
	<unicode hex="17A8"/>
	<outline>
		<contour>
			<point x="98" y="830" type="line"/>
			<point x="253" y="830" type="line"/>
			<point x="342" y="788" type="line"/>
			<point x="431" y="830" type="line"/>
			<point x="586" y="830" type="line"/>
			<point x="586" y="928" type="line"/>
			<point x="431" y="928" type="line"/>
			<point x="342" y="875" type="line"/>
			<point x="253" y="928" type="line"/>
			<point x="98" y="928" type="line"/>
		</contour>
		<component base="qu-khmer"/>
	</outline>
</glyph>
<glyph name="ry-khmer" format="2">
  <advance width="684"/>
  <unicode hex="17AB"/>
  <anchor x="342" y="0" name="bottom"/>
  <anchor x="586" y="0" name="bottomright"/>
  <anchor x="342" y="732" name="top"/>
  <anchor x="586" y="732" name="topright"/>
  <outline>
    <contour>
      <point x="98" y="-292" type="line"/>
      <point x="415" y="-292" type="line" smooth="yes"/>
      <point x="474" y="-292"/>
      <point x="507" y="-263"/>
      <point x="521" y="-212" type="curve" smooth="yes"/>
      <point x="566" y="-50" type="line"/>
      <point x="448" y="-50" type="line"/>
      <point x="408" y="-194" type="line"/>
      <point x="118" y="-194" type="line"/>
    </contour>
    <component base="ba-khmer"/>
  </outline>
</glyph>
<glyph name="ryy-khmer" format="2">
  <advance width="684"/>
  <unicode hex="17AC"/>
  <anchor x="342" y="0" name="bottom"/>
  <anchor x="586" y="0" name="bottomright"/>
  <anchor x="342" y="732" name="top"/>
  <anchor x="586" y="732" name="topright"/>
  <outline>
    <contour>
      <point x="583" y="-292" type="curve" smooth="yes"/>
      <point x="646" y="-292" type="line"/>
      <point x="646" y="-198" type="line"/>
      <point x="583" y="-198" type="line" smooth="yes"/>
      <point x="549" y="-198"/>
      <point x="536" y="-189"/>
      <point x="522" y="-164" type="curve"/>
      <point x="488" y="-182" type="line"/>
      <point x="495" y="-254"/>
      <point x="526" y="-292"/>
    </contour>
    <contour>
      <point x="98" y="-292" type="line"/>
      <point x="415" y="-292" type="line" smooth="yes"/>
      <point x="474" y="-292"/>
      <point x="507" y="-263"/>
      <point x="521" y="-212" type="curve" smooth="yes"/>
      <point x="566" y="-50" type="line"/>
      <point x="448" y="-50" type="line"/>
      <point x="408" y="-194" type="line"/>
      <point x="118" y="-194" type="line"/>
    </contour>
    <component base="ba-khmer"/>
  </outline>
</glyph>
<glyph name="ly-khmer" format="2">
  <advance width="684"/>
  <unicode hex="17AD"/>
  <anchor x="342" y="0" name="bottom"/>
  <anchor x="586" y="0" name="bottomright"/>
  <anchor x="342" y="732" name="top"/>
  <anchor x="586" y="732" name="topright"/>
  <outline>
    <contour>
      <point x="98" y="-292" type="line"/>
      <point x="425" y="-292" type="line" smooth="yes"/>
      <point x="484" y="-292"/>
      <point x="517" y="-263"/>
      <point x="531" y="-212" type="curve" smooth="yes"/>
      <point x="576" y="-50" type="line"/>
      <point x="458" y="-50" type="line"/>
      <point x="418" y="-194" type="line"/>
      <point x="118" y="-194" type="line"/>
    </contour>
    <component base="po-khmer"/>
  </outline>
</glyph>
<glyph name="lyy-khmer" format="2">
	<advance width="684"/>
	<unicode hex="17AE"/>
	<anchor x="342" y="732" name="top"/>
	<anchor x="586" y="732" name="topright"/>
	<anchor x="586" y="0" name="bottomright"/>
	<anchor x="342" y="0" name="bottom"/>
	<outline>
		<contour>
			<point x="593" y="-292" type="curve" smooth="yes"/>
			<point x="656" y="-292" type="line"/>
			<point x="656" y="-198" type="line"/>
			<point x="593" y="-198" type="line" smooth="yes"/>
			<point x="559" y="-198"/>
			<point x="546" y="-189"/>
			<point x="532" y="-164" type="curve"/>
			<point x="498" y="-182" type="line"/>
			<point x="505" y="-254"/>
			<point x="536" y="-292"/>
		</contour>
		<contour>
			<point x="98" y="-292" type="line"/>
			<point x="425" y="-292" type="line" smooth="yes"/>
			<point x="484" y="-292"/>
			<point x="517" y="-263"/>
			<point x="531" y="-212" type="curve" smooth="yes"/>
			<point x="576" y="-50" type="line"/>
			<point x="458" y="-50" type="line"/>
			<point x="418" y="-194" type="line"/>
			<point x="118" y="-194" type="line"/>
		</contour>
		<component base="po-khmer"/>
	</outline>
</glyph>
<glyph name="qe-khmer" format="2">
  <advance width="684"/>
  <unicode hex="17AF"/>
  <note>
• Lift loop up and reduce Co-hair Depth
</note>
  <outline>
    <contour>
      <point x="98" y="0" type="line"/>
      <point x="220" y="0" type="line"/>
      <point x="342" y="132" type="line"/>
      <point x="464" y="0" type="line"/>
      <point x="586" y="0" type="line"/>
      <point x="586" y="516" type="line" smooth="yes"/>
      <point x="586" y="643"/>
      <point x="517" y="706"/>
      <point x="387" y="706" type="curve" smooth="yes"/>
      <point x="355" y="706" type="line"/>
      <point x="200" y="657" type="line"/>
      <point x="200" y="770" type="line"/>
      <point x="80" y="770" type="line"/>
      <point x="80" y="612" type="line" smooth="yes"/>
      <point x="80" y="580"/>
      <point x="97" y="564"/>
      <point x="130" y="564" type="curve" smooth="yes"/>
      <point x="200" y="564" type="line"/>
      <point x="344" y="608" type="line"/>
      <point x="387" y="608" type="line" smooth="yes"/>
      <point x="438" y="608"/>
      <point x="464" y="575"/>
      <point x="464" y="522" type="curve" smooth="yes"/>
      <point x="464" y="132" type="line"/>
      <point x="353" y="252" type="line"/>
      <point x="331" y="252" type="line"/>
      <point x="220" y="132" type="line"/>
      <point x="220" y="356" type="line" smooth="yes"/>
      <point x="220" y="389"/>
      <point x="202" y="405"/>
      <point x="167" y="405" type="curve" smooth="yes"/>
      <point x="43" y="405" type="line"/>
      <point x="43" y="333" type="line"/>
      <point x="98" y="333" type="line"/>
    </contour>
  </outline>
</glyph>
<glyph name="qai-khmer" format="2">
	<advance width="684"/>
	<unicode hex="17B0"/>
	<note>
		• Make qai below mor corner
	</note>
	<outline>
		<contour>
			<point x="250" y="-339" type="curve" smooth="yes"/>
			<point x="325" y="-339"/>
			<point x="373" y="-300"/>
			<point x="382" y="-231" type="curve"/>
			<point x="383" y="-231" type="line"/>
			<point x="463" y="-278" type="line"/>
			<point x="526" y="-278" type="line" smooth="yes"/>
			<point x="564" y="-278"/>
			<point x="586" y="-256"/>
			<point x="586" y="-218" type="curve" smooth="yes"/>
			<point x="586" y="-110" type="line"/>
			<point x="535" y="-71" type="line"/>
			<point x="551" y="-64" type="line" smooth="yes"/>
			<point x="577" y="-53"/>
			<point x="586" y="-30"/>
			<point x="586" y="-3" type="curve" smooth="yes"/>
			<point x="586" y="684" type="line" smooth="yes"/>
			<point x="586" y="716"/>
			<point x="570" y="732"/>
			<point x="537" y="732" type="curve" smooth="yes"/>
			<point x="426" y="732" type="line"/>
			<point x="332" y="667" type="line"/>
			<point x="239" y="732" type="line"/>
			<point x="103" y="732" type="line"/>
			<point x="53" y="635" type="line"/>
			<point x="58" y="584"/>
			<point x="72" y="550"/>
			<point x="98" y="513" type="curve"/>
			<point x="98" y="0" type="line"/>
			<point x="218" y="0" type="line"/>
			<point x="281" y="19"/>
			<point x="317" y="67"/>
			<point x="317" y="134" type="curve" smooth="yes"/>
			<point x="317" y="194"/>
			<point x="283" y="236"/>
			<point x="220" y="244" type="curve"/>
			<point x="220" y="523" type="line"/>
			<point x="174" y="553"/>
			<point x="147" y="587"/>
			<point x="137" y="628" type="curve"/>
			<point x="239" y="628" type="line"/>
			<point x="332" y="574" type="line"/>
			<point x="426" y="628" type="line"/>
			<point x="464" y="628" type="line"/>
			<point x="464" y="29" type="line" smooth="yes"/>
			<point x="464" y="0"/>
			<point x="453" y="-12"/>
			<point x="434" y="-18" type="curve" smooth="yes"/>
			<point x="108" y="-116" type="line"/>
			<point x="108" y="-208" type="line" smooth="yes"/>
			<point x="108" y="-287"/>
			<point x="162" y="-339"/>
		</contour>
		<contour>
			<point x="218" y="53" type="curve"/>
			<point x="218" y="192" type="line"/>
			<point x="245" y="188"/>
			<point x="261" y="167"/>
			<point x="261" y="132" type="curve" smooth="yes"/>
			<point x="261" y="94"/>
			<point x="244" y="67"/>
		</contour>
		<contour>
			<point x="268" y="-257" type="curve" smooth="yes"/>
			<point x="241" y="-257"/>
			<point x="224" y="-240"/>
			<point x="224" y="-214" type="curve" smooth="yes"/>
			<point x="224" y="-161" type="line"/>
			<point x="472" y="-86" type="line"/>
			<point x="472" y="-205" type="line"/>
			<point x="473" y="-205" type="line"/>
			<point x="384" y="-154" type="line"/>
			<point x="328" y="-179" type="line"/>
			<point x="325" y="-232"/>
			<point x="301" y="-257"/>
		</contour>
	</outline>
</glyph>
<glyph name="qoo-khmer" format="2">
  <advance width="684"/>
  <unicode hex="17B1"/>
  <outline>
    <contour>
      <point x="98" y="891" type="curve" smooth="yes"/>
      <point x="98" y="780" type="line"/>
      <point x="210" y="780" type="line"/>
      <point x="210" y="874" type="line"/>
      <point x="396" y="874" type="line" smooth="yes"/>
      <point x="455" y="874"/>
      <point x="478" y="852"/>
      <point x="505" y="814" type="curve"/>
      <point x="597" y="864" type="line"/>
      <point x="549" y="935"/>
      <point x="503" y="972"/>
      <point x="418" y="972" type="curve" smooth="yes"/>
      <point x="169" y="972" type="line" smooth="yes"/>
      <point x="122" y="972"/>
      <point x="98" y="945"/>
    </contour>
    <component base="qu-khmer"/>
  </outline>
</glyph>
<glyph name="qooVariant-khmer" format="2">
  <advance width="694"/>
  <unicode hex="17B2"/>
  <note>
- increase width 10 units and make top bowl as corner
</note>
  <outline>
    <contour>
      <point x="148" y="0" type="curve" smooth="yes"/>
      <point x="546" y="0" type="line" smooth="yes"/>
      <point x="578" y="0"/>
      <point x="596" y="17"/>
      <point x="596" y="48" type="curve" smooth="yes"/>
      <point x="596" y="174" type="line" smooth="yes"/>
      <point x="596" y="219"/>
      <point x="570" y="251"/>
      <point x="490" y="263" type="curve"/>
      <point x="583" y="336" type="line"/>
      <point x="583" y="500" type="line" smooth="yes"/>
      <point x="583" y="531"/>
      <point x="565" y="548"/>
      <point x="533" y="548" type="curve" smooth="yes"/>
      <point x="291" y="548" type="line"/>
      <point x="291" y="388" type="line"/>
      <point x="389" y="388" type="line"/>
      <point x="389" y="458" type="line"/>
      <point x="471" y="458" type="line"/>
      <point x="471" y="344" type="line"/>
      <point x="385" y="276" type="line"/>
      <point x="385" y="226" type="line"/>
      <point x="451" y="223"/>
      <point x="474" y="206"/>
      <point x="474" y="160" type="curve" smooth="yes"/>
      <point x="474" y="98" type="line"/>
      <point x="220" y="98" type="line"/>
      <point x="220" y="634" type="line"/>
      <point x="552" y="634" type="line"/>
      <point x="584" y="732" type="line"/>
      <point x="146" y="732" type="line" smooth="yes"/>
      <point x="114" y="732"/>
      <point x="98" y="716"/>
      <point x="98" y="684" type="curve" smooth="yes"/>
      <point x="98" y="48" type="line" smooth="yes"/>
      <point x="98" y="17"/>
      <point x="116" y="0"/>
    </contour>
  </outline>
</glyph>
<glyph name="qau-khmer" format="2">
  <advance width="684"/>
  <unicode hex="17B3"/>
  <note>
•Extend  hair width
</note>
  <outline>
    <contour>
      <point x="98" y="898" type="curve" smooth="yes"/>
      <point x="98" y="780" type="line"/>
      <point x="210" y="780" type="line"/>
      <point x="210" y="874" type="line"/>
      <point x="299" y="874" type="line"/>
      <point x="437" y="808" type="line"/>
      <point x="536" y="808" type="line"/>
      <point x="536" y="943" type="line"/>
      <point x="615" y="943" type="line"/>
      <point x="635" y="1035" type="line"/>
      <point x="505" y="1035" type="line" smooth="yes"/>
      <point x="458" y="1035"/>
      <point x="434" y="1011"/>
      <point x="434" y="964" type="curve" smooth="yes"/>
      <point x="434" y="904" type="line"/>
      <point x="293" y="972" type="line"/>
      <point x="169" y="972" type="line" smooth="yes"/>
      <point x="124" y="972"/>
      <point x="98" y="945"/>
    </contour>
    <component base="qu-khmer"/>
  </outline>
</glyph>
<glyph name="aaSign-khmer" format="2">
	<advance width="354"/>
	<unicode hex="17B6"/>
	<anchor x="255" y="732" name="auStroke"/>
	<outline>
		<contour>
			<point x="134" y="0" type="line"/>
			<point x="256" y="0" type="line"/>
			<point x="256" y="674" type="line" smooth="yes"/>
			<point x="256" y="711"/>
			<point x="235" y="732"/>
			<point x="197" y="732" type="curve" smooth="yes"/>
			<point x="-84" y="732" type="line"/>
			<point x="-114" y="628" type="line"/>
			<point x="134" y="628" type="line"/>
		</contour>
	</outline>
</glyph>
<glyph name="iiMark-khmer" format="2">
	<advance width="0"/>
	<unicode hex="17B8"/>
	<anchor x="-100" y="732" name="_topright"/>
	<outline>
		<contour>
			<point x="-540" y="820" type="line"/>
			<point x="-100" y="820" type="line"/>
			<point x="-100" y="1035" type="line"/>
			<point x="-206" y="1035" type="line"/>
			<point x="-206" y="902" type="line"/>
			<point x="-291" y="936" type="line"/>
			<point x="-540" y="936" type="line"/>
		</contour>
	</outline>
</glyph>
<glyph name="yMark-khmer" format="2">
	<advance width="0"/>
	<unicode hex="17B9"/>
	<anchor x="-107" y="732" name="_topright"/>
	<outline>
		<contour>
			<point x="-205" y="890" type="curve"/>
			<point x="-355" y="936" type="line"/>
			<point x="-548" y="936" type="line"/>
			<point x="-548" y="820" type="line"/>
			<point x="-188" y="820" type="line" smooth="yes"/>
			<point x="-130" y="820"/>
			<point x="-100" y="848"/>
			<point x="-100" y="905" type="curve" smooth="yes"/>
			<point x="-100" y="950" type="line" smooth="yes"/>
			<point x="-100" y="1008"/>
			<point x="-148" y="1046"/>
			<point x="-220" y="1046" type="curve" smooth="yes"/>
			<point x="-292" y="1046"/>
			<point x="-340" y="1008"/>
			<point x="-340" y="950" type="curve" smooth="yes"/>
			<point x="-340" y="904" type="line"/>
			<point x="-260" y="884" type="line"/>
			<point x="-260" y="942" type="line" smooth="yes"/>
			<point x="-260" y="964"/>
			<point x="-244" y="978"/>
			<point x="-220" y="978" type="curve" smooth="yes"/>
			<point x="-196" y="978"/>
			<point x="-180" y="964"/>
			<point x="-180" y="942" type="curve" smooth="yes"/>
			<point x="-180" y="922" type="line" smooth="yes"/>
			<point x="-180" y="901"/>
			<point x="-188" y="890"/>
		</contour>
	</outline>
</glyph>
<glyph name="yyMark-khmer" format="2">
	<advance width="0"/>
	<unicode hex="17BA"/>
	<anchor x="-100" y="732" name="_topright"/>
	<outline>
		<contour>
			<point x="-540" y="820" type="line"/>
			<point x="-100" y="820" type="line"/>
			<point x="-100" y="1036" type="line"/>
			<point x="-212" y="1036" type="line"/>
			<point x="-212" y="909" type="line"/>
			<point x="-310" y="936" type="line"/>
			<point x="-540" y="936" type="line"/>
		</contour>
		<contour>
			<point x="-286" y="900" type="line"/>
			<point x="-286" y="1036" type="line"/>
			<point x="-392" y="1036" type="line"/>
			<point x="-392" y="920" type="line"/>
		</contour>
	</outline>
</glyph>
<glyph name="uaMark-khmer" format="2">
  <unicode hex="17BD"/>
  <anchor x="-100" y="0" name="_bottomright"/>
  <outline>
    <contour>
      <point x="-414" y="-330" type="line"/>
      <point x="-321" y="-330" type="line"/>
      <point x="-257" y="-258" type="line"/>
      <point x="-193" y="-330" type="line"/>
      <point x="-100" y="-330" type="line"/>
      <point x="-100" y="-50" type="line"/>
      <point x="-206" y="-50" type="line"/>
      <point x="-206" y="-217" type="line"/>
      <point x="-252" y="-169" type="line"/>
      <point x="-262" y="-169" type="line"/>
      <point x="-308" y="-217" type="line"/>
      <point x="-308" y="-50" type="line"/>
      <point x="-414" y="-50" type="line"/>
    </contour>
  </outline>
</glyph>
<glyph name="yaSign-khmer" format="2">
	<advance width="318"/>
	<unicode hex="17BF"/>
	<outline>
		<contour>
			<point x="-165" y="-330" type="curve" smooth="yes"/>
			<point x="171" y="-330" type="line" smooth="yes"/>
			<point x="204" y="-330"/>
			<point x="220" y="-314"/>
			<point x="220" y="-281" type="curve" smooth="yes"/>
			<point x="220" y="716" type="line" smooth="yes"/>
			<point x="220" y="794"/>
			<point x="198" y="852"/>
			<point x="127" y="870" type="curve"/>
			<point x="-42" y="946" type="line"/>
			<point x="-272" y="946" type="line"/>
			<point x="-272" y="830" type="line"/>
			<point x="-22" y="830" type="line" smooth="yes"/>
			<point x="35" y="830"/>
			<point x="98" y="802"/>
			<point x="98" y="726" type="curve" smooth="yes"/>
			<point x="98" y="-238" type="line"/>
			<point x="-98" y="-238" type="line"/>
			<point x="-98" y="-50" type="line"/>
			<point x="-214" y="-50" type="line"/>
			<point x="-214" y="-281" type="line" smooth="yes"/>
			<point x="-214" y="-314"/>
			<point x="-198" y="-330"/>
		</contour>
		<contour>
			<point x="-7" y="910" type="line"/>
			<point x="-7" y="1036" type="line"/>
			<point x="-109" y="1036" type="line"/>
			<point x="-109" y="930" type="line"/>
		</contour>
		<contour>
			<point x="147" y="840" type="line"/>
			<point x="177" y="946" type="line"/>
			<point x="177" y="1036" type="line"/>
			<point x="75" y="1036" type="line"/>
			<point x="75" y="860" type="line"/>
		</contour>
	</outline>
</glyph>
<glyph name="ieSign-khmer" format="2">
  <advance width="317"/>
  <unicode hex="17C0"/>
  <outline>
    <contour>
      <point x="-163" y="-331" type="curve" smooth="yes"/>
      <point x="169" y="-331" type="line" smooth="yes"/>
      <point x="201" y="-331"/>
      <point x="220" y="-314"/>
      <point x="220" y="-284" type="curve" smooth="yes"/>
      <point x="220" y="798" type="line" smooth="yes"/>
      <point x="220" y="911"/>
      <point x="154" y="976"/>
      <point x="40" y="976" type="curve" smooth="yes"/>
      <point x="-15" y="976" type="line"/>
      <point x="-114" y="923" type="line"/>
      <point x="-114" y="1035" type="line"/>
      <point x="-232" y="1035" type="line"/>
      <point x="-232" y="878" type="line" smooth="yes"/>
      <point x="-232" y="846"/>
      <point x="-215" y="830"/>
      <point x="-182" y="830" type="curve" smooth="yes"/>
      <point x="-114" y="830" type="line"/>
      <point x="-14" y="878" type="line"/>
      <point x="37" y="878" type="line" smooth="yes"/>
      <point x="76" y="878"/>
      <point x="98" y="848"/>
      <point x="98" y="797" type="curve" smooth="yes"/>
      <point x="98" y="-239" type="line"/>
      <point x="-98" y="-239" type="line"/>
      <point x="-98" y="-50" type="line"/>
      <point x="-214" y="-50" type="line"/>
      <point x="-214" y="-284" type="line" smooth="yes"/>
      <point x="-214" y="-314"/>
      <point x="-195" y="-331"/>
    </contour>
  </outline>
</glyph>
<glyph name="eSign-khmer" format="2">
  <advance width="353"/>
  <unicode hex="17C1"/>
  <outline>
    <contour>
      <point x="220" y="517" type="line"/>
      <point x="167" y="548"/>
      <point x="129" y="589"/>
      <point x="118" y="628" type="curve"/>
      <point x="240" y="628" type="line"/>
      <point x="271" y="732" type="line"/>
      <point x="80" y="732" type="line"/>
      <point x="34" y="628" type="line"/>
      <point x="45" y="585"/>
      <point x="68" y="541"/>
      <point x="98" y="508" type="curve"/>
      <point x="98" y="0" type="line"/>
      <point x="218" y="0" type="line"/>
      <point x="281" y="19"/>
      <point x="317" y="67"/>
      <point x="317" y="134" type="curve" smooth="yes"/>
      <point x="317" y="194"/>
      <point x="283" y="236"/>
      <point x="220" y="244" type="curve"/>
    </contour>
    <contour>
      <point x="218" y="53" type="curve"/>
      <point x="218" y="192" type="line"/>
      <point x="245" y="188"/>
      <point x="261" y="167"/>
      <point x="261" y="132" type="curve" smooth="yes"/>
      <point x="261" y="94"/>
      <point x="244" y="67"/>
    </contour>
  </outline>
</glyph>
<glyph name="aeSign-khmer" format="2">
	<advance width="353"/>
	<unicode hex="17C2"/>
	<outline>
		<contour>
			<point x="29" y="770" type="line"/>
			<point x="193" y="770" type="line" smooth="yes"/>
			<point x="246" y="770"/>
			<point x="276" y="800"/>
			<point x="276" y="852" type="curve" smooth="yes"/>
			<point x="276" y="1056" type="line"/>
			<point x="162" y="1056" type="line"/>
			<point x="162" y="862" type="line"/>
			<point x="54" y="862" type="line"/>
		</contour>
		<component base="eSign-khmer"/>
	</outline>
</glyph>
<glyph name="aiSign-khmer" format="2">
	<advance width="353"/>
	<unicode hex="17C3"/>
	<outline>
		<contour>
			<point x="53" y="770" type="line"/>
			<point x="211" y="770" type="line" smooth="yes"/>
			<point x="258" y="770"/>
			<point x="284" y="796"/>
			<point x="284" y="842" type="curve" smooth="yes"/>
			<point x="284" y="969" type="line" smooth="yes"/>
			<point x="284" y="994"/>
			<point x="268" y="1012"/>
			<point x="235" y="1012" type="curve" smooth="yes"/>
			<point x="182" y="1012" type="line"/>
			<point x="118" y="993" type="line"/>
			<point x="118" y="1056" type="line"/>
			<point x="12" y="1056" type="line"/>
			<point x="12" y="945" type="line" smooth="yes"/>
			<point x="12" y="928"/>
			<point x="26" y="914"/>
			<point x="43" y="914" type="curve" smooth="yes"/>
			<point x="103" y="914" type="line"/>
			<point x="182" y="937" type="line"/>
			<point x="182" y="848" type="line"/>
			<point x="74" y="848" type="line"/>
		</contour>
		<component base="eSign-khmer"/>
	</outline>
</glyph>
<glyph name="ooSign-khmer" format="2">
	<advance width="317"/>
	<unicode hex="17C4"/>
	<outline>
		<contour>
			<point x="98" y="0" type="line"/>
			<point x="220" y="0" type="line"/>
			<point x="220" y="684" type="line" smooth="yes"/>
			<point x="220" y="716"/>
			<point x="204" y="732"/>
			<point x="171" y="732" type="curve" smooth="yes"/>
			<point x="-98" y="732" type="line"/>
			<point x="-98" y="628" type="line"/>
			<point x="98" y="628" type="line"/>
		</contour>
	</outline>
</glyph>
<glyph name="auSign-khmer" format="2">
	<advance width="317"/>
	<unicode hex="17C5"/>
	<outline>
		<contour>
			<point x="98" y="0" type="line"/>
			<point x="220" y="0" type="line"/>
			<point x="220" y="654" type="line" smooth="yes"/>
			<point x="220" y="704"/>
			<point x="191" y="732"/>
			<point x="141" y="732" type="curve" smooth="yes"/>
			<point x="-118" y="732" type="line"/>
			<point x="-118" y="628" type="line"/>
			<point x="98" y="628" type="line"/>
		</contour>
		<contour>
			<point x="89" y="722" type="curve"/>
			<point x="139" y="707" type="line"/>
			<point x="198" y="729"/>
			<point x="220" y="760"/>
			<point x="220" y="821" type="curve" smooth="yes"/>
			<point x="220" y="972" type="line"/>
			<point x="102" y="972" type="line"/>
			<point x="102" y="796" type="line" smooth="yes"/>
			<point x="102" y="766"/>
			<point x="98" y="745"/>
		</contour>
	</outline>
</glyph>
<glyph name="nikahit-khmer" format="2">
  <unicode hex="17C6"/>
  <anchor x="-316" y="732" name="_top"/>
  <outline>
    <contour>
      <point x="-316" y="810" type="curve" smooth="yes"/>
      <point x="-228" y="810"/>
      <point x="-184" y="849"/>
      <point x="-184" y="928" type="curve" smooth="yes"/>
      <point x="-184" y="1007"/>
      <point x="-228" y="1046"/>
      <point x="-316" y="1046" type="curve" smooth="yes"/>
      <point x="-404" y="1046"/>
      <point x="-448" y="1007"/>
      <point x="-448" y="928" type="curve" smooth="yes"/>
      <point x="-448" y="849"/>
      <point x="-404" y="810"/>
    </contour>
    <contour>
      <point x="-316" y="878" type="curve" smooth="yes"/>
      <point x="-344" y="878"/>
      <point x="-358" y="895"/>
      <point x="-358" y="928" type="curve" smooth="yes"/>
      <point x="-358" y="961"/>
      <point x="-344" y="978"/>
      <point x="-316" y="978" type="curve" smooth="yes"/>
      <point x="-288" y="978"/>
      <point x="-274" y="961"/>
      <point x="-274" y="928" type="curve" smooth="yes"/>
      <point x="-274" y="895"/>
      <point x="-288" y="878"/>
    </contour>
  </outline>
</glyph>
<glyph name="reahmuk-khmer" format="2">
	<advance width="350"/>
	<unicode hex="17C7"/>
	<outline>
		<contour>
			<point x="175" y="460" type="curve" smooth="yes"/>
			<point x="264" y="460"/>
			<point x="308" y="503"/>
			<point x="308" y="589" type="curve" smooth="yes"/>
			<point x="308" y="675"/>
			<point x="264" y="718"/>
			<point x="175" y="718" type="curve" smooth="yes"/>
			<point x="86" y="718"/>
			<point x="42" y="675"/>
			<point x="42" y="589" type="curve" smooth="yes"/>
			<point x="42" y="503"/>
			<point x="86" y="460"/>
		</contour>
		<contour>
			<point x="175" y="535" type="curve" smooth="yes"/>
			<point x="144" y="535"/>
			<point x="129" y="553"/>
			<point x="129" y="589" type="curve" smooth="yes"/>
			<point x="129" y="625"/>
			<point x="144" y="643"/>
			<point x="175" y="643" type="curve" smooth="yes"/>
			<point x="206" y="643"/>
			<point x="221" y="625"/>
			<point x="221" y="589" type="curve" smooth="yes"/>
			<point x="221" y="553"/>
			<point x="206" y="535"/>
		</contour>
		<contour>
			<point x="175" y="0" type="curve" smooth="yes"/>
			<point x="264" y="0"/>
			<point x="308" y="43"/>
			<point x="308" y="129" type="curve" smooth="yes"/>
			<point x="308" y="215"/>
			<point x="264" y="258"/>
			<point x="175" y="258" type="curve" smooth="yes"/>
			<point x="86" y="258"/>
			<point x="42" y="215"/>
			<point x="42" y="129" type="curve" smooth="yes"/>
			<point x="42" y="43"/>
			<point x="86" y="0"/>
		</contour>
		<contour>
			<point x="175" y="75" type="curve" smooth="yes"/>
			<point x="144" y="75"/>
			<point x="129" y="93"/>
			<point x="129" y="129" type="curve" smooth="yes"/>
			<point x="129" y="165"/>
			<point x="144" y="183"/>
			<point x="175" y="183" type="curve" smooth="yes"/>
			<point x="206" y="183"/>
			<point x="221" y="165"/>
			<point x="221" y="129" type="curve" smooth="yes"/>
			<point x="221" y="93"/>
			<point x="206" y="75"/>
		</contour>
	</outline>
</glyph>
<glyph name="yuukaleapintu-khmer" format="2">
  <advance width="224"/>
  <unicode hex="17C8"/>
  <outline>
    <contour>
      <point x="40" y="548" type="line"/>
      <point x="178" y="548" type="line"/>
      <point x="178" y="686" type="line"/>
      <point x="40" y="686" type="line"/>
    </contour>
    <contour>
      <point x="40" y="50" type="line"/>
      <point x="178" y="50" type="line"/>
      <point x="178" y="188" type="line"/>
      <point x="40" y="188" type="line"/>
    </contour>
  </outline>
</glyph>
<glyph name="muusikatoan-khmer" format="2">
  <unicode hex="17C9"/>
  <anchor x="-250" y="732" name="_top"/>
  <outline>
    <contour>
      <point x="-173" y="820" type="line"/>
      <point x="-100" y="820" type="line"/>
      <point x="-100" y="1036" type="line"/>
      <point x="-210" y="1036" type="line"/>
      <point x="-210" y="940" type="line"/>
    </contour>
    <contour>
      <point x="-363" y="820" type="line"/>
      <point x="-290" y="820" type="line"/>
      <point x="-290" y="1036" type="line"/>
      <point x="-400" y="1036" type="line"/>
      <point x="-400" y="940" type="line"/>
    </contour>
  </outline>
</glyph>
<glyph name="triisap-khmer" format="2">
  <unicode hex="17CA"/>
  <anchor x="-365" y="732" name="_top"/>
  <anchor x="-352" y="912" name="top"/>
  <anchor x="-130" y="912" name="topright"/>
  <outline>
    <contour>
      <point x="-404" y="780" type="line"/>
      <point x="-299" y="780" type="line"/>
      <point x="-271" y="820" type="line"/>
      <point x="-126" y="820" type="line"/>
      <point x="-100" y="912" type="line"/>
      <point x="-270" y="912" type="line" smooth="yes"/>
      <point x="-299" y="912"/>
      <point x="-321" y="904"/>
      <point x="-334" y="885" type="curve" smooth="yes"/>
      <point x="-404" y="784" type="line"/>
    </contour>
    <contour>
      <point x="-604" y="820" type="line"/>
      <point x="-329" y="820" type="line"/>
      <point x="-399" y="912" type="line"/>
      <point x="-604" y="912" type="line"/>
    </contour>
  </outline>
</glyph>
<glyph name="bantoc-khmer" format="2">
  <unicode hex="17CB"/>
  <anchor x="-156" y="732" name="_top"/>
  <outline>
    <contour>
      <point x="-175" y="820" type="line"/>
      <point x="-100" y="820" type="line"/>
      <point x="-100" y="1036" type="line"/>
      <point x="-212" y="1036" type="line"/>
      <point x="-212" y="940" type="line"/>
    </contour>
  </outline>
</glyph>
<glyph name="robat-khmer" format="2">
  <unicode hex="17CC"/>
  <anchor x="-98" y="732" name="_topright"/>
  <outline>
    <contour>
      <point x="-342" y="892" type="line"/>
      <point x="-261" y="918"/>
      <point x="-202" y="971"/>
      <point x="-210" y="1036" type="curve"/>
      <point x="-330" y="1036" type="line"/>
      <point x="-319" y="957"/>
      <point x="-417" y="912"/>
      <point x="-500" y="888" type="curve"/>
      <point x="-500" y="810" type="line"/>
      <point x="-128" y="810" type="line"/>
      <point x="-100" y="898" type="line"/>
      <point x="-243" y="898" type="line"/>
      <point x="-342" y="888" type="line"/>
    </contour>
  </outline>
</glyph>
<glyph name="samyoksannya-khmer" format="2">
  <unicode hex="17D0"/>
  <anchor x="-277" y="732" name="_topright"/>
  <outline>
    <contour>
      <point x="-450" y="820" type="curve" smooth="yes"/>
      <point x="-274" y="820" type="line" smooth="yes"/>
      <point x="-225" y="820"/>
      <point x="-204" y="831"/>
      <point x="-189" y="863" type="curve" smooth="yes"/>
      <point x="-100" y="1056" type="line"/>
      <point x="-221" y="1056" type="line"/>
      <point x="-291" y="896" type="line"/>
      <point x="-418" y="896" type="line" smooth="yes"/>
      <point x="-446" y="896"/>
      <point x="-454" y="907"/>
      <point x="-454" y="932" type="curve" smooth="yes"/>
      <point x="-454" y="970" type="line"/>
      <point x="-392" y="970" type="line"/>
      <point x="-369" y="1036" type="line"/>
      <point x="-516" y="1036" type="line" smooth="yes"/>
      <point x="-551" y="1036"/>
      <point x="-568" y="1019"/>
      <point x="-568" y="984" type="curve" smooth="yes"/>
      <point x="-568" y="903" type="line" smooth="yes"/>
      <point x="-568" y="848"/>
      <point x="-531" y="820"/>
    </contour>
  </outline>
</glyph>
<glyph name="viriam-khmer" format="2">
	<advance width="0"/>
	<unicode hex="17D1"/>
	<anchor x="-318" y="732" name="_top"/>
	<outline>
		<contour>
			<point x="-560" y="820" type="line"/>
			<point x="-96" y="820" type="line"/>
			<point x="-76" y="912" type="line"/>
			<point x="-560" y="912" type="line"/>
		</contour>
	</outline>
</glyph>
<glyph name="bathamasat-khmer" format="2">
  <unicode hex="17D3"/>
  <anchor x="-230" y="732" name="_top"/>
  <outline>
    <contour>
      <point x="-323" y="820" type="curve" smooth="yes"/>
      <point x="-137" y="820" type="line" smooth="yes"/>
      <point x="-116" y="820"/>
      <point x="-100" y="836"/>
      <point x="-100" y="857" type="curve" smooth="yes"/>
      <point x="-100" y="965" type="line" smooth="yes"/>
      <point x="-100" y="986"/>
      <point x="-116" y="1002"/>
      <point x="-137" y="1002" type="curve" smooth="yes"/>
      <point x="-323" y="1002" type="line" smooth="yes"/>
      <point x="-344" y="1002"/>
      <point x="-360" y="986"/>
      <point x="-360" y="965" type="curve" smooth="yes"/>
      <point x="-360" y="857" type="line" smooth="yes"/>
      <point x="-360" y="836"/>
      <point x="-344" y="820"/>
    </contour>
    <contour>
      <point x="-278" y="880" type="line"/>
      <point x="-278" y="942" type="line"/>
      <point x="-182" y="942" type="line"/>
      <point x="-182" y="880" type="line"/>
    </contour>
  </outline>
</glyph>
<glyph name="khan-khmer" format="2">
  <advance width="636"/>
  <unicode hex="17D4"/>
  <outline>
    <contour>
      <point x="416" y="0" type="line"/>
      <point x="538" y="0" type="line"/>
      <point x="538" y="731" type="line"/>
      <point x="416" y="731" type="line"/>
      <point x="416" y="476" type="line"/>
      <point x="200" y="476" type="line"/>
      <point x="200" y="657" type="line"/>
      <point x="290" y="657" type="line"/>
      <point x="290" y="731" type="line"/>
      <point x="130" y="731" type="line" smooth="yes"/>
      <point x="98" y="731"/>
      <point x="80" y="714"/>
      <point x="80" y="683" type="curve" smooth="yes"/>
      <point x="80" y="428" type="line" smooth="yes"/>
      <point x="80" y="396"/>
      <point x="97" y="380"/>
      <point x="130" y="380" type="curve" smooth="yes"/>
      <point x="329" y="380" type="line" smooth="yes"/>
      <point x="371" y="380"/>
      <point x="397" y="392"/>
      <point x="416" y="420" type="curve"/>
    </contour>
  </outline>
</glyph>
